SplineFontDB: 2.0
FontName: Samyak-Tamil
FullName: Samyak Tamil
FamilyName: Samyak Tamil
Weight: Medium
Copyright: Created by:\nRahul Bhalerao <b.rahul.pm@gmail.com>, \nSandeep Shedmake <sandeep.shedmake@gmail.com>, \nBageshri Salvi <sbageshri@gmail.com>, \nPravin Satpute <pravin.d.s@gmail.com>\n\nGNU GPL V.3 or later (with Font Exception), Copyright `2005-2006 by  H.B.C.S.E., T.I.F.R.,\nHomi Bhabha Centre For Science Education, \nTata Institute Of Fundamental Research,\nV.N. Purav Marg, Mankhurd, \nMumbai 400 088, INDIA.\n\nAs a special exception, if you create a document which uses this font, and embed this font or unaltered portions of this font into the document, this font does not by itself cause the resulting document to be covered by the GNU General Public License. This exception does not however invalidate any other reasons why the document might be covered by the GNU General Public License. If you modify this font, you may extend this exception to your version of the font, but you are not obligated to do so. If you do not wish to do so, delete this exception statement from your version.  \n\nFor detailed license see: \nwww.gnu.org and\nhttp://www.gnu.org/licenses/gpl-faq.html#FontException\n\nFurther info :http://sarovar.org/projects/samyak/\nwww.gnowledge.org\n\nCONTACTS:\nNagarjuna G.\nEmail:nagarjun@gnowledge.org
Version: 1.2
ItalicAngle: 0
UnderlinePosition: -100
UnderlineWidth: 50
Ascent: 819
Descent: 205
Order2: 1
NeedsXUIDChange: 1
FSType: 0
OS2Version: 0
OS2_WeightWidthSlopeOnly: 0
OS2_UseTypoMetrics: 0
CreationTime: 1175679889
ModificationTime: 1204098395
PfmFamily: 17
TTFWeight: 500
TTFWidth: 5
LineGap: 102
VLineGap: 0
Panose: 2 0 6 3 0 0 0 0 0 0
OS2TypoAscent: 819
OS2TypoAOffset: 1
OS2TypoDescent: -205
OS2TypoDOffset: 1
OS2TypoLinegap: 0
OS2WinAscent: -156
OS2WinAOffset: 1
OS2WinDescent: -4
OS2WinDOffset: 1
HheadAscent: 0
HheadAOffset: 1
HheadDescent: 0
HheadDOffset: 1
OS2SubXSize: 665
OS2SubYSize: 716
OS2SubXOff: 0
OS2SubYOff: 143

StartChar: Pulli
Encoding: 2946 2946 1
Width: 454
GlyphClass: 2
Flags: W
Fore
122 962 m 0,0,1
 191 962 191 962 238 915 c 1,2,-1
 253 897 l 1,3,4
 274 866 274 866 274 825 c 0,5,6
 274 748 274 748 215 702 c 1,7,8
 184 680 184 680 144 672 c 0,9,10
 98 664 98 664 58 683 c 0,11,12
 37 692 37 692 17 709 c 1,13,14
 -39 765 -39 765 -40 834 c 0,15,16
 -40 893 -40 893 20 932 c 0,17,18
 66 962 66 962 122 962 c 0,0,1
EndSplineSet
EndChar
StartChar: Ayutham
Encoding: 2947 2947 2
Width: 811
GlyphClass: 2
Flags: W
Fore
604 240 m 0,0,1
 568 240 568 240 542 204 c 1,2,-1
 531 187 l 1,3,4
 522 169 522 169 522 150 c 0,5,6
 522 84 522 84 570 60 c 0,7,8
 592 50 592 50 614 50 c 0,9,10
 648 50 648 50 669 90 c 0,11,12
 682 115 682 115 682 144 c 0,13,14
 682 192 682 192 650 221 c 0,15,16
 629 240 629 240 604 240 c 0,0,1
606 292 m 0,17,18
 674 292 674 292 722 246 c 1,19,-1
 738 227 l 1,20,21
 759 196 759 196 759 156 c 0,22,23
 759 78 759 78 699 33 c 0,24,25
 670 10 670 10 629 2 c 0,26,27
 582 -7 582 -7 543 12 c 1,28,-1
 516 28 l 2,29,30
 509 33 509 33 503 39 c 0,31,32
 447 92 447 92 444 164 c 1,33,34
 444 222 444 222 505 262 c 0,35,36
 552 292 552 292 606 292 c 0,17,18
164 238 m 0,37,38
 126 238 126 238 101 202 c 1,39,-1
 91 185 l 1,40,41
 82 167 82 167 82 147 c 0,42,43
 82 82 82 82 130 58 c 0,44,45
 152 48 152 48 174 48 c 0,46,47
 209 48 209 48 228 88 c 1,48,49
 242 114 242 114 242 142 c 0,50,51
 242 190 242 190 210 219 c 0,52,53
 188 238 188 238 164 238 c 0,37,38
166 292 m 0,54,55
 234 292 234 292 282 246 c 1,56,-1
 298 227 l 1,57,58
 318 197 318 197 318 156 c 0,59,60
 318 77 318 77 259 33 c 0,61,62
 230 10 230 10 188 2 c 0,63,64
 142 -7 142 -7 102 12 c 0,65,66
 81 22 81 22 62 39 c 0,67,68
 7 92 7 92 4 164 c 1,69,70
 4 223 4 223 65 262 c 0,71,72
 110 292 110 292 166 292 c 0,54,55
395 565 m 0,73,74
 358 565 358 565 333 529 c 1,75,-1
 323 513 l 2,76,77
 313 496 313 496 313 475 c 0,78,79
 313 410 313 410 361 386 c 0,80,81
 380 376 380 376 406 376 c 0,82,83
 439 376 439 376 460 416 c 0,84,85
 473 441 473 441 473 470 c 0,86,87
 473 519 473 519 441 547 c 0,88,89
 422 565 422 565 395 565 c 0,73,74
397 617 m 0,90,91
 467 617 467 617 513 571 c 1,92,-1
 529 553 l 1,93,94
 550 522 550 522 550 481 c 0,95,96
 550 404 550 404 490 358 c 0,97,98
 458 334 458 334 420 328 c 0,99,100
 373 319 373 319 334 338 c 0,101,102
 313 348 313 348 294 365 c 0,103,104
 239 417 239 417 236 489 c 1,105,106
 236 549 236 549 296 588 c 0,107,108
 341 617 341 617 397 617 c 0,90,91
EndSplineSet
EndChar
StartChar: TamlA
Encoding: 2949 2949 3
Width: 1196
GlyphClass: 2
Flags: W
Fore
1067 -103 m 2,0,1
 1067 -142 1067 -142 1101 -142 c 0,2,3
 1133 -142 1133 -142 1142 -111 c 0,4,5
 1144 -102 1144 -102 1145 -103 c 0,6,7
 1148 -137 1148 -137 1134 -162 c 0,8,9
 1127 -175 1127 -175 1116 -186 c 0,10,11
 1095 -207 1095 -207 1059 -209 c 0,12,13
 1019 -210 1019 -210 1001 -182 c 0,14,15
 992 -168 992 -168 988 -146 c 0,16,17
 986 -130 986 -130 986 -118 c 2,18,-1
 986 778 l 2,19,20
 986 808 986 808 1019 818 c 1,21,22
 1055 831 1055 831 1059 835 c 0,23,24
 1064 840 1064 840 1067 846 c 1,25,-1
 1067 -103 l 2,0,1
662 241 m 1,26,-1
 102 240 l 1,27,28
 80 234 80 234 81 208 c 0,29,30
 83 156 83 156 144 114 c 0,31,32
 217 65 217 65 369 61 c 0,33,34
 455 59 455 59 516 78 c 0,35,36
 547 88 547 88 572 103 c 0,37,38
 647 150 647 150 662 241 c 1,26,-1
403 795 m 1,39,40
 355 795 355 795 329 764 c 1,41,42
 299 731 299 731 303 684 c 0,43,44
 303 680 303 680 304 676 c 1,45,-1
 306 660 l 1,46,-1
 314 638 l 1,47,48
 346 603 346 603 378 608 c 0,49,50
 381 608 381 608 384 609 c 0,51,52
 390 611 390 611 393 611 c 0,53,54
 435 622 435 622 444 654 c 0,55,56
 449 669 449 669 448 688 c 0,57,58
 447 696 447 696 446 706 c 0,59,60
 444 721 444 721 439 736 c 0,61,62
 429 772 429 772 403 795 c 1,39,40
565 34 m 0,63,64
 504 4 504 4 371 6 c 0,65,66
 367 6 367 6 362 6 c 0,67,68
 155 12 155 12 56 95 c 0,69,70
 -5 146 -5 146 0 214 c 0,71,72
 1 218 1 218 1 222 c 0,73,74
 3 232 3 232 5 238 c 0,75,76
 23 288 23 288 73 288 c 2,77,-1
 673 289 l 1,78,79
 692 373 692 373 678 472 c 0,80,81
 670 523 670 523 654 578 c 0,82,83
 630 663 630 663 559 722 c 1,84,85
 480 790 480 790 456 793 c 1,86,87
 514 753 514 753 508 680 c 0,88,89
 508 676 508 676 507 671 c 0,90,91
 492 560 492 560 368 560 c 0,92,93
 263 560 263 560 245 647 c 0,94,95
 236 689 236 689 244 725 c 0,96,97
 248 743 248 743 256 759 c 0,98,99
 268 784 268 784 291 805 c 0,100,101
 335 846 335 846 395 846 c 2,102,-1
 427 846 l 2,103,104
 514 846 514 846 614 777 c 1,105,106
 704 707 704 707 743 556 c 0,107,108
 755 513 755 513 751 408 c 0,109,110
 749 357 749 357 744 291 c 1,111,-1
 1006 291 l 1,112,-1
 1023 263 l 1,113,-1
 1002 240 l 1,114,-1
 734 240 l 1,115,-1
 716 184 l 1,116,117
 680 88 680 88 565 34 c 0,63,64
EndSplineSet
EndChar
StartChar: TamlAA
Encoding: 2950 2950 4
Width: 1409
GlyphClass: 2
Flags: W
Fore
1067 112 m 2,0,1
 1067 73 1067 73 1101 73 c 0,2,3
 1133 73 1133 73 1142 104 c 0,4,5
 1144 113 1144 113 1145 112 c 0,6,7
 1148 78 1148 78 1134 52 c 0,8,9
 1127 40 1127 40 1116 29 c 0,10,11
 1095 8 1095 8 1059 6 c 0,12,13
 1019 5 1019 5 1001 33 c 0,14,15
 992 47 992 47 988 69 c 0,16,17
 986 85 986 85 986 97 c 2,18,-1
 986 778 l 2,19,20
 986 808 986 808 1019 818 c 1,21,22
 1055 831 1055 831 1059 835 c 0,23,24
 1064 840 1064 840 1067 846 c 1,25,-1
 1067 112 l 2,0,1
662 241 m 1,26,-1
 102 240 l 1,27,28
 80 234 80 234 81 208 c 0,29,30
 83 156 83 156 144 114 c 0,31,32
 217 65 217 65 369 61 c 0,33,34
 455 59 455 59 516 78 c 0,35,36
 547 88 547 88 572 103 c 0,37,38
 647 150 647 150 662 241 c 1,26,-1
403 795 m 1,39,40
 355 795 355 795 329 764 c 1,41,42
 299 731 299 731 303 684 c 0,43,44
 303 680 303 680 304 676 c 1,45,-1
 306 660 l 1,46,-1
 314 638 l 1,47,48
 346 603 346 603 378 608 c 0,49,50
 381 608 381 608 384 609 c 0,51,52
 390 611 390 611 393 611 c 0,53,54
 435 622 435 622 444 654 c 0,55,56
 449 669 449 669 448 688 c 0,57,58
 447 696 447 696 446 706 c 0,59,60
 444 721 444 721 439 736 c 0,61,62
 429 772 429 772 403 795 c 1,39,40
565 34 m 0,63,64
 504 4 504 4 371 6 c 0,65,66
 367 6 367 6 362 6 c 0,67,68
 155 12 155 12 56 95 c 0,69,70
 -5 146 -5 146 0 214 c 0,71,72
 1 218 1 218 1 222 c 0,73,74
 3 232 3 232 5 238 c 0,75,76
 23 288 23 288 73 288 c 2,77,-1
 673 289 l 1,78,79
 692 373 692 373 678 472 c 0,80,81
 670 523 670 523 654 578 c 0,82,83
 630 663 630 663 559 722 c 1,84,85
 480 790 480 790 456 793 c 1,86,87
 514 753 514 753 508 680 c 0,88,89
 508 676 508 676 507 671 c 0,90,91
 492 560 492 560 368 560 c 0,92,93
 263 560 263 560 245 647 c 0,94,95
 236 689 236 689 244 725 c 0,96,97
 248 743 248 743 256 759 c 0,98,99
 268 784 268 784 291 805 c 0,100,101
 335 846 335 846 395 846 c 2,102,-1
 427 846 l 2,103,104
 514 846 514 846 614 777 c 1,105,106
 704 707 704 707 743 556 c 0,107,108
 755 513 755 513 751 408 c 0,109,110
 749 357 749 357 744 291 c 1,111,-1
 1006 291 l 1,112,-1
 1023 263 l 1,113,-1
 1002 240 l 1,114,-1
 734 240 l 1,115,-1
 716 184 l 1,116,117
 680 88 680 88 565 34 c 0,63,64
1309 188 m 0,118,119
 1367 125 1367 125 1358 43 c 0,120,121
 1357 34 1357 34 1355 25 c 0,122,123
 1347 -11 1347 -11 1323 -55 c 0,124,125
 1257 -171 1257 -171 1086 -219 c 0,126,127
 986 -248 986 -248 895 -235 c 0,128,129
 850 -228 850 -228 808 -212 c 0,130,131
 727 -179 727 -179 703 -127 c 0,132,133
 687 -89 687 -89 694 -62 c 0,134,135
 698 -47 698 -47 708 -35 c 0,136,137
 729 -9 729 -9 783 0 c 1,138,139
 840 -1 840 -1 838 -13 c 1,140,141
 795 -38 795 -38 792 -80 c 0,142,143
 790 -103 790 -103 805 -121 c 0,144,145
 812 -129 812 -129 823 -137 c 0,146,147
 844 -150 844 -150 870 -158 c 0,148,149
 914 -170 914 -170 960 -168 c 0,150,151
 967 -168 967 -168 973 -167 c 0,152,153
 1000 -165 1000 -165 1010 -163 c 0,154,155
 1098 -152 1098 -152 1195 -67 c 0,156,157
 1234 -33 1234 -33 1241 23 c 0,158,159
 1247 65 1247 65 1240 99 c 0,160,161
 1236 118 1236 118 1228 134 c 0,162,163
 1220 151 1220 151 1188 165 c 0,164,165
 1156 178 1156 178 1113 163 c 0,166,167
 1091 156 1091 156 1067 142 c 0,168,169
 1057 137 1057 137 1031 111 c 1,170,-1
 1016 93 l 1,171,-1
 1025 174 l 1,172,173
 1053 209 1053 209 1101 223 c 0,174,175
 1194 250 1194 250 1255 226 c 0,176,177
 1286 213 1286 213 1309 188 c 0,118,119
EndSplineSet
EndChar
StartChar: Taml_I
Encoding: 2951 2951 5
Width: 1115
GlyphClass: 2
Flags: W
Fore
910 229 m 2,0,-1
 910 718 l 1,1,2
 904 863 904 863 822 955 c 0,3,4
 770 1014 770 1014 656 1038 c 0,5,6
 604 1049 604 1049 505 1047 c 0,7,8
 487 1047 l 0,9,10
 430 1044 430 1044 386 1031 c 0,11,12
 293 1004 293 1004 227 882 c 1,13,14
 162 758 162 758 162 614 c 2,15,-1
 162 419 l 2,16,17
 162 285 162 285 216 174 c 0,18,19
 298 9 298 9 401 -53 c 0,20,21
 516 -121 516 -121 614 -120 c 1,22,-1
 658 -118 l 1,23,24
 822 -76 822 -76 791 27 c 0,25,26
 786 40 786 40 779 55 c 0,27,28
 715 188 715 188 462 188 c 2,29,-1
 456 188 l 2,30,31
 308 187 308 187 206 118 c 0,32,33
 97 45 97 45 91 -36 c 0,34,35
 87 -88 87 -88 144 -109 c 0,36,37
 173 -119 173 -119 218 -121 c 0,38,39
 284 -124 284 -124 352 -91 c 0,40,41
 386 -75 386 -75 420 -50 c 0,42,43
 472 -12 472 -12 525 46 c 0,44,45
 639 170 639 170 660 262 c 0,46,47
 676 334 676 334 674 366 c 0,48,49
 673 369 673 369 673 372 c 0,50,51
 671 376 671 376 671 384 c 0,52,53
 662 483 662 483 620 552 c 0,54,55
 570 633 570 633 511 645 c 1,56,57
 577 597 577 597 573 518 c 1,58,-1
 573 513 l 1,59,-1
 572 504 l 2,60,61
 556 376 556 376 406 376 c 0,62,63
 279 376 279 376 257 476 c 0,64,65
 247 524 247 524 257 565 c 0,66,67
 261 586 261 586 271 605 c 0,68,69
 286 634 286 634 312 659 c 1,70,71
 366 707 366 707 438 707 c 2,72,-1
 476 707 l 2,73,74
 611 707 611 707 692 611 c 1,75,76
 768 525 768 525 768 367 c 0,77,78
 768 358 768 358 766 340 c 0,79,80
 748 211 748 211 685 118 c 0,81,82
 586 -31 586 -31 470 -100 c 1,83,84
 320 -194 320 -194 183 -194 c 0,85,86
 0 -194 0 -194 0 -66 c 0,87,88
 0 16 0 16 52 80 c 1,89,90
 97 133 97 133 140 160 c 0,91,92
 280 249 280 249 451 253 c 0,93,94
 553 254 553 254 607 244 c 0,95,96
 641 237 641 237 658 230 c 0,97,98
 802 175 802 175 855 96 c 0,99,100
 893 39 893 39 881 -31 c 0,101,102
 877 -56 877 -56 867 -82 c 0,103,104
 845 -140 845 -140 749 -174 c 0,105,106
 681 -199 681 -199 603 -195 c 0,107,108
 583 -193 l 0,109,110
 464 -179 464 -179 399 -136 c 0,111,112
 254 -41 254 -41 201 45 c 1,113,114
 79 235 79 235 79 370 c 2,115,-1
 79 691 l 2,116,117
 79 815 79 815 188 975 c 0,118,119
 235 1042 235 1042 318 1076 c 0,120,121
 392 1107 392 1107 557 1107 c 0,122,123
 654 1107 654 1107 707 1093 c 0,124,125
 835 1057 835 1057 881 1016 c 1,126,127
 988 917 988 917 988 718 c 2,128,-1
 988 254 l 2,129,130
 988 209 988 209 1020 209 c 0,131,132
 1054 209 1054 209 1061 246 c 0,133,134
 1063 255 1063 255 1064 254 c 0,135,136
 1066 227 1066 227 1061 206 c 0,137,138
 1059 195 1059 195 1054 185 c 0,139,140
 1046 168 1046 168 1035 159 c 1,141,142
 1011 132 1011 132 979 132 c 0,143,144
 943 132 943 132 924 163 c 1,145,146
 910 183 910 183 910 229 c 2,0,-1
449 647 m 1,147,148
 391 647 391 647 358 611 c 1,149,150
 324 577 324 577 328 519 c 1,151,-1
 329 510 l 1,152,153
 329 504 329 504 331 492 c 1,154,-1
 341 466 l 1,155,156
 375 429 375 429 418 433 c 0,157,158
 422 433 422 433 425 434 c 2,159,-1
 435 435 l 1,160,-1
 436 435 l 2,161,162
 486 447 486 447 498 484 c 1,163,164
 503 506 503 506 501 531 c 0,165,166
 501 537 501 537 500 544 c 0,167,168
 496 568 496 568 492 580 c 0,169,170
 478 622 478 622 449 647 c 1,147,148
EndSplineSet
EndChar
StartChar: Taml_II
Encoding: 2952 2952 6
Width: 777
GlyphClass: 2
Flags: W
Fore
712 345 m 1,0,1
 685 318 685 318 652 319 c 0,2,3
 635 321 635 321 623 314 c 1,4,-1
 613 306 l 1,5,6
 601 293 601 293 604 273 c 1,7,-1
 611 255 l 1,8,9
 628 229 628 229 655 231 c 0,10,11
 656 231 656 231 660 232 c 0,12,13
 679 236 679 236 694 256 c 0,14,15
 717 285 717 285 715 327 c 0,16,17
 714 329 714 329 714 334 c 0,18,19
 712 342 712 342 712 345 c 1,0,1
295 343 m 1,20,21
 268 316 268 316 236 317 c 0,22,23
 218 319 218 319 207 312 c 0,24,25
 201 309 201 309 197 304 c 0,26,27
 185 292 185 292 187 271 c 1,28,29
 192 258 192 258 195 253 c 0,30,31
 210 227 210 227 239 229 c 2,32,-1
 243 230 l 1,33,-1
 244 230 l 2,34,35
 261 234 261 234 278 254 c 1,36,37
 300 283 300 283 298 325 c 0,38,39
 297 327 297 327 297 332 c 1,40,-1
 295 343 l 1,20,21
497 513 m 1,41,-1
 497 105 l 2,42,43
 497 67 497 67 530 67 c 1,44,-1
 545 70 l 1,45,-1
 574 105 l 1,46,47
 582 112 582 112 582 105 c 0,48,49
 582 102 582 102 580 94 c 0,50,51
 577 81 577 81 568 62 c 0,52,53
 542 0 542 0 488 0 c 0,54,55
 416 0 416 0 416 91 c 2,56,-1
 416 513 l 2,57,58
 416 557 416 557 444 563 c 1,59,-1
 109 563 l 1,60,61
 84 560 84 560 81 513 c 1,62,-1
 81 105 l 2,63,64
 81 67 81 67 115 67 c 1,65,-1
 129 70 l 1,66,-1
 159 105 l 2,67,68
 166 112 166 112 166 105 c 0,69,70
 166 102 166 102 164 94 c 0,71,72
 162 84 162 84 153 62 c 0,73,74
 127 0 127 0 73 0 c 0,75,76
 0 0 0 0 0 91 c 2,77,-1
 0 513 l 2,78,79
 0 602 0 602 57 614 c 1,80,-1
 726 614 l 2,81,82
 715 614 715 614 711 588 c 0,83,84
 707 565 707 565 688 563 c 1,85,-1
 529 563 l 1,86,87
 496 553 496 553 497 513 c 1,41,-1
EndSplineSet
EndChar
StartChar: TamlU
Encoding: 2953 2953 7
Width: 647
GlyphClass: 2
Flags: W
Fore
193 562 m 1,0,1
 135 562 135 562 104 530 c 1,2,3
 71 500 71 500 74 447 c 0,4,5
 75 444 75 444 75 441 c 0,6,7
 75 434 75 434 78 426 c 2,8,-1
 87 403 l 1,9,10
 120 371 120 371 163 374 c 0,11,12
 167 375 167 375 170 375 c 0,13,14
 177 375 177 375 180 376 c 0,15,16
 230 386 230 386 242 420 c 0,17,18
 249 443 249 443 244 472 c 0,19,20
 242 487 242 487 236 503 c 0,21,22
 223 539 223 539 193 562 c 1,0,1
7 52 m 0,23,24
 19 73 19 73 116 89 c 0,25,26
 158 96 158 96 240 130 c 0,27,28
 307 158 307 158 357 216 c 0,29,30
 410 277 410 277 413 332 c 0,31,32
 415 383 415 383 397 430 c 0,33,34
 388 456 388 456 372 480 c 0,35,36
 326 550 326 550 255 559 c 1,37,38
 320 516 320 516 316 448 c 0,39,40
 316 446 316 446 316 443 c 1,41,-1
 315 436 l 1,42,43
 302 325 302 325 151 325 c 0,44,45
 26 325 26 325 5 413 c 0,46,47
 -11 476 -11 476 19 526 c 0,48,49
 33 551 33 551 59 572 c 0,50,51
 110 613 110 613 183 613 c 2,52,-1
 221 613 l 2,53,54
 351 613 351 613 433 530 c 1,55,56
 524 440 524 440 510 318 c 0,57,58
 509 306 509 306 506 293 c 0,59,60
 494 232 494 232 450 188 c 0,61,62
 411 149 411 149 311 108 c 1,63,64
 239 76 239 76 142 53 c 1,65,-1
 596 53 l 1,66,67
 586 42 586 42 582 23 c 1,68,69
 574 0 574 0 556 0 c 2,70,-1
 66 0 l 2,71,72
 -2 0 -2 0 0 30 c 0,73,74
 0 40 0 40 7 52 c 0,23,24
EndSplineSet
EndChar
StartChar: TamlUU
Encoding: 2954 2954 8
Width: 1476
GlyphClass: 2
Flags: W
Fore
659 353 m 1,0,1
 648 331 648 331 651 308 c 0,2,3
 651 305 651 305 652 301 c 0,4,5
 655 288 655 288 664 273 c 0,6,7
 692 223 692 223 735 218 c 0,8,9
 773 214 773 214 794 228 c 0,10,11
 805 235 805 235 812 247 c 0,12,13
 830 279 830 279 827 316 c 0,14,15
 827 320 827 320 826 325 c 0,16,17
 823 344 823 344 814 362 c 0,18,19
 797 398 797 398 743 396 c 0,20,21
 682 393 682 393 659 353 c 1,0,1
702 517 m 0,22,23
 651 461 651 461 645 396 c 1,24,25
 665 433 665 433 711 453 c 1,26,27
 741 464 741 464 776 464 c 0,28,29
 818 464 818 464 855 438 c 0,30,31
 908 402 908 402 903 321 c 0,32,33
 903 316 903 316 902 310 c 2,34,-1
 899 290 l 1,35,36
 888 232 888 232 834 194 c 0,37,38
 793 165 793 165 734 166 c 0,39,40
 647 169 647 169 606 244 c 0,41,42
 557 337 557 337 579 422 c 0,43,44
 589 465 589 465 618 507 c 0,45,46
 698 620 698 620 831 620 c 1,47,48
 949 617 949 617 992 564 c 1,49,50
 1014 600 1014 600 1046 609 c 0,51,52
 1070 616 1070 616 1097 615 c 0,53,54
 1101 615 l 2,55,-1
 1106 615 l 1,56,-1
 1416 615 l 1,57,58
 1406 606 1406 606 1402 586 c 1,59,60
 1393 562 1393 562 1376 562 c 2,61,-1
 1273 562 l 2,62,63
 1261 562 1261 562 1254 552 c 0,64,65
 1250 544 1250 544 1250 532 c 1,66,-1
 1249 261 l 1,67,68
 1249 238 1249 238 1260 229 c 0,69,70
 1266 225 1266 225 1273 225 c 0,71,72
 1297 225 1297 225 1303 255 c 0,73,74
 1304 261 1304 261 1305 261 c 1,75,76
 1307 239 1307 239 1302 221 c 0,77,78
 1300 213 1300 213 1297 205 c 0,79,80
 1292 192 1292 192 1284 184 c 0,81,82
 1264 163 1264 163 1241 163 c 0,83,84
 1204 163 1204 163 1185 188 c 0,85,86
 1171 208 1171 208 1171 247 c 1,87,-1
 1170 522 l 1,88,89
 1170 540 1170 540 1179 549 c 0,90,91
 1192 562 1192 562 1201 562 c 2,92,-1
 1114 562 l 2,93,94
 1066 562 1066 562 1052 545 c 0,95,96
 1038 526 1038 526 1038 506 c 1,97,-1
 1037 260 l 1,98,99
 1037 237 1037 237 1047 228 c 0,100,101
 1053 224 1053 224 1059 224 c 0,102,103
 1080 224 1080 224 1085 254 c 0,104,105
 1086 262 1086 262 1087 260 c 0,106,107
 1090 227 1090 227 1080 203 c 1,108,-1
 1069 183 l 1,109,110
 1052 163 1052 163 1029 163 c 0,111,112
 992 163 992 163 973 188 c 0,113,114
 959 208 959 208 959 247 c 1,115,-1
 958 477 l 1,116,117
 958 520 958 520 936 539 c 0,118,119
 909 561 909 561 886 563 c 1,120,121
 878 567 878 567 836 567 c 0,122,123
 809 567 809 567 801 563 c 1,124,125
 737 555 737 555 702 517 c 0,22,23
193 565 m 1,126,127
 156 565 156 565 128 551 c 0,128,129
 116 544 116 544 104 534 c 1,130,131
 71 502 71 502 74 450 c 0,132,133
 75 447 75 447 75 444 c 0,134,135
 75 438 75 438 78 429 c 1,136,-1
 87 407 l 1,137,138
 120 374 120 374 163 377 c 0,139,140
 167 378 167 378 170 378 c 0,141,142
 177 378 177 378 180 379 c 0,143,144
 230 389 230 389 242 423 c 0,145,146
 247 441 247 441 245 463 c 0,147,148
 245 469 245 469 244 475 c 0,149,150
 243 481 243 481 236 506 c 1,151,152
 223 542 223 542 193 565 c 1,126,127
7 55 m 0,153,154
 19 76 19 76 116 92 c 0,155,156
 147 97 147 97 240 133 c 1,157,158
 305 160 305 160 357 219 c 0,159,160
 410 280 410 280 413 335 c 0,161,162
 415 386 415 386 397 433 c 0,163,164
 388 459 388 459 372 483 c 0,165,166
 326 553 326 553 255 562 c 1,167,168
 320 521 320 521 316 451 c 0,169,170
 316 449 316 449 316 446 c 1,171,-1
 315 440 l 1,172,-1
 315 439 l 1,173,174
 302 328 302 328 151 328 c 0,175,176
 26 328 26 328 5 416 c 0,177,178
 -11 479 -11 479 19 529 c 0,179,180
 33 554 33 554 59 575 c 0,181,182
 110 616 110 616 183 616 c 2,183,-1
 221 616 l 2,184,185
 351 616 351 616 433 534 c 0,186,187
 519 447 519 447 511 334 c 0,188,189
 511 328 511 328 510 322 c 0,190,191
 508 306 508 306 506 296 c 0,192,193
 494 235 494 235 450 191 c 0,194,195
 411 152 411 152 311 111 c 1,196,197
 239 79 239 79 142 56 c 1,198,-1
 1425 56 l 1,199,200
 1416 45 1416 45 1410 27 c 0,201,202
 1404 3 1404 3 1385 3 c 2,203,-1
 66 3 l 2,204,205
 -2 3 -2 3 0 33 c 0,206,207
 0 43 0 43 7 55 c 0,153,154
EndSplineSet
EndChar
StartChar: TamlE
Encoding: 2958 2958 9
Width: 792
GlyphClass: 2
Flags: W
Fore
304 563 m 2,0,1
 202 563 202 563 135 461 c 0,2,3
 93 395 93 395 81 292 c 1,4,5
 102 338 102 338 152 362 c 1,6,7
 180 377 180 377 223 377 c 0,8,9
 268 377 268 377 308 345 c 0,10,11
 365 298 365 298 359 194 c 0,12,13
 359 188 359 188 358 181 c 1,14,-1
 356 157 l 1,15,16
 346 84 346 84 285 34 c 0,17,18
 239 -3 239 -3 183 -1 c 2,19,-1
 177 -1 l 2,20,21
 80 8 80 8 39 97 c 0,22,23
 -10 206 -10 206 2 305 c 0,24,25
 4 323 4 323 8 341 c 0,26,27
 21 401 21 401 57 457 c 0,28,29
 156 614 156 614 316 614 c 2,30,-1
 741 613 l 1,31,32
 730 602 730 602 726 587 c 0,33,34
 720 563 720 563 701 563 c 2,35,-1
 613 563 l 2,36,37
 603 563 603 563 593 553 c 0,38,39
 587 547 587 547 587 532 c 2,40,-1
 587 129 l 2,41,42
 587 79 587 79 618 79 c 0,43,44
 644 79 644 79 652 120 c 0,45,46
 655 135 655 135 655 129 c 0,47,48
 658 83 658 83 647 52 c 0,49,50
 641 36 641 36 632 24 c 0,51,52
 610 -5 610 -5 582 -5 c 0,53,54
 542 -5 542 -5 517 30 c 1,55,56
 498 53 498 53 498 109 c 2,57,-1
 498 518 l 2,58,59
 498 538 498 538 506 546 c 0,60,61
 520 563 520 563 531 563 c 2,62,-1
 304 563 l 2,0,1
96 238 m 1,63,64
 81 208 81 208 88 173 c 0,65,66
 91 155 91 155 100 135 c 0,67,68
 129 74 129 74 178 65 c 0,69,70
 205 59 205 59 224 65 c 0,71,72
 234 68 234 68 242 75 c 0,73,74
 254 84 254 84 262 101 c 0,75,76
 282 143 282 143 279 190 c 0,77,78
 279 195 279 195 278 200 c 0,79,80
 274 220 274 220 264 249 c 1,81,82
 246 293 246 293 190 292 c 2,83,-1
 186 292 l 2,84,85
 124 286 124 286 96 238 c 1,63,64
EndSplineSet
EndChar
StartChar: TamlEE
Encoding: 2959 2959 10
Width: 792
GlyphClass: 2
Flags: W
Fore
498 18 m 2,0,-1
 498 513 l 1,1,-1
 498 532 l 1,2,-1
 499 534 l 1,3,4
 499 537 499 537 502 540 c 1,5,6
 514 561 514 561 531 563 c 1,7,-1
 304 563 l 2,8,9
 202 563 202 563 135 461 c 0,10,11
 93 395 93 395 81 292 c 1,12,13
 102 338 102 338 152 362 c 1,14,15
 180 377 180 377 223 377 c 0,16,17
 268 377 268 377 308 345 c 0,18,19
 365 298 365 298 359 194 c 0,20,21
 359 188 359 188 358 181 c 1,22,-1
 356 157 l 1,23,24
 346 84 346 84 285 34 c 0,25,26
 239 -3 239 -3 183 -1 c 2,27,-1
 177 -1 l 2,28,29
 80 8 80 8 39 97 c 0,30,31
 -10 206 -10 206 2 305 c 0,32,33
 4 323 4 323 8 341 c 0,34,35
 21 401 21 401 57 457 c 0,36,37
 156 614 156 614 316 614 c 2,38,-1
 741 613 l 1,39,40
 730 602 730 602 726 587 c 0,41,42
 718 563 718 563 701 563 c 2,43,-1
 613 563 l 2,44,45
 603 563 603 563 593 553 c 0,46,47
 587 547 587 547 587 532 c 2,48,-1
 587 57 l 2,49,50
 587 -107 587 -107 426 -141 c 0,51,52
 354 -156 354 -156 340 -148 c 0,53,54
 333 -144 333 -144 341 -134 c 0,55,56
 355 -119 355 -119 399 -90 c 1,57,58
 498 -28 498 -28 498 18 c 2,0,-1
96 238 m 1,59,60
 81 208 81 208 88 173 c 0,61,62
 91 155 91 155 100 135 c 0,63,64
 129 74 129 74 178 65 c 0,65,66
 205 59 205 59 224 65 c 0,67,68
 234 68 234 68 242 75 c 0,69,70
 254 84 254 84 262 101 c 0,71,72
 282 143 282 143 279 190 c 0,73,74
 279 195 279 195 278 200 c 0,75,76
 274 220 274 220 264 249 c 1,77,78
 246 293 246 293 190 292 c 2,79,-1
 186 292 l 2,80,81
 124 286 124 286 96 238 c 1,59,60
EndSplineSet
EndChar
StartChar: TamlAI
Encoding: 2960 2960 11
Width: 909
GlyphClass: 2
Flags: W
Fore
86 350 m 0,0,1
 73 326 73 326 79 300 c 0,2,3
 82 285 82 285 90 270 c 0,4,5
 118 220 118 220 162 215 c 0,6,7
 187 212 187 212 204 217 c 0,8,9
 213 219 213 219 220 224 c 0,10,11
 231 231 231 231 239 244 c 0,12,13
 257 278 257 278 254 314 c 0,14,15
 254 318 254 318 253 322 c 0,16,17
 250 339 250 339 241 359 c 0,18,19
 224 394 224 394 174 393 c 0,20,21
 170 393 l 0,22,23
 107 388 107 388 86 350 c 0,0,1
649 614 m 0,24,25
 766 614 766 614 815 539 c 0,26,27
 859 471 859 471 858 371 c 0,28,29
 856 185 856 185 765 104 c 0,30,31
 637 -10 637 -10 386 7 c 0,32,33
 362 9 362 9 336 12 c 0,34,35
 285 18 285 18 247 16 c 0,36,37
 238 16 238 16 229 15 c 0,38,39
 206 13 206 13 193 8 c 1,40,41
 108 -17 108 -17 94 -87 c 0,42,43
 79 -169 79 -169 112 -229 c 0,44,45
 129 -260 129 -260 158 -285 c 0,46,47
 206 -326 206 -326 265 -318 c 0,48,49
 273 -317 273 -317 281 -315 c 0,50,51
 394 -289 394 -289 415 -175 c 0,52,53
 432 -86 432 -86 455 -86 c 0,54,55
 474 -85 474 -85 489 -125 c 0,56,57
 497 -146 497 -146 504 -178 c 0,58,59
 537 -329 537 -329 625 -329 c 0,60,61
 746 -329 746 -329 762 -232 c 0,62,63
 769 -194 769 -194 763 -160 c 0,64,65
 760 -142 760 -142 753 -126 c 0,66,67
 740 -97 740 -97 727 -80 c 0,68,69
 707 -54 707 -54 713 -46 c 0,70,71
 714 -44 714 -44 717 -43 c 0,72,73
 723 -41 723 -41 737 -48 c 0,74,75
 744 -52 744 -52 754 -59 c 0,76,77
 812 -100 812 -100 831 -162 c 1,78,79
 854 -224 854 -224 831 -279 c 0,80,81
 790 -381 790 -381 627 -381 c 0,82,83
 518 -381 518 -381 453 -252 c 1,84,85
 384 -352 384 -352 280 -375 c 0,86,87
 190 -395 190 -395 125 -359 c 0,88,89
 92 -342 92 -342 65 -310 c 0,90,91
 0 -234 0 -234 0 -139 c 0,92,93
 0 81 0 81 217 74 c 0,94,95
 227 74 l 0,96,97
 453 61 453 61 554 73 c 0,98,99
 603 79 603 79 621 91 c 0,100,101
 729 159 729 159 750 244 c 0,102,103
 767 315 767 315 762 376 c 0,104,105
 759 402 759 402 753 426 c 0,106,107
 741 468 741 468 719 501 c 0,108,109
 675 570 675 570 598 561 c 0,110,111
 584 559 l 0,112,113
 568 556 568 556 551 550 c 0,114,115
 495 531 495 531 495 474 c 2,116,-1
 495 257 l 2,117,118
 495 221 495 221 516 221 c 128,-1,119
 537 221 537 221 543 251 c 0,120,121
 544 258 544 258 545 257 c 0,122,123
 547 224 547 224 539 202 c 0,124,125
 534 189 534 189 526 180 c 0,126,127
 509 160 509 160 486 160 c 0,128,129
 451 160 451 160 430 186 c 0,130,131
 417 203 417 203 417 244 c 2,132,-1
 417 454 l 2,133,134
 417 496 417 496 393 515 c 0,135,136
 340 558 340 558 312 560 c 1,137,138
 307 564 307 564 262 564 c 0,139,140
 235 564 235 564 227 560 c 1,141,142
 164 552 164 552 129 514 c 0,143,144
 78 458 78 458 72 393 c 1,145,146
 91 430 91 430 137 450 c 0,147,148
 163 461 163 461 203 461 c 0,149,150
 245 461 245 461 282 435 c 0,151,152
 335 398 335 398 330 317 c 0,153,154
 329 312 329 312 329 307 c 1,155,-1
 326 287 l 1,156,157
 316 229 316 229 260 190 c 0,158,159
 220 162 220 162 161 163 c 0,160,161
 69 166 69 166 33 241 c 0,162,163
 -11 334 -11 334 9 420 c 0,164,165
 19 463 19 463 45 504 c 0,166,167
 118 617 118 617 258 616 c 0,168,169
 381 614 381 614 459 520 c 1,170,171
 499 614 499 614 649 614 c 0,24,25
EndSplineSet
EndChar
StartChar: TamlO
Encoding: 2962 2962 12
Width: 990
GlyphClass: 2
Flags: W
Fore
100 226 m 0,0,1
 85 197 85 197 92 165 c 0,2,3
 95 148 95 148 105 130 c 0,4,5
 140 68 140 68 191 65 c 1,6,7
 260 56 260 56 284 98 c 0,8,9
 305 138 305 138 301 182 c 0,10,11
 301 187 301 187 300 193 c 0,12,13
 297 217 297 217 287 238 c 0,14,15
 266 280 266 280 206 279 c 2,16,-1
 202 279 l 2,17,18
 125 273 125 273 100 226 c 0,0,1
253 -265 m 0,19,20
 292 -298 292 -298 355 -303 c 1,21,-1
 420 -302 l 2,22,23
 423 -302 423 -302 425 -302 c 0,24,25
 435 -301 435 -301 453 -297 c 0,26,27
 496 -285 496 -285 516 -262 c 0,28,29
 539 -236 539 -236 538 -200 c 1,30,-1
 542 -140 l 1,31,32
 545 -104 545 -104 579 -95 c 1,33,34
 545 -92 545 -92 507 -66 c 0,35,36
 456 -29 456 -29 439 18 c 0,37,38
 420 72 420 72 427 126 c 0,39,40
 431 151 431 151 440 177 c 0,41,42
 471 261 471 261 540 292 c 0,43,44
 602 319 602 319 669 310 c 0,45,46
 695 307 695 307 722 298 c 0,47,48
 745 291 745 291 745 282 c 0,49,50
 745 261 745 261 720 260 c 1,51,52
 708 258 708 258 691 240 c 1,53,54
 676 222 676 222 670 194 c 1,55,56
 661 163 661 163 664 141 c 1,57,-1
 667 126 l 1,58,59
 685 66 685 66 734 63 c 0,60,61
 777 62 777 62 805 85 c 0,62,63
 818 96 818 96 828 113 c 0,64,65
 864 168 864 168 858 245 c 0,66,67
 858 255 858 255 857 260 c 0,68,69
 848 335 848 335 774 421 c 0,70,71
 697 510 697 510 560 541 c 0,72,73
 473 561 473 561 389 554 c 0,74,75
 358 552 358 552 327 546 c 0,76,77
 236 528 236 528 155 440 c 1,78,79
 101 384 101 384 83 279 c 1,80,81
 106 323 106 323 162 346 c 0,82,83
 192 359 192 359 241 359 c 0,84,85
 292 359 292 359 336 329 c 1,86,87
 399 283 399 283 393 187 c 0,88,89
 393 181 393 181 392 175 c 0,90,91
 392 167 392 167 388 151 c 1,92,93
 376 81 376 81 309 35 c 0,94,95
 254 -4 254 -4 197 0 c 0,96,97
 194 1 194 1 190 1 c 0,98,99
 76 15 76 15 36 95 c 0,100,101
 -17 202 -17 202 7 307 c 0,102,103
 19 360 19 360 51 412 c 0,104,105
 148 572 148 572 364 614 c 0,106,107
 405 623 405 623 459 621 c 0,108,109
 476 620 476 620 494 618 c 0,110,111
 531 615 531 615 573 606 c 0,112,113
 727 572 727 572 808 505 c 0,114,115
 911 420 911 420 932 310 c 0,116,117
 944 244 944 244 937 192 c 0,118,119
 934 164 934 164 925 140 c 0,120,121
 912 106 912 106 887 76 c 0,122,123
 827 6 827 6 746 1 c 0,124,125
 712 0 712 0 684 14 c 0,126,127
 668 21 668 21 654 33 c 0,128,129
 633 51 633 51 617 78 c 0,130,131
 593 118 593 118 597 168 c 0,132,133
 597 174 597 174 598 180 c 0,134,135
 601 202 601 202 607 220 c 1,136,137
 506 184 506 184 500 102 c 0,138,139
 494 29 494 29 537 -14 c 0,140,141
 559 -36 559 -36 595 -50 c 0,142,143
 658 -76 658 -76 749 -73 c 0,144,145
 756 -72 756 -72 764 -72 c 2,146,-1
 799 -72 l 2,147,148
 804 -73 804 -73 808 -74 c 0,149,150
 814 -76 814 -76 814 -80 c 0,151,152
 815 -92 815 -92 783 -98 c 1,153,-1
 738 -102 l 1,154,155
 610 -108 610 -108 610 -193 c 1,156,157
 612 -253 612 -253 592 -292 c 0,158,159
 582 -310 582 -310 567 -324 c 0,160,161
 543 -345 543 -345 508 -352 c 0,162,163
 427 -370 427 -370 364 -368 c 0,164,165
 359 -367 359 -367 353 -367 c 0,166,167
 331 -365 331 -365 321 -362 c 1,168,169
 234 -346 234 -346 194 -292 c 0,170,171
 155 -240 155 -240 162 -171 c 0,172,173
 163 -162 163 -162 165 -152 c 0,174,175
 190 -14 190 -14 204 -158 c 0,176,177
 210 -228 210 -228 253 -265 c 0,19,20
EndSplineSet
EndChar
StartChar: TamlOO
Encoding: 2963 2963 13
Width: 990
GlyphClass: 2
Flags: W
Fore
339 -186 m 0,0,1
 342 -161 342 -161 333 -145 c 0,2,3
 328 -136 328 -136 319 -130 c 2,4,-1
 300 -119 l 1,5,-1
 286 -115 l 2,6,7
 259 -109 259 -109 244 -127 c 1,8,9
 236 -134 236 -134 230 -154 c 0,10,11
 222 -183 222 -183 228 -202 c 0,12,13
 232 -211 232 -211 239 -218 c 0,14,15
 249 -228 249 -228 269 -231 c 0,16,17
 297 -236 297 -236 314 -227 c 0,18,19
 322 -223 322 -223 328 -216 c 0,20,21
 336 -205 336 -205 339 -186 c 0,0,1
100 226 m 0,22,23
 85 197 85 197 92 165 c 0,24,25
 95 148 95 148 105 130 c 0,26,27
 140 68 140 68 191 65 c 1,28,29
 260 56 260 56 284 98 c 0,30,31
 305 138 305 138 301 182 c 0,32,33
 301 187 301 187 300 193 c 0,34,35
 297 217 297 217 287 238 c 0,36,37
 266 280 266 280 206 279 c 2,38,-1
 202 279 l 2,39,40
 125 273 125 273 100 226 c 0,22,23
355 -303 m 0,41,42
 374 -307 374 -307 396 -306 c 0,43,44
 406 -305 406 -305 417 -304 c 0,45,46
 444 -299 444 -299 453 -297 c 0,47,48
 496 -285 496 -285 516 -262 c 0,49,50
 539 -236 539 -236 538 -200 c 1,51,-1
 542 -140 l 1,52,53
 545 -104 545 -104 579 -95 c 1,54,55
 545 -92 545 -92 507 -66 c 0,56,57
 456 -29 456 -29 439 18 c 0,58,59
 420 72 420 72 427 126 c 0,60,61
 431 151 431 151 440 177 c 0,62,63
 471 261 471 261 540 292 c 0,64,65
 602 319 602 319 669 310 c 0,66,67
 695 307 695 307 722 298 c 0,68,69
 745 291 745 291 745 282 c 0,70,71
 745 261 745 261 720 260 c 1,72,73
 708 258 708 258 691 240 c 1,74,75
 676 222 676 222 670 194 c 1,76,77
 661 163 661 163 664 141 c 1,78,-1
 667 126 l 1,79,80
 685 66 685 66 734 63 c 1,81,82
 774 63 774 63 803 84 c 0,83,84
 818 96 818 96 828 113 c 0,85,86
 864 168 864 168 858 245 c 0,87,88
 858 255 858 255 857 260 c 0,89,90
 848 335 848 335 774 421 c 0,91,92
 699 507 699 507 560 541 c 0,93,94
 476 561 476 561 390 554 c 0,95,96
 359 552 359 552 327 546 c 0,97,98
 236 528 236 528 155 440 c 1,99,100
 101 384 101 384 83 279 c 1,101,102
 106 323 106 323 162 346 c 0,103,104
 192 359 192 359 241 359 c 0,105,106
 292 359 292 359 336 329 c 1,107,108
 399 283 399 283 393 187 c 0,109,110
 393 181 393 181 392 175 c 0,111,112
 392 167 392 167 388 151 c 1,113,114
 376 81 376 81 309 35 c 0,115,116
 254 -4 254 -4 197 0 c 0,117,118
 194 1 194 1 190 1 c 0,119,120
 76 15 76 15 36 95 c 0,121,122
 -17 202 -17 202 7 307 c 0,123,124
 19 360 19 360 51 412 c 0,125,126
 148 572 148 572 364 614 c 0,127,128
 405 623 405 623 459 621 c 0,129,130
 476 620 476 620 494 618 c 0,131,132
 531 615 531 615 573 606 c 0,133,134
 727 572 727 572 808 505 c 0,135,136
 911 420 911 420 932 310 c 0,137,138
 944 244 944 244 937 192 c 0,139,140
 934 164 934 164 925 140 c 0,141,142
 912 106 912 106 887 76 c 0,143,144
 827 6 827 6 746 1 c 0,145,146
 712 0 712 0 684 14 c 0,147,148
 668 21 668 21 654 33 c 0,149,150
 633 51 633 51 617 78 c 0,151,152
 593 118 593 118 597 168 c 0,153,154
 597 174 597 174 598 180 c 0,155,156
 601 202 601 202 607 220 c 1,157,158
 506 184 506 184 500 102 c 0,159,160
 494 29 494 29 537 -14 c 0,161,162
 559 -36 559 -36 595 -50 c 0,163,164
 658 -76 658 -76 749 -73 c 0,165,166
 756 -72 756 -72 764 -72 c 2,167,-1
 799 -72 l 2,168,169
 804 -73 804 -73 808 -74 c 0,170,171
 814 -76 814 -76 814 -80 c 0,172,173
 815 -92 815 -92 783 -98 c 1,174,-1
 738 -102 l 1,175,176
 610 -108 610 -108 610 -193 c 1,177,178
 612 -253 612 -253 592 -292 c 0,179,180
 582 -310 582 -310 567 -324 c 0,181,182
 543 -345 543 -345 508 -352 c 0,183,184
 424 -371 424 -371 365 -368 c 0,185,186
 358 -368 358 -368 352 -367 c 0,187,188
 331 -365 331 -365 321 -362 c 0,189,190
 228 -341 228 -341 181 -279 c 0,191,192
 150 -236 150 -236 158 -181 c 0,193,194
 160 -167 160 -167 165 -152 c 0,195,196
 181 -96 181 -96 243 -76 c 0,197,198
 304 -56 304 -56 345 -76 c 0,199,200
 405 -106 405 -106 399 -166 c 0,201,202
 399 -170 399 -170 398 -174 c 0,203,204
 398 -182 398 -182 395 -190 c 0,205,206
 376 -266 376 -266 288 -266 c 1,207,208
 284 -281 284 -281 313 -292 c 0,209,210
 329 -298 329 -298 355 -303 c 0,41,42
EndSplineSet
EndChar
StartChar: TamlAU
Encoding: 2964 2964 14
Width: 2068
GlyphClass: 2
Flags: W
Fore
100 218 m 0,0,1
 87 192 87 192 90 167 c 0,2,3
 92 157 l 0,4,5
 95 141 95 141 105 122 c 0,6,7
 139 61 139 61 191 55 c 0,8,9
 237 51 237 51 262 67 c 0,10,11
 276 76 276 76 284 90 c 0,12,13
 305 129 305 129 301 173 c 0,14,15
 301 178 301 178 300 184 c 0,16,17
 297 208 297 208 287 229 c 0,18,19
 266 272 266 272 206 270 c 2,20,-1
 202 270 l 2,21,22
 125 265 125 265 100 218 c 0,0,1
253 -273 m 0,23,24
 292 -308 292 -308 355 -311 c 1,25,-1
 410 -311 l 2,26,27
 417 -311 417 -311 425 -310 c 0,28,29
 435 -309 435 -309 453 -305 c 0,30,31
 494 -295 494 -295 516 -270 c 0,32,33
 538 -247 538 -247 538 -208 c 1,34,-1
 541 -148 l 1,35,36
 545 -114 545 -114 579 -103 c 1,37,38
 545 -100 545 -100 507 -74 c 0,39,40
 456 -37 456 -37 439 10 c 0,41,42
 420 63 420 63 427 117 c 0,43,44
 431 143 431 143 440 169 c 0,45,46
 471 253 471 253 540 284 c 1,47,48
 599 308 599 308 657 303 c 0,49,50
 663 303 663 303 670 302 c 0,51,52
 694 298 694 298 722 290 c 1,53,54
 745 281 745 281 745 273 c 0,55,56
 745 254 745 254 720 251 c 0,57,58
 706 249 706 249 691 231 c 0,59,60
 676 213 676 213 670 184 c 1,61,62
 662 158 662 158 663 137 c 0,63,64
 664 134 664 134 664 131 c 0,65,66
 664 124 664 124 667 117 c 0,67,68
 685 58 685 58 734 55 c 1,69,70
 777 55 777 55 804 76 c 0,71,72
 819 88 819 88 828 104 c 1,73,74
 862 156 862 156 859 228 c 0,75,76
 858 232 858 232 858 237 c 0,77,78
 858 246 858 246 857 252 c 0,79,80
 848 325 848 325 774 413 c 1,81,82
 697 502 697 502 560 532 c 0,83,84
 483 550 483 550 408 547 c 0,85,86
 400 547 400 547 392 546 c 0,87,88
 361 543 361 543 327 537 c 0,89,90
 235 519 235 519 155 432 c 0,91,92
 101 374 101 374 83 270 c 1,93,94
 107 315 107 315 162 338 c 0,95,96
 192 351 192 351 241 351 c 0,97,98
 292 351 292 351 336 321 c 1,99,100
 399 274 399 274 393 179 c 0,101,102
 393 173 393 173 392 168 c 0,103,104
 392 161 392 161 388 141 c 0,105,106
 376 72 376 72 309 26 c 1,107,108
 259 -11 259 -11 204 -8 c 0,109,110
 202 -8 202 -8 199 -8 c 0,111,112
 193 -8 193 -8 190 -7 c 0,113,114
 76 7 76 7 36 86 c 0,115,116
 -17 194 -17 194 7 298 c 0,117,118
 19 350 19 350 51 402 c 0,119,120
 147 564 147 564 364 606 c 0,121,122
 405 615 405 615 457 612 c 0,123,124
 475 611 475 611 494 609 c 0,125,126
 531 606 531 606 573 597 c 0,127,128
 724 566 724 566 808 497 c 0,129,130
 911 412 911 412 932 302 c 0,131,132
 959 152 959 152 887 68 c 0,133,134
 828 -2 828 -2 746 -7 c 0,135,136
 712 -9 712 -9 684 5 c 0,137,138
 668 13 668 13 654 25 c 0,139,140
 633 43 633 43 617 69 c 0,141,142
 593 109 593 109 597 160 c 0,143,144
 597 166 597 166 598 172 c 0,145,146
 601 190 601 190 607 212 c 1,147,148
 506 176 506 176 500 93 c 0,149,150
 496 44 496 44 513 9 c 0,151,152
 523 -9 523 -9 538 -24 c 0,153,154
 561 -46 561 -46 595 -59 c 0,155,156
 654 -83 654 -83 741 -81 c 0,157,158
 749 -81 l 0,159,160
 758 -81 758 -81 764 -80 c 1,161,-1
 803 -81 l 2,162,163
 806 -81 806 -81 808 -82 c 0,164,165
 814 -85 814 -85 814 -89 c 0,166,167
 815 -96 815 -96 803 -101 c 0,168,169
 795 -104 795 -104 781 -106 c 0,170,171
 769 -109 769 -109 738 -111 c 0,172,173
 610 -117 610 -117 610 -201 c 1,174,175
 612 -261 612 -261 592 -300 c 0,176,177
 582 -318 582 -318 567 -332 c 0,178,179
 543 -354 543 -354 508 -360 c 1,180,181
 427 -378 427 -378 364 -376 c 0,182,183
 359 -375 359 -375 353 -375 c 0,184,185
 331 -373 331 -373 321 -371 c 0,186,187
 233 -355 233 -355 194 -300 c 1,188,189
 155 -248 155 -248 162 -179 c 0,190,191
 163 -170 163 -170 165 -160 c 0,192,193
 177 -92 177 -92 187 -93 c 0,194,195
 190 -93 190 -93 194 -101 c 0,196,197
 199 -115 199 -115 204 -166 c 0,198,199
 210 -236 210 -236 253 -273 c 0,23,24
1852 125 m 1,200,201
 1852 71 1852 71 1888 71 c 1,202,-1
 1903 73 l 1,203,-1
 1932 110 l 1,204,205
 1940 117 1940 117 1937 102 c 1,206,-1
 1926 66 l 1,207,208
 1905 4 1905 4 1846 4 c 0,209,210
 1774 4 1774 4 1774 94 c 2,211,-1
 1774 517 l 1,212,-1
 1775 537 l 1,213,214
 1775 541 1775 541 1778 544 c 0,215,216
 1792 565 1792 565 1807 567 c 1,217,-1
 1652 567 l 2,218,219
 1554 567 1554 567 1554 445 c 2,220,-1
 1554 110 l 2,221,222
 1554 71 1554 71 1588 71 c 1,223,-1
 1603 73 l 1,224,-1
 1632 110 l 1,225,226
 1640 117 1640 117 1637 102 c 1,227,-1
 1626 66 l 1,228,229
 1605 4 1605 4 1546 4 c 0,230,231
 1476 4 1476 4 1476 95 c 2,232,-1
 1476 450 l 2,233,234
 1476 525 1476 525 1424 552 c 0,235,236
 1398 566 1398 566 1358 566 c 0,237,238
 1309 567 1309 567 1264 548 c 0,239,240
 1242 539 1242 539 1218 523 c 0,241,242
 1184 500 1184 500 1152 466 c 0,243,244
 1094 404 1094 404 1085 301 c 1,245,246
 1095 332 1095 332 1168 368 c 0,247,248
 1199 382 1199 382 1239 382 c 0,249,250
 1286 382 1286 382 1325 349 c 0,251,252
 1382 302 1382 302 1376 200 c 0,253,254
 1376 193 1376 193 1375 186 c 0,255,256
 1375 174 1375 174 1372 161 c 0,257,258
 1361 86 1361 86 1302 38 c 0,259,260
 1244 -9 1244 -9 1209 0 c 2,261,-1
 1199 3 l 2,262,263
 1198 4 1198 4 1194 4 c 0,264,265
 1087 13 1087 13 1039 129 c 0,266,267
 1001 223 1001 223 1012 309 c 0,268,269
 1015 333 1015 333 1022 356 c 0,270,271
 1036 408 1036 408 1074 462 c 0,272,273
 1186 618 1186 618 1361 618 c 0,274,275
 1441 618 1441 618 1483 585 c 1,276,277
 1494 575 1494 575 1501 566 c 0,278,279
 1509 557 1509 557 1517 542 c 1,280,281
 1538 586 1538 586 1561 600 c 0,282,283
 1590 618 1590 618 1637 618 c 2,284,-1
 2017 617 l 1,285,286
 2007 608 2007 608 2002 591 c 0,287,288
 1994 567 1994 567 1977 567 c 2,289,-1
 1889 567 l 2,290,291
 1879 567 1879 567 1869 557 c 0,292,293
 1853 541 1853 541 1853 537 c 1,294,-1
 1852 125 l 1,200,201
1113 242 m 0,295,296
 1099 218 1099 218 1102 189 c 0,297,298
 1103 183 1103 183 1104 178 c 0,299,300
 1109 157 1109 157 1117 140 c 0,301,302
 1146 79 1146 79 1195 70 c 0,303,304
 1221 64 1221 64 1241 71 c 0,305,306
 1250 74 1250 74 1258 80 c 0,307,308
 1271 88 1271 88 1279 105 c 0,309,310
 1298 150 1298 150 1294 194 c 0,311,312
 1294 199 1294 199 1293 205 c 0,313,314
 1290 229 1290 229 1281 253 c 0,315,316
 1263 297 1263 297 1207 296 c 2,317,-1
 1203 296 l 2,318,319
 1142 292 1142 292 1113 242 c 0,295,296
EndSplineSet
EndChar
StartChar: TamlKA
Encoding: 2965 2965 15
Width: 890
GlyphClass: 2
Flags: W
Fore
435 309 m 1,0,-1
 160 309 l 2,1,2
 110 309 110 309 98 281 c 0,3,4
 86 256 86 256 86 196 c 0,5,6
 86 122 86 122 161 82 c 0,7,8
 210 56 210 56 271 56 c 0,9,10
 353 56 353 56 414 108 c 0,11,12
 435 126 435 126 435 196 c 2,13,-1
 435 309 l 1,0,-1
434 360 m 1,14,-1
 434 513 l 2,15,16
 434 557 434 557 463 563 c 1,17,-1
 251 563 l 1,18,19
 229 558 229 558 223 513 c 1,20,-1
 223 360 l 1,21,-1
 434 360 l 1,14,-1
142 360 m 1,22,-1
 142 513 l 2,23,24
 142 602 142 602 200 614 c 1,25,-1
 744 614 l 2,26,27
 735 614 735 614 729 588 c 0,28,29
 725 564 725 564 707 563 c 2,30,-1
 548 563 l 1,31,32
 514 553 514 553 515 513 c 1,33,-1
 515 360 l 1,34,-1
 653 360 l 2,35,36
 768 360 768 360 810 302 c 0,37,38
 840 262 840 262 840 193 c 0,39,40
 838 67 838 67 741 25 c 1,41,42
 686 -1 686 -1 584 3 c 2,43,-1
 563 4 l 2,44,45
 518 7 518 7 531 18 c 0,46,47
 537 24 537 24 558 31 c 1,48,-1
 627 41 l 1,49,50
 692 47 692 47 721 72 c 1,51,52
 766 108 766 108 767 163 c 0,53,54
 767 228 767 228 745 259 c 1,55,56
 713 309 713 309 614 309 c 2,57,-1
 516 309 l 1,58,-1
 516 176 l 2,59,60
 516 89 516 89 461 49 c 0,61,62
 393 0 393 0 270 0 c 0,63,64
 137 0 137 0 70 55 c 1,65,66
 0 110 0 110 0 213 c 0,67,68
 0 360 0 360 127 360 c 2,69,-1
 142 360 l 1,22,-1
EndSplineSet
EndChar
StartChar: TamlNGA
Encoding: 2969 2969 16
Width: 906
GlyphClass: 2
Flags: W
Fore
262 212 m 2,0,-1
 262 513 l 2,1,2
 262 557 262 557 291 563 c 1,3,-1
 109 563 l 1,4,5
 84 557 84 557 81 513 c 1,6,-1
 81 105 l 2,7,8
 81 67 81 67 115 67 c 1,9,-1
 129 70 l 1,10,-1
 159 105 l 1,11,12
 166 111 166 111 165 104 c 1,13,-1
 163 93 l 1,14,-1
 153 62 l 1,15,16
 130 0 130 0 73 0 c 0,17,18
 0 0 0 0 0 91 c 2,19,-1
 0 513 l 2,20,21
 0 602 0 602 57 614 c 1,22,-1
 572 614 l 2,23,24
 561 614 561 614 557 588 c 0,25,26
 553 564 553 564 535 563 c 2,27,-1
 376 563 l 1,28,29
 342 553 342 553 343 513 c 1,30,-1
 343 336 l 1,31,32
 381 418 381 418 423 437 c 0,33,34
 486 467 486 467 538 441 c 0,35,36
 564 429 564 429 588 402 c 0,37,38
 642 341 642 341 633 251 c 0,39,40
 631 233 l 0,41,42
 610 107 610 107 512 51 c 1,43,-1
 737 51 l 2,44,45
 758 51 758 51 769 68 c 0,46,47
 774 76 774 76 774 108 c 2,48,-1
 774 550 l 2,49,50
 774 578 774 578 807 590 c 0,51,52
 839 600 839 600 847 606 c 1,53,54
 854 616 854 616 855 617 c 1,55,-1
 855 109 l 2,56,57
 855 56 855 56 843 33 c 0,58,59
 825 0 825 0 750 0 c 2,60,-1
 267 0 l 2,61,62
 228 0 228 0 231 28 c 0,63,64
 231 31 231 31 232 34 c 0,65,66
 238 52 238 52 281 52 c 0,67,68
 431 52 431 52 451 59 c 1,69,70
 530 92 530 92 554 165 c 0,71,72
 576 231 576 231 562 284 c 0,73,74
 556 311 556 311 540 334 c 0,75,76
 511 376 511 376 461 372 c 0,77,78
 457 372 457 372 453 371 c 0,79,80
 443 369 443 369 437 368 c 0,81,82
 343 343 343 343 343 265 c 2,83,-1
 343 216 l 2,84,85
 343 177 343 177 305 175 c 0,86,87
 277 174 277 174 267 190 c 0,88,89
 262 198 262 198 262 212 c 2,0,-1
EndSplineSet
EndChar
StartChar: TamlCA
Encoding: 2970 2970 17
Width: 798
GlyphClass: 2
Flags: W
Fore
435 309 m 1,0,-1
 160 309 l 2,1,2
 110 309 110 309 98 281 c 0,3,4
 86 256 86 256 86 196 c 0,5,6
 86 122 86 122 161 82 c 0,7,8
 210 56 210 56 271 56 c 0,9,10
 353 56 353 56 414 108 c 0,11,12
 435 126 435 126 435 196 c 2,13,-1
 435 309 l 1,0,-1
434 360 m 1,14,-1
 434 513 l 2,15,16
 434 557 434 557 463 563 c 1,17,-1
 251 563 l 1,18,19
 229 558 229 558 223 513 c 1,20,-1
 223 360 l 1,21,-1
 434 360 l 1,14,-1
705 309 m 2,22,-1
 516 309 l 1,23,-1
 516 176 l 2,24,25
 516 89 516 89 461 49 c 0,26,27
 393 0 393 0 270 0 c 0,28,29
 137 0 137 0 70 55 c 1,30,31
 0 110 0 110 0 213 c 0,32,33
 0 360 0 360 127 360 c 2,34,-1
 142 360 l 1,35,-1
 142 513 l 2,36,37
 142 602 142 602 200 614 c 1,38,-1
 744 614 l 2,39,40
 735 614 735 614 729 588 c 0,41,42
 725 564 725 564 707 563 c 2,43,-1
 548 563 l 1,44,45
 514 553 514 553 515 513 c 1,46,-1
 515 360 l 1,47,-1
 748 360 l 1,48,49
 738 354 738 354 735 334 c 0,50,51
 731 309 731 309 705 309 c 2,22,-1
EndSplineSet
EndChar
StartChar: TamlJA
Encoding: 2972 2972 18
Width: 909
GlyphClass: 2
Flags: W
Fore
280 -375 m 0,0,1
 180 -384 180 -384 119 -353 c 0,2,3
 87 -337 87 -337 65 -310 c 0,4,5
 0 -231 0 -231 0 -139 c 0,6,7
 0 81 0 81 217 74 c 0,8,9
 227 74 l 0,10,11
 451 61 451 61 552 73 c 0,12,13
 602 79 602 79 621 91 c 0,14,15
 729 162 729 162 750 244 c 0,16,17
 767 315 767 315 762 376 c 0,18,19
 759 402 759 402 753 426 c 0,20,21
 741 468 741 468 719 501 c 0,22,23
 670 576 670 576 583 559 c 1,24,-1
 551 550 l 1,25,26
 495 531 495 531 495 474 c 2,27,-1
 495 257 l 2,28,29
 495 221 495 221 516 221 c 128,-1,30
 537 221 537 221 543 251 c 0,31,32
 544 258 544 258 545 257 c 0,33,34
 545 202 545 202 526 180 c 0,35,36
 509 160 509 160 486 160 c 0,37,38
 451 160 451 160 430 186 c 0,39,40
 417 203 417 203 417 244 c 2,41,-1
 417 454 l 2,42,43
 417 496 417 496 393 515 c 0,44,45
 340 558 340 558 312 560 c 1,46,47
 307 564 307 564 262 564 c 0,48,49
 235 564 235 564 227 560 c 1,50,51
 164 552 164 552 129 514 c 0,52,53
 78 458 78 458 72 393 c 1,54,55
 91 430 91 430 137 450 c 0,56,57
 163 461 163 461 203 461 c 0,58,59
 249 459 249 459 282 435 c 0,60,61
 335 398 335 398 330 317 c 0,62,63
 329 312 329 312 329 307 c 1,64,-1
 326 287 l 1,65,66
 316 229 316 229 260 190 c 0,67,68
 220 162 220 162 161 163 c 0,69,70
 69 166 69 166 33 241 c 0,71,72
 -12 333 -12 333 8 419 c 0,73,74
 18 462 18 462 45 504 c 0,75,76
 116 617 116 617 258 616 c 0,77,78
 381 614 381 614 459 520 c 1,79,80
 499 614 499 614 649 614 c 0,81,82
 766 614 766 614 815 539 c 0,83,84
 859 471 859 471 858 371 c 0,85,86
 856 185 856 185 765 104 c 0,87,88
 637 -10 637 -10 386 7 c 0,89,90
 362 9 362 9 336 12 c 0,91,92
 285 18 285 18 247 16 c 0,93,94
 238 16 238 16 229 15 c 0,95,96
 206 13 206 13 193 8 c 0,97,98
 108 -19 108 -19 94 -87 c 0,99,100
 79 -169 79 -169 112 -229 c 0,101,102
 129 -260 129 -260 158 -285 c 0,103,104
 206 -326 206 -326 265 -318 c 0,105,106
 273 -317 273 -317 281 -315 c 0,107,108
 350 -300 350 -300 415 -175 c 0,109,110
 475 -58 475 -58 627 -49 c 0,111,112
 722 -44 722 -44 775 -78 c 0,113,114
 801 -94 801 -94 817 -120 c 0,115,116
 851 -174 851 -174 846 -232 c 0,117,118
 844 -244 l 0,119,120
 839 -267 839 -267 831 -285 c 0,121,122
 792 -376 792 -376 652 -372 c 0,123,124
 648 -372 648 -372 643 -372 c 2,125,-1
 628 -371 l 1,126,-1
 627 -371 l 2,127,128
 542 -362 542 -362 495 -295 c 0,129,130
 476 -268 476 -268 478 -258 c 0,131,132
 480 -254 480 -254 486 -255 c 0,133,134
 490 -255 490 -255 495 -257 c 0,135,136
 505 -263 505 -263 515 -268 c 1,137,138
 597 -322 597 -322 658 -315 c 0,139,140
 662 -315 662 -315 667 -314 c 0,141,142
 675 -313 675 -313 684 -309 c 0,143,144
 756 -284 756 -284 756 -238 c 0,145,146
 756 -166 756 -166 712 -132 c 0,147,148
 691 -115 691 -115 655 -106 c 0,149,150
 602 -94 602 -94 563 -106 c 0,151,152
 540 -113 540 -113 521 -127 c 0,153,154
 493 -147 493 -147 473 -182 c 2,155,-1
 416 -283 l 1,156,157
 363 -366 363 -366 280 -375 c 0,0,1
86 350 m 0,158,159
 73 326 73 326 79 300 c 0,160,161
 82 285 82 285 90 270 c 0,162,163
 118 220 118 220 162 215 c 0,164,165
 187 212 187 212 204 217 c 0,166,167
 213 219 213 219 220 224 c 0,168,169
 231 231 231 231 239 244 c 0,170,171
 257 278 257 278 254 314 c 0,172,173
 254 318 254 318 253 322 c 0,174,175
 250 339 250 339 241 359 c 0,176,177
 224 394 224 394 174 393 c 0,178,179
 170 393 l 0,180,181
 107 388 107 388 86 350 c 0,158,159
EndSplineSet
EndChar
StartChar: TamlNYA
Encoding: 2974 2974 19
Width: 1144
GlyphClass: 2
Flags: W
Fore
778 260 m 1,0,1
 882 377 882 377 967 350 c 0,2,3
 1092 311 1092 311 1094 170 c 0,4,5
 1094 40 1094 40 1041 -59 c 0,6,7
 1016 -106 1016 -106 973 -154 c 1,8,9
 831 -304 831 -304 578 -313 c 0,10,11
 472 -317 472 -317 383 -293 c 0,12,13
 338 -280 338 -280 296 -260 c 0,14,15
 234 -230 234 -230 180 -184 c 0,16,17
 2 -30 2 -30 0 184 c 0,18,19
 -1 281 -1 281 22 363 c 0,20,21
 33 404 33 404 50 440 c 0,22,23
 74 495 74 495 115 543 c 1,24,25
 124 556 124 556 133 553 c 0,26,27
 137 551 l 0,28,29
 145 546 145 546 142 538 c 1,30,-1
 137 528 l 1,31,32
 66 427 66 427 66 225 c 0,33,34
 66 89 66 89 139 -20 c 0,35,36
 212 -128 212 -128 319 -188 c 0,37,38
 443 -257 443 -257 563 -259 c 1,39,40
 828 -259 828 -259 936 -103 c 0,41,42
 1010 4 1010 4 1010 121 c 0,43,44
 1009 234 1009 234 932 264 c 0,45,46
 872 287 872 287 826 256 c 0,47,48
 802 240 802 240 782 209 c 1,49,-1
 778 260 l 1,0,1
541 565 m 2,50,51
 438 565 438 565 372 463 c 0,52,53
 331 398 331 398 317 294 c 1,54,55
 337 339 337 339 388 365 c 1,56,57
 419 379 419 379 460 379 c 0,58,59
 505 379 505 379 545 347 c 0,60,61
 602 299 602 299 596 196 c 0,62,63
 596 190 596 190 595 183 c 1,64,-1
 593 159 l 1,65,66
 581 86 581 86 521 36 c 0,67,68
 476 -2 476 -2 419 1 c 0,69,70
 417 1 417 1 414 1 c 0,71,72
 316 10 316 10 275 99 c 0,73,74
 227 206 227 206 239 305 c 0,75,76
 241 324 241 324 245 343 c 0,77,78
 258 403 258 403 294 459 c 1,79,80
 391 616 391 616 553 616 c 2,81,-1
 978 615 l 1,82,83
 968 606 968 606 963 589 c 0,84,85
 956 565 956 565 938 565 c 2,86,-1
 850 565 l 2,87,88
 839 565 839 565 829 555 c 0,89,90
 823 549 823 549 823 535 c 2,91,-1
 823 131 l 2,92,93
 823 81 823 81 855 81 c 0,94,95
 880 81 880 81 889 122 c 0,96,97
 892 137 892 137 892 131 c 0,98,99
 896 62 896 62 868 26 c 0,100,101
 846 -3 846 -3 818 -3 c 0,102,103
 780 -3 780 -3 754 32 c 0,104,105
 734 57 734 57 734 111 c 2,106,-1
 734 520 l 2,107,108
 734 539 734 539 743 548 c 1,109,110
 757 565 757 565 768 565 c 2,111,-1
 541 565 l 2,50,51
333 240 m 0,112,113
 319 214 319 214 322 185 c 0,114,115
 324 175 l 0,116,117
 326 162 326 162 337 137 c 0,118,119
 366 76 366 76 415 67 c 0,120,121
 441 61 441 61 461 68 c 0,122,123
 470 71 470 71 478 77 c 0,124,125
 490 86 490 86 499 103 c 0,126,127
 522 151 522 151 514 202 c 0,128,129
 509 228 509 228 501 251 c 1,130,131
 482 296 482 296 423 294 c 1,132,133
 360 288 360 288 333 240 c 0,112,113
EndSplineSet
EndChar
StartChar: TamlTTA
Encoding: 2975 2975 20
Width: 775
GlyphClass: 2
Flags: W
Fore
701 26 m 1,0,1
 695 0 695 0 669 0 c 2,2,-1
 104 0 l 2,3,4
 48 0 48 0 25 20 c 0,5,6
 0 41 0 41 0 102 c 2,7,-1
 0 551 l 2,8,9
 0 580 0 580 32 591 c 0,10,11
 64 601 64 601 72 607 c 1,12,13
 80 617 80 617 80 618 c 2,14,-1
 80 110 l 2,15,16
 80 76 80 76 85 68 c 0,17,18
 97 51 97 51 117 51 c 2,19,-1
 724 51 l 1,20,21
 708 47 708 47 701 26 c 1,0,1
EndSplineSet
EndChar
StartChar: TamlNNA
Encoding: 2979 2979 21
Width: 1616
GlyphClass: 2
Flags: W
Fore
791 562 m 0,0,1
 717 564 717 564 675 552 c 1,2,-1
 650 541 l 2,3,4
 647 540 647 540 645 538 c 1,5,6
 790 445 790 445 790 254 c 0,7,8
 789 105 789 105 699 33 c 1,9,10
 655 -4 655 -4 598 -2 c 2,11,-1
 592 -2 l 2,12,13
 486 7 486 7 439 117 c 1,14,15
 400 214 400 214 412 302 c 0,16,17
 415 325 415 325 421 347 c 0,18,19
 436 402 436 402 472 456 c 0,20,21
 579 614 579 614 791 614 c 0,22,23
 898 614 898 614 1028 551 c 1,24,-1
 966 510 l 1,25,26
 880 559 880 559 791 562 c 0,0,1
906 379 m 0,27,28
 868 296 868 296 885 205 c 0,29,30
 894 155 894 155 916 109 c 0,31,32
 941 56 941 56 996 47 c 0,33,34
 1036 41 1036 41 1065 68 c 0,35,36
 1079 81 1079 81 1093 104 c 1,37,38
 1126 166 1126 166 1119 262 c 0,39,40
 1119 275 1119 275 1117 289 c 0,41,42
 1099 450 1099 450 992 483 c 0,43,44
 970 489 970 489 940 442 c 1,45,-1
 911 389 l 2,46,47
 908 384 908 384 906 379 c 0,27,28
1048 541 m 1,48,49
 1196 425 1196 425 1193 236 c 0,50,51
 1193 234 1193 234 1193 231 c 0,52,53
 1191 136 1191 136 1125 55 c 1,54,55
 1075 -3 1075 -3 1001 -2 c 0,56,57
 901 0 901 0 851 120 c 0,58,59
 803 234 803 234 832 344 c 0,60,61
 847 401 847 401 882 456 c 0,62,63
 979 613 979 613 1141 613 c 2,64,-1
 1566 613 l 1,65,66
 1557 605 1557 605 1550 586 c 1,67,68
 1544 562 1544 562 1526 562 c 2,69,-1
 1438 562 l 2,70,71
 1427 562 1427 562 1417 552 c 0,72,73
 1411 546 1411 546 1411 531 c 2,74,-1
 1411 128 l 2,75,76
 1411 78 1411 78 1443 78 c 0,77,78
 1468 78 1468 78 1477 119 c 0,79,80
 1480 134 1480 134 1480 128 c 0,81,82
 1480 56 1480 56 1456 23 c 1,83,84
 1439 -3 1439 -3 1406 -3 c 0,85,86
 1363 -1 1363 -1 1341 29 c 1,87,88
 1322 52 1322 52 1322 108 c 2,89,-1
 1322 517 l 2,90,91
 1322 535 1322 535 1330 545 c 1,92,93
 1349 562 1349 562 1356 562 c 2,94,-1
 1144 562 l 2,95,96
 1099 562 1099 562 1082 558 c 0,97,98
 1061 554 1061 554 1048 541 c 1,48,49
501 372 m 1,99,100
 447 242 447 242 510 120 c 1,101,102
 542 54 542 54 597 46 c 0,103,104
 631 42 631 42 658 65 c 0,105,106
 671 77 671 77 683 96 c 0,107,108
 716 149 716 149 714 248 c 0,109,110
 714 254 l 2,111,-1
 714 264 l 1,112,113
 708 410 708 410 601 473 c 0,114,115
 580 485 580 485 558 467 c 1,116,-1
 542 449 l 2,117,118
 539 445 539 445 536 440 c 0,119,120
 517 414 517 414 501 372 c 1,99,100
140 460 m 0,121,122
 82 396 82 396 74 295 c 1,123,124
 85 327 85 327 157 361 c 0,125,126
 186 376 186 376 228 376 c 0,127,128
 273 376 273 376 313 344 c 0,129,130
 370 297 370 297 365 192 c 0,131,132
 364 186 364 186 364 180 c 1,133,-1
 361 156 l 1,134,135
 351 83 351 83 290 33 c 0,136,137
 244 -4 244 -4 188 -2 c 2,138,-1
 182 -2 l 2,139,140
 75 7 75 7 28 123 c 0,141,142
 -8 214 -8 214 2 300 c 0,143,144
 5 324 5 324 12 348 c 0,145,146
 29 406 29 406 62 456 c 0,147,148
 169 614 169 614 381 614 c 0,149,150
 489 614 489 614 618 551 c 1,151,-1
 558 506 l 1,152,153
 470 562 470 562 381 562 c 0,154,155
 284 562 284 562 210 517 c 0,156,157
 170 493 170 493 140 460 c 0,121,122
101 237 m 1,158,159
 86 207 86 207 93 172 c 0,160,161
 96 154 96 154 105 134 c 0,162,163
 135 73 135 73 183 63 c 0,164,165
 209 58 209 58 228 64 c 0,166,167
 238 67 238 67 247 74 c 0,168,169
 259 83 259 83 267 100 c 0,170,171
 287 142 287 142 284 189 c 0,172,173
 284 194 284 194 283 199 c 0,174,175
 279 219 279 219 269 248 c 1,176,177
 251 292 251 292 196 291 c 2,178,-1
 191 291 l 2,179,180
 130 285 130 285 101 237 c 1,158,159
EndSplineSet
EndChar
StartChar: TamlTA
Encoding: 2980 2980 22
Width: 905
GlyphClass: 2
Flags: W
Fore
435 309 m 1,0,-1
 160 309 l 2,1,2
 110 309 110 309 98 281 c 0,3,4
 86 256 86 256 86 196 c 0,5,6
 86 122 86 122 161 82 c 0,7,8
 210 56 210 56 271 56 c 0,9,10
 353 56 353 56 414 108 c 0,11,12
 435 126 435 126 435 196 c 2,13,-1
 435 309 l 1,0,-1
434 360 m 1,14,-1
 434 513 l 2,15,16
 434 557 434 557 463 563 c 1,17,-1
 251 563 l 1,18,19
 229 558 229 558 223 513 c 1,20,-1
 223 360 l 1,21,-1
 434 360 l 1,14,-1
614 309 m 2,22,-1
 516 309 l 1,23,-1
 516 176 l 2,24,25
 516 89 516 89 461 49 c 0,26,27
 393 0 393 0 270 0 c 0,28,29
 137 0 137 0 70 55 c 1,30,31
 0 110 0 110 0 213 c 0,32,33
 0 360 0 360 127 360 c 2,34,-1
 142 360 l 1,35,-1
 142 513 l 2,36,37
 142 602 142 602 200 614 c 1,38,-1
 744 614 l 2,39,40
 735 614 735 614 729 588 c 0,41,42
 725 564 725 564 707 563 c 2,43,-1
 548 563 l 1,44,45
 514 553 514 553 515 513 c 1,46,-1
 515 360 l 1,47,-1
 653 360 l 2,48,49
 764 360 764 360 819 272 c 1,50,51
 855 217 855 217 854 119 c 0,52,53
 852 23 852 23 768 -74 c 1,54,55
 702 -147 702 -147 528 -147 c 2,56,-1
 172 -147 l 2,57,58
 109 -147 109 -147 109 -234 c 1,59,-1
 98 -303 l 1,60,61
 83 -344 83 -344 77 -329 c 0,62,63
 73 -321 73 -321 72 -298 c 0,64,65
 67 -213 67 -213 71 -175 c 0,66,67
 73 -157 73 -157 77 -151 c 0,68,69
 108 -96 108 -96 190 -96 c 2,70,-1
 565 -96 l 2,71,72
 698 -96 698 -96 748 0 c 1,73,74
 788 81 788 81 776 154 c 0,75,76
 772 179 772 179 762 203 c 0,77,78
 716 309 716 309 614 309 c 2,22,-1
EndSplineSet
EndChar
StartChar: TamlNA
Encoding: 2984 2984 23
Width: 737
GlyphClass: 2
Flags: W
Fore
527 -58 m 1,0,1
 595 -20 595 -20 607 29 c 0,2,3
 626 100 626 100 613 152 c 0,4,5
 607 175 607 175 593 198 c 0,6,7
 563 243 563 243 507 234 c 0,8,9
 499 233 499 233 490 231 c 0,10,11
 396 207 396 207 396 129 c 2,12,-1
 396 39 l 2,13,14
 396 0 396 0 358 -2 c 0,15,16
 330 -3 330 -3 320 13 c 0,17,18
 315 21 315 21 315 35 c 2,19,-1
 315 513 l 2,20,21
 315 557 315 557 344 563 c 1,22,-1
 162 563 l 1,23,24
 137 557 137 557 134 513 c 1,25,-1
 134 105 l 2,26,27
 134 67 134 67 168 67 c 1,28,-1
 182 70 l 1,29,-1
 212 105 l 2,30,31
 219 112 219 112 218 101 c 0,32,33
 216 91 216 91 206 62 c 0,34,35
 183 0 183 0 126 0 c 0,36,37
 53 0 53 0 53 91 c 2,38,-1
 53 513 l 2,39,40
 53 602 53 602 111 614 c 1,41,-1
 626 614 l 2,42,43
 616 614 616 614 610 588 c 1,44,45
 607 565 607 565 588 563 c 1,46,-1
 429 563 l 1,47,48
 396 552 396 552 396 513 c 2,49,-1
 396 200 l 1,50,51
 434 282 434 282 476 301 c 0,52,53
 539 329 539 329 591 304 c 0,54,55
 617 292 617 292 641 266 c 0,56,57
 694 209 694 209 686 116 c 0,58,59
 685 106 685 106 684 97 c 0,60,61
 669 -17 669 -17 589 -77 c 0,62,63
 512 -134 512 -134 378 -134 c 2,64,-1
 103 -134 l 2,65,66
 40 -134 40 -134 40 -221 c 1,67,-1
 30 -290 l 1,68,69
 17 -324 17 -324 11 -319 c 0,70,71
 5 -315 5 -315 3 -285 c 0,72,73
 -2 -201 -2 -201 2 -162 c 0,74,75
 4 -144 4 -144 8 -137 c 0,76,77
 40 -83 40 -83 122 -83 c 2,78,-1
 384 -83 l 2,79,80
 489 -83 489 -83 527 -58 c 1,0,1
EndSplineSet
EndChar
StartChar: TamlNNNA
Encoding: 2985 2985 24
Width: 1197
GlyphClass: 2
Flags: W
Fore
490 382 m 0,0,1
 456 295 456 295 472 206 c 0,2,3
 480 159 480 159 501 112 c 0,4,5
 525 56 525 56 577 52 c 0,6,7
 618 48 618 48 646 73 c 0,8,9
 662 87 662 87 673 108 c 0,10,11
 705 166 705 166 699 266 c 0,12,13
 698 278 698 278 697 292 c 0,14,15
 690 390 690 390 574 493 c 0,16,17
 544 520 544 520 490 382 c 0,0,1
628 542 m 1,18,19
 775 450 775 450 773 241 c 0,20,21
 773 237 l 2,22,-1
 773 232 l 1,23,24
 772 131 772 131 706 56 c 0,25,26
 654 -2 654 -2 582 -1 c 0,27,28
 482 0 482 0 431 121 c 0,29,30
 383 236 383 236 413 348 c 0,31,32
 428 402 428 402 462 457 c 0,33,34
 559 614 559 614 721 614 c 2,35,-1
 1146 614 l 1,36,37
 1137 606 1137 606 1130 587 c 1,38,39
 1124 563 1124 563 1106 563 c 2,40,-1
 1018 563 l 2,41,42
 1007 563 1007 563 997 553 c 0,43,44
 991 547 991 547 991 532 c 2,45,-1
 991 129 l 2,46,47
 991 79 991 79 1023 79 c 0,48,49
 1048 79 1048 79 1057 120 c 0,50,51
 1060 135 1060 135 1060 129 c 0,52,53
 1060 57 1060 57 1036 24 c 1,54,55
 1019 -2 1019 -2 986 -2 c 0,56,57
 944 0 944 0 922 30 c 0,58,59
 902 55 902 55 902 109 c 2,60,-1
 902 518 l 2,61,62
 902 536 902 536 910 546 c 1,63,64
 929 563 929 563 936 563 c 2,65,-1
 724 563 l 2,66,67
 679 563 679 563 663 559 c 0,68,69
 640 554 640 554 628 542 c 1,18,19
140 461 m 0,70,71
 81 396 81 396 74 296 c 1,72,73
 85 328 85 328 157 362 c 0,74,75
 186 377 186 377 228 377 c 0,76,77
 273 377 273 377 313 345 c 0,78,79
 370 298 370 298 365 193 c 0,80,81
 364 187 364 187 364 181 c 1,82,-1
 361 157 l 1,83,84
 351 84 351 84 290 34 c 0,85,86
 244 -3 244 -3 188 -1 c 2,87,-1
 182 -1 l 2,88,89
 75 8 75 8 28 124 c 0,90,91
 -8 214 -8 214 2 300 c 0,92,93
 5 325 5 325 12 349 c 0,94,95
 29 407 29 407 62 457 c 0,96,97
 168 615 168 615 381 615 c 0,98,99
 489 615 489 615 618 552 c 1,100,-1
 558 509 l 1,101,102
 477 563 477 563 381 563 c 0,103,104
 284 564 284 564 209 519 c 0,105,106
 172 496 172 496 140 461 c 0,70,71
101 238 m 1,107,108
 88 212 88 212 91 183 c 0,109,110
 91 178 91 178 92 173 c 0,111,112
 97 155 97 155 105 135 c 1,113,114
 136 74 136 74 183 65 c 0,115,116
 210 59 210 59 229 65 c 0,117,118
 239 68 239 68 247 75 c 0,119,120
 259 84 259 84 267 101 c 0,121,122
 290 150 290 150 282 201 c 0,123,124
 279 225 279 225 269 249 c 0,125,126
 251 293 251 293 196 292 c 2,127,-1
 191 292 l 2,128,129
 130 286 130 286 101 238 c 1,107,108
EndSplineSet
EndChar
StartChar: TamlPA
Encoding: 2986 2986 25
Width: 617
GlyphClass: 2
Flags: W
Fore
461 0 m 2,0,-1
 104 0 l 2,1,2
 48 0 48 0 25 20 c 0,3,4
 0 41 0 41 0 102 c 2,5,-1
 0 551 l 2,6,7
 0 580 0 580 32 591 c 0,8,9
 64 601 64 601 72 607 c 1,10,11
 80 617 80 617 80 618 c 2,12,-1
 80 110 l 2,13,14
 80 76 80 76 85 68 c 0,15,16
 97 51 97 51 117 51 c 2,17,-1
 449 51 l 2,18,19
 469 51 469 51 480 68 c 0,20,21
 485 74 485 74 485 108 c 2,22,-1
 485 550 l 2,23,24
 485 578 485 578 518 590 c 0,25,26
 549 600 549 600 558 606 c 1,27,28
 566 616 566 616 566 617 c 2,29,-1
 566 109 l 2,30,31
 566 56 566 56 554 33 c 0,32,33
 536 0 536 0 461 0 c 2,0,-1
EndSplineSet
EndChar
StartChar: TamlMA
Encoding: 2990 2990 26
Width: 822
GlyphClass: 2
Flags: W
Fore
535 563 m 0,0,1
 451 563 451 563 451 442 c 1,2,-1
 452 39 l 1,3,-1
 371 39 l 1,4,-1
 371 430 l 2,5,6
 371 614 371 614 535 614 c 0,7,8
 666 614 666 614 727 535 c 0,9,10
 777 471 777 471 771 327 c 0,11,12
 771 316 771 316 770 305 c 0,13,14
 762 172 762 172 698 90 c 1,15,16
 630 0 630 0 539 0 c 2,17,-1
 104 0 l 2,18,19
 48 0 48 0 25 20 c 0,20,21
 0 41 0 41 0 102 c 2,22,-1
 0 551 l 2,23,24
 0 580 0 580 32 591 c 0,25,26
 64 601 64 601 72 607 c 1,27,28
 80 617 80 617 80 618 c 2,29,-1
 80 110 l 2,30,31
 80 76 80 76 85 68 c 0,32,33
 97 51 97 51 117 51 c 2,34,-1
 563 51 l 2,35,36
 614 51 614 51 647 111 c 0,37,38
 698 200 698 200 698 297 c 0,39,40
 698 563 698 563 535 563 c 0,0,1
EndSplineSet
EndChar
StartChar: TamlYA
Encoding: 2991 2991 27
Width: 873
GlyphClass: 2
Flags: W
Fore
106 0 m 0,0,1
 0 1 0 1 0 102 c 2,2,-1
 0 551 l 2,3,4
 0 580 0 580 32 591 c 0,5,6
 64 601 64 601 72 607 c 1,7,8
 80 617 80 617 80 618 c 2,9,-1
 80 171 l 2,10,11
 80 68 80 68 146 68 c 0,12,13
 232 68 232 68 285 200 c 0,14,15
 298 234 298 234 318 200 c 1,16,-1
 303 147 l 1,17,18
 236 0 236 0 106 0 c 0,0,1
717 0 m 2,19,-1
 360 0 l 2,20,21
 304 0 304 0 281 20 c 0,22,23
 256 41 256 41 256 102 c 2,24,-1
 256 551 l 2,25,26
 256 580 256 580 288 591 c 0,27,28
 320 601 320 601 328 607 c 1,29,30
 336 617 336 617 336 618 c 2,31,-1
 336 110 l 2,32,33
 336 76 336 76 341 68 c 0,34,35
 353 51 353 51 373 51 c 2,36,-1
 705 51 l 2,37,38
 725 51 725 51 736 68 c 0,39,40
 741 74 741 74 741 108 c 2,41,-1
 741 550 l 2,42,43
 741 578 741 578 774 590 c 0,44,45
 805 600 805 600 814 606 c 1,46,47
 822 616 822 616 822 617 c 2,48,-1
 822 109 l 2,49,50
 822 56 822 56 810 33 c 0,51,52
 792 0 792 0 717 0 c 2,19,-1
EndSplineSet
EndChar
StartChar: TamlRA
Encoding: 2992 2992 28
Width: 594
GlyphClass: 2
Flags: W
Fore
68 615 m 1,0,-1
 544 614 l 1,1,2
 534 606 534 606 528 588 c 0,3,4
 522 564 522 564 504 564 c 2,5,-1
 416 564 l 2,6,7
 405 564 405 564 395 554 c 0,8,9
 389 548 389 548 389 534 c 2,10,-1
 389 58 l 2,11,12
 389 -102 389 -102 228 -140 c 0,13,14
 151 -159 151 -159 151 -144 c 0,15,16
 152 -131 152 -131 207 -94 c 0,17,18
 300 -32 300 -32 300 19 c 2,19,-1
 300 514 l 1,20,-1
 301 535 l 1,21,22
 302 538 302 538 304 541 c 0,23,24
 319 564 319 564 334 564 c 2,25,-1
 106 564 l 2,26,27
 84 564 84 564 81 514 c 1,28,-1
 81 106 l 2,29,30
 81 68 81 68 115 68 c 1,31,-1
 129 71 l 1,32,-1
 159 106 l 1,33,34
 168 115 168 115 163 94 c 0,35,36
 160 83 160 83 153 63 c 0,37,38
 130 1 130 1 73 1 c 0,39,40
 0 1 0 1 0 92 c 2,41,-1
 0 514 l 2,42,43
 0 600 0 600 68 615 c 1,0,-1
EndSplineSet
EndChar
StartChar: TamlRRA
Encoding: 2993 2993 29
Width: 720
GlyphClass: 2
Flags: W
Fore
501 621 m 0,0,1
 668 621 668 621 671 446 c 1,2,-1
 671 125 l 2,3,4
 671 8 671 8 605 -68 c 0,5,6
 542 -141 542 -141 366 -141 c 2,7,-1
 132 -141 l 2,8,9
 69 -141 69 -141 69 -228 c 1,10,-1
 58 -297 l 1,11,12
 46 -332 46 -332 39 -326 c 0,13,14
 38 -325 38 -325 37 -323 c 0,15,16
 32 -315 32 -315 32 -292 c 1,17,18
 27 -208 27 -208 31 -169 c 0,19,20
 33 -151 33 -151 37 -144 c 0,21,22
 68 -90 68 -90 151 -90 c 2,23,-1
 372 -90 l 2,24,25
 474 -90 474 -90 538 -39 c 1,26,27
 593 8 593 8 593 137 c 2,28,-1
 593 425 l 2,29,30
 593 575 593 575 499 575 c 128,-1,31
 405 575 405 575 402 416 c 1,32,-1
 380 567 l 1,33,34
 418 621 418 621 501 621 c 0,0,1
325 62 m 2,35,-1
 325 449 l 2,36,37
 325 569 325 569 242 569 c 0,38,39
 190 569 190 569 172 516 c 1,40,41
 164 487 164 487 164 450 c 2,42,-1
 164 95 l 1,43,44
 165 54 165 54 150 31 c 0,45,46
 143 20 143 20 133 13 c 1,47,-1
 114 4 l 1,48,-1
 92 2 l 1,49,50
 34 2 34 2 12 65 c 0,51,52
 -3 107 -3 107 2 110 c 0,53,54
 3 111 3 111 6 108 c 2,55,-1
 36 72 l 1,56,-1
 50 69 l 1,57,58
 82 69 82 69 82 118 c 2,59,-1
 82 486 l 1,60,61
 81 576 81 576 153 607 c 0,62,63
 190 623 190 623 245 623 c 0,64,65
 404 623 404 623 404 481 c 2,66,-1
 404 63 l 2,67,68
 404 12 404 12 366 10 c 1,69,70
 325 10 325 10 325 62 c 2,35,-1
EndSplineSet
EndChar
StartChar: TamlLA
Encoding: 2994 2994 30
Width: 852
GlyphClass: 2
Flags: W
Fore
315 559 m 1,0,1
 210 557 210 557 140 473 c 0,2,3
 87 408 87 408 76 295 c 1,4,5
 87 327 87 327 159 361 c 0,6,7
 189 376 189 376 230 376 c 0,8,9
 275 376 275 376 315 344 c 0,10,11
 372 297 372 297 367 192 c 0,12,13
 366 186 366 186 366 180 c 1,14,-1
 364 156 l 1,15,16
 352 83 352 83 292 33 c 0,17,18
 247 -5 247 -5 190 -2 c 0,19,20
 184 -2 l 0,21,22
 80 7 80 7 30 123 c 0,23,24
 -10 217 -10 217 2 308 c 0,25,26
 6 335 6 335 14 361 c 0,27,28
 32 424 32 424 73 482 c 1,29,30
 161 613 161 613 340 611 c 0,31,32
 344 611 l 0,33,34
 455 611 455 611 494 528 c 1,35,36
 510 490 510 490 512 387 c 1,37,-1
 513 255 l 1,38,39
 514 53 514 53 631 51 c 0,40,41
 722 51 722 51 721 228 c 1,42,-1
 720 396 l 1,43,44
 718 492 718 492 699 531 c 0,45,46
 687 556 687 556 629 584 c 1,47,-1
 592 593 l 1,48,49
 625 616 625 616 662 614 c 0,50,51
 666 614 l 0,52,53
 740 609 740 609 773 556 c 0,54,55
 799 513 799 513 801 399 c 1,56,-1
 802 273 l 1,57,58
 804 -2 804 -2 613 0 c 0,59,60
 441 1 441 1 438 252 c 1,61,-1
 437 390 l 1,62,63
 437 559 437 559 315 559 c 1,0,1
103 237 m 1,64,65
 90 211 90 211 93 182 c 0,66,67
 93 177 93 177 94 172 c 0,68,69
 99 152 99 152 108 134 c 0,70,71
 137 74 137 74 185 63 c 0,72,73
 211 58 211 58 230 64 c 0,74,75
 240 67 240 67 249 74 c 0,76,77
 261 83 261 83 269 100 c 0,78,79
 289 142 289 142 286 189 c 0,80,81
 286 194 286 194 285 199 c 0,82,83
 280 227 280 227 271 248 c 0,84,85
 252 293 252 293 194 291 c 1,86,87
 132 285 132 285 103 237 c 1,64,65
EndSplineSet
EndChar
StartChar: TamlLLA
Encoding: 2995 2995 31
Width: 1057
GlyphClass: 2
Flags: W
Fore
844 122 m 2,0,1
 844 68 844 68 879 68 c 1,2,-1
 893 71 l 1,3,-1
 923 106 l 1,4,5
 932 115 932 115 926 94 c 0,6,7
 923 83 923 83 916 63 c 0,8,9
 895 1 895 1 837 1 c 0,10,11
 764 1 764 1 764 91 c 2,12,-1
 764 514 l 1,13,-1
 765 535 l 1,14,-1
 768 541 l 1,15,16
 783 564 783 564 798 564 c 2,17,-1
 642 564 l 2,18,19
 545 564 545 564 545 442 c 2,20,-1
 545 106 l 2,21,22
 545 68 545 68 579 68 c 1,23,-1
 593 71 l 1,24,-1
 623 106 l 1,25,26
 632 115 632 115 626 94 c 0,27,28
 623 83 623 83 616 63 c 0,29,30
 595 1 595 1 537 1 c 0,31,32
 464 1 464 1 464 92 c 1,33,-1
 466 446 l 1,34,35
 467 522 467 522 415 549 c 0,36,37
 388 562 388 562 348 563 c 0,38,39
 299 564 299 564 254 545 c 0,40,41
 231 535 231 535 208 520 c 0,42,43
 174 498 174 498 142 463 c 0,44,45
 84 400 84 400 76 298 c 1,46,47
 87 330 87 330 159 365 c 0,48,49
 190 379 190 379 230 379 c 0,50,51
 275 379 275 379 315 347 c 0,52,53
 375 298 375 298 365 185 c 0,54,55
 364 172 364 172 362 158 c 0,56,57
 353 85 353 85 292 35 c 0,58,59
 247 -2 247 -2 190 1 c 0,60,61
 184 1 l 0,62,63
 77 10 77 10 30 126 c 0,64,65
 -8 218 -8 218 3 306 c 0,66,67
 6 330 6 330 12 353 c 0,68,69
 30 411 30 411 65 459 c 0,70,71
 176 615 176 615 351 615 c 0,72,73
 471 615 471 615 507 539 c 1,74,75
 527 582 527 582 551 597 c 0,76,77
 581 615 581 615 628 615 c 2,78,-1
 1008 614 l 1,79,80
 998 606 998 606 992 588 c 0,81,82
 984 564 984 564 968 564 c 2,83,-1
 880 564 l 2,84,85
 869 564 869 564 859 554 c 0,86,87
 844 539 844 539 844 534 c 2,88,-1
 844 122 l 2,0,1
103 240 m 1,89,90
 89 214 89 214 92 185 c 0,91,92
 94 175 l 0,93,94
 100 153 100 153 108 137 c 0,95,96
 137 76 137 76 185 67 c 0,97,98
 226 58 226 58 250 77 c 0,99,100
 261 87 261 87 269 103 c 0,101,102
 292 152 292 152 284 203 c 0,103,104
 281 227 281 227 271 251 c 0,105,106
 252 296 252 296 194 294 c 1,107,108
 132 288 132 288 103 240 c 1,89,90
EndSplineSet
EndChar
StartChar: TamlLLLA
Encoding: 2996 2996 32
Width: 847
GlyphClass: 2
Flags: W
Fore
475 12 m 1,0,1
 474 -14 474 -14 481 -34 c 0,2,3
 484 -44 484 -44 489 -53 c 0,4,5
 513 -92 513 -92 622 -91 c 2,6,-1
 702 -90 l 2,7,8
 730 -90 730 -90 729 -101 c 0,9,10
 722 -145 722 -145 692 -145 c 2,11,-1
 600 -145 l 2,12,13
 523 -145 523 -145 461 -246 c 0,14,15
 383 -372 383 -372 211 -375 c 0,16,17
 147 -375 147 -375 98 -350 c 1,18,19
 74 -336 74 -336 53 -317 c 0,20,21
 -8 -259 -8 -259 1 -190 c 0,22,23
 2 -183 2 -183 4 -176 c 0,24,25
 20 -107 20 -107 80 -121 c 0,26,27
 88 -123 88 -123 98 -127 c 0,28,29
 123 -136 123 -136 119 -145 c 1,30,31
 71 -166 71 -166 74 -203 c 1,32,33
 90 -322 90 -322 215 -324 c 1,34,35
 345 -324 345 -324 394 -212 c 0,36,37
 432 -129 432 -129 477 -113 c 1,38,39
 400 -89 400 -89 397 -30 c 1,40,-1
 396 11 l 1,41,-1
 396 12 l 1,42,-1
 475 12 l 1,0,1
559 561 m 0,43,44
 475 561 475 561 475 440 c 2,45,-1
 475 37 l 1,46,-1
 395 37 l 1,47,-1
 395 428 l 2,48,49
 395 612 395 612 559 612 c 0,50,51
 697 612 697 612 752 532 c 0,52,53
 803 457 803 457 796 294 c 0,54,55
 796 281 796 281 795 268 c 0,56,57
 789 169 789 169 723 88 c 0,58,59
 650 -2 650 -2 563 -2 c 2,60,-1
 109 -2 l 2,61,62
 52 -2 52 -2 29 18 c 0,63,64
 4 39 4 39 4 100 c 2,65,-1
 4 549 l 2,66,67
 4 578 4 578 36 589 c 0,68,69
 68 599 68 599 76 605 c 1,70,71
 84 615 84 615 84 616 c 2,72,-1
 84 108 l 2,73,74
 84 74 84 74 89 66 c 0,75,76
 101 49 101 49 121 49 c 2,77,-1
 588 49 l 2,78,79
 636 49 636 49 672 109 c 0,80,81
 727 200 727 200 727 283 c 0,82,83
 727 561 727 561 559 561 c 0,43,44
EndSplineSet
EndChar
StartChar: TamlVA
Encoding: 2997 2997 33
Width: 962
GlyphClass: 2
Flags: W
Fore
348 562 m 0,0,1
 300 566 300 566 255 547 c 0,2,3
 232 538 232 538 209 522 c 0,4,5
 179 503 179 503 142 462 c 1,6,7
 86 397 86 397 76 276 c 1,8,9
 113 342 113 342 159 364 c 0,10,11
 190 378 190 378 229 378 c 0,12,13
 275 378 275 378 315 346 c 0,14,15
 372 299 372 299 367 194 c 0,16,17
 366 188 366 188 366 182 c 0,18,19
 364 166 364 166 362 157 c 0,20,21
 353 84 353 84 292 34 c 0,22,23
 247 -3 247 -3 190 0 c 0,24,25
 184 0 l 0,26,27
 77 9 77 9 30 125 c 0,28,29
 -9 219 -9 219 2 305 c 0,30,31
 5 329 5 329 12 352 c 0,32,33
 30 410 30 410 65 458 c 0,34,35
 176 614 176 614 351 614 c 0,36,37
 487 614 487 614 549 537 c 1,38,39
 619 447 619 447 612 327 c 0,40,41
 612 320 612 320 611 313 c 0,42,43
 611 300 611 300 608 287 c 0,44,45
 585 137 585 137 475 51 c 1,46,-1
 794 51 l 2,47,48
 814 51 814 51 825 68 c 0,49,50
 830 74 830 74 830 108 c 2,51,-1
 830 550 l 2,52,53
 830 578 830 578 863 590 c 0,54,55
 894 600 894 600 903 606 c 1,56,57
 908 611 908 611 911 617 c 1,58,-1
 911 109 l 2,59,60
 911 56 911 56 899 33 c 0,61,62
 881 0 881 0 806 0 c 2,63,-1
 451 0 l 2,64,65
 370 0 370 0 388 26 c 0,66,67
 391 32 391 32 399 38 c 0,68,69
 498 115 498 115 524 203 c 0,70,71
 545 273 545 273 540 336 c 0,72,73
 539 349 539 349 537 361 c 0,74,75
 529 400 529 400 514 430 c 0,76,77
 454 553 454 553 348 562 c 0,0,1
103 238 m 0,78,79
 89 212 89 212 93 183 c 0,80,81
 93 178 93 178 94 174 c 0,82,83
 100 152 100 152 108 136 c 0,84,85
 137 75 137 75 185 66 c 0,86,87
 226 57 226 57 250 76 c 0,88,89
 261 86 261 86 269 102 c 0,90,91
 288 142 288 142 285 189 c 0,92,93
 285 195 285 195 284 201 c 0,94,95
 281 227 281 227 271 250 c 0,96,97
 252 295 252 295 194 293 c 1,98,99
 131 287 131 287 103 238 c 0,78,79
EndSplineSet
EndChar
StartChar: TamlSSA
Encoding: 2999 2999 34
Width: 1136
GlyphClass: 2
Flags: W
Fore
1044 23 m 0,0,1
 1013 0 1013 0 959 0 c 2,2,-1
 451 0 l 1,3,4
 367 2 367 2 388 27 c 1,5,-1
 399 38 l 1,6,7
 498 115 498 115 524 203 c 0,8,9
 545 273 545 273 540 336 c 0,10,11
 539 349 539 349 537 361 c 0,12,13
 529 400 529 400 514 430 c 0,14,15
 454 553 454 553 348 562 c 0,16,17
 300 566 300 566 255 547 c 0,18,19
 232 538 232 538 209 522 c 0,20,21
 179 503 179 503 142 462 c 1,22,23
 86 397 86 397 76 276 c 1,24,25
 113 342 113 342 159 364 c 0,26,27
 190 378 190 378 229 378 c 0,28,29
 275 378 275 378 315 346 c 0,30,31
 372 299 372 299 367 194 c 0,32,33
 366 188 366 188 366 182 c 0,34,35
 364 166 364 166 362 157 c 0,36,37
 353 84 353 84 292 34 c 0,38,39
 247 -3 247 -3 190 0 c 0,40,41
 184 0 l 0,42,43
 77 9 77 9 30 125 c 0,44,45
 -9 219 -9 219 2 305 c 0,46,47
 5 329 5 329 12 352 c 0,48,49
 30 410 30 410 65 458 c 0,50,51
 176 614 176 614 351 614 c 0,52,53
 487 614 487 614 549 537 c 1,54,55
 619 447 619 447 612 327 c 0,56,57
 612 320 612 320 611 313 c 0,58,59
 611 300 611 300 608 287 c 0,60,61
 585 137 585 137 475 51 c 1,62,-1
 947 51 l 2,63,64
 1008 51 1008 51 1008 111 c 0,65,66
 1008 162 1008 162 942 176 c 0,67,68
 821 203 821 203 750 274 c 0,69,70
 685 340 685 340 686 430 c 0,71,72
 688 519 688 519 750 565 c 0,73,74
 814 614 814 614 881 614 c 0,75,76
 971 614 971 614 1028 551 c 0,77,78
 1079 496 1079 496 1072 423 c 0,79,80
 1072 416 1072 416 1071 410 c 0,81,82
 1059 328 1059 328 985 266 c 0,83,84
 912 206 912 206 856 74 c 1,85,-1
 723 -246 l 2,86,87
 697 -309 697 -309 657 -319 c 1,88,89
 614 -332 614 -332 580 -328 c 0,90,91
 568 -327 568 -327 558 -324 c 0,92,93
 537 -316 537 -316 524 -303 c 1,94,95
 594 -296 594 -296 614 -279 c 0,96,97
 658 -239 658 -239 713 -109 c 1,98,-1
 797 94 l 2,99,100
 840 197 840 197 946 295 c 0,101,102
 1018 362 1018 362 1009 445 c 0,103,104
 1008 451 1008 451 1007 458 c 0,105,106
 1005 470 1005 470 997 489 c 1,107,108
 970 567 970 567 887 567 c 0,109,110
 826 567 826 567 788 520 c 0,111,112
 742 463 742 463 756 390 c 0,113,114
 759 370 759 370 768 348 c 0,115,116
 803 260 803 260 887 238 c 1,117,118
 1020 200 1020 200 1042 182 c 1,119,120
 1085 151 1085 151 1085 92 c 0,121,122
 1085 65 1085 65 1068 44 c 1,123,-1
 1050 27 l 2,124,125
 1048 25 1048 25 1044 23 c 0,0,1
103 238 m 0,126,127
 89 212 89 212 93 183 c 0,128,129
 93 178 93 178 94 174 c 0,130,131
 100 152 100 152 108 136 c 0,132,133
 137 75 137 75 185 66 c 0,134,135
 226 57 226 57 250 76 c 0,136,137
 261 86 261 86 269 102 c 0,138,139
 288 142 288 142 285 189 c 0,140,141
 285 195 285 195 284 201 c 0,142,143
 281 227 281 227 271 250 c 0,144,145
 252 295 252 295 194 293 c 1,146,147
 131 287 131 287 103 238 c 0,126,127
EndSplineSet
EndChar
StartChar: TamlSA
Encoding: 3000 3000 35
Width: 1141
GlyphClass: 2
Flags: W
Fore
316 561 m 0,0,1
 243 563 243 563 189 524 c 0,2,3
 164 505 164 505 141 475 c 0,4,5
 88 404 88 404 77 297 c 1,6,7
 88 329 88 329 160 364 c 0,8,9
 191 378 191 378 231 378 c 0,10,11
 276 378 276 378 316 346 c 0,12,13
 373 299 373 299 368 194 c 0,14,15
 367 188 367 188 367 182 c 1,16,-1
 365 158 l 1,17,18
 353 84 353 84 293 35 c 0,19,20
 248 -3 248 -3 191 0 c 0,21,22
 185 0 l 0,23,24
 81 9 81 9 31 125 c 0,25,26
 -22 246 -22 246 14 364 c 0,27,28
 33 424 33 424 74 484 c 0,29,30
 164 616 164 616 316 616 c 0,31,32
 436 616 436 616 490 481 c 1,33,34
 544 616 544 616 642 616 c 0,35,36
 703 617 703 617 740 593 c 0,37,38
 759 581 759 581 772 562 c 0,39,40
 799 523 799 523 801 392 c 1,41,-1
 802 260 l 1,42,43
 804 57 804 57 920 56 c 0,44,45
 1010 56 1010 56 1010 233 c 2,46,-1
 1010 401 l 2,47,48
 1010 491 1010 491 988 537 c 0,49,50
 977 560 977 560 918 589 c 1,51,-1
 881 598 l 1,52,53
 914 621 914 621 954 620 c 1,54,55
 1028 614 1028 614 1062 561 c 0,56,57
 1088 518 1088 518 1090 404 c 1,58,-1
 1091 279 l 1,59,60
 1091 94 1091 94 1008 35 c 1,61,62
 967 4 967 4 902 5 c 0,63,64
 726 7 726 7 726 257 c 2,65,-1
 726 395 l 2,66,67
 726 560 726 560 651 562 c 0,68,69
 629 563 629 563 608 551 c 0,70,71
 598 545 598 545 588 536 c 0,72,73
 574 523 574 523 558 501 c 0,74,75
 525 453 525 453 525 377 c 1,76,-1
 526 51 l 1,77,78
 526 17 526 17 506 7 c 0,79,80
 494 1 494 1 479 2 c 0,81,82
 446 4 446 4 446 54 c 2,83,-1
 446 389 l 2,84,85
 446 458 446 458 409 508 c 0,86,87
 371 560 371 560 316 561 c 0,0,1
104 239 m 1,88,89
 89 209 89 209 96 175 c 0,90,91
 99 156 99 156 109 136 c 0,92,93
 138 75 138 75 186 66 c 0,94,95
 213 60 213 60 232 66 c 0,96,97
 242 69 242 69 250 76 c 0,98,99
 262 85 262 85 270 102 c 0,100,101
 290 144 290 144 287 191 c 0,102,103
 287 196 287 196 286 201 c 0,104,105
 281 229 281 229 272 250 c 0,106,107
 253 295 253 295 195 293 c 1,108,109
 133 287 133 287 104 239 c 1,88,89
EndSplineSet
EndChar
StartChar: TamlHA
Encoding: 3001 3001 36
Width: 1398
GlyphClass: 2
Flags: W
Fore
1178 608 m 0,0,1
 1348 608 1348 608 1348 434 c 2,2,-1
 1348 113 l 2,3,4
 1348 -4 1348 -4 1282 -80 c 0,5,6
 1218 -155 1218 -155 1042 -155 c 2,7,-1
 230 -156 l 2,8,9
 167 -156 167 -156 167 -243 c 1,10,-1
 157 -311 l 1,11,12
 146 -343 146 -343 139 -341 c 0,13,14
 137 -340 137 -340 135 -337 c 0,15,16
 132 -331 132 -331 130 -306 c 0,17,18
 125 -223 125 -223 129 -184 c 0,19,20
 131 -166 131 -166 135 -159 c 0,21,22
 167 -104 167 -104 249 -104 c 2,23,-1
 1049 -102 l 2,24,25
 1154 -102 1154 -102 1214 -51 c 0,26,27
 1270 -4 1270 -4 1270 125 c 2,28,-1
 1270 413 l 2,29,30
 1270 563 1270 563 1176 563 c 0,31,32
 1082 563 1082 563 1079 403 c 1,33,-1
 1057 555 l 1,34,35
 1092 608 1092 608 1178 608 c 0,0,1
759 105 m 2,36,-1
 759 474 l 2,37,38
 759 610 759 610 922 610 c 0,39,40
 1081 610 1081 610 1081 469 c 2,41,-1
 1081 51 l 2,42,43
 1081 0 1081 0 1042 -2 c 1,44,45
 1001 -2 1001 -2 1001 50 c 2,46,-1
 1001 436 l 2,47,48
 1001 556 1001 556 919 557 c 0,49,50
 841 557 841 557 841 437 c 2,51,-1
 841 83 l 1,52,53
 839 52 839 52 827 31 c 0,54,55
 810 -2 810 -2 734 -2 c 2,56,-1
 451 -2 l 1,57,58
 367 0 367 0 388 25 c 1,59,-1
 399 36 l 1,60,61
 498 113 498 113 524 201 c 0,62,63
 545 271 545 271 540 334 c 0,64,65
 539 347 539 347 537 359 c 0,66,67
 529 398 529 398 514 428 c 0,68,69
 454 551 454 551 348 560 c 0,70,71
 300 564 300 564 255 545 c 0,72,73
 232 536 232 536 209 520 c 0,74,75
 176 497 176 497 142 460 c 1,76,77
 86 395 86 395 76 274 c 1,78,79
 112 338 112 338 159 361 c 0,80,81
 189 376 189 376 230 376 c 0,82,83
 275 376 275 376 315 344 c 0,84,85
 372 297 372 297 367 192 c 0,86,87
 366 186 366 186 366 180 c 0,88,89
 364 162 364 162 362 155 c 1,90,91
 353 82 353 82 292 32 c 0,92,93
 247 -4 247 -4 189 -2 c 2,94,-1
 184 -2 l 2,95,96
 77 7 77 7 30 123 c 0,97,98
 -9 217 -9 217 2 303 c 0,99,100
 5 327 5 327 12 350 c 0,101,102
 30 408 30 408 65 456 c 0,103,104
 177 612 177 612 351 612 c 0,105,106
 487 612 487 612 549 535 c 1,107,108
 619 445 619 445 612 325 c 0,109,110
 612 318 612 318 611 311 c 0,111,112
 611 298 611 298 608 285 c 0,113,114
 585 135 585 135 475 49 c 1,115,-1
 722 49 l 2,116,117
 742 49 742 49 754 66 c 0,118,119
 759 74 759 74 759 105 c 2,36,-1
103 236 m 0,120,121
 89 210 89 210 93 181 c 0,122,123
 93 176 93 176 94 172 c 0,124,125
 100 150 100 150 108 134 c 0,126,127
 137 74 137 74 185 63 c 0,128,129
 226 55 226 55 250 74 c 0,130,131
 261 84 261 84 269 100 c 0,132,133
 292 149 292 149 284 200 c 0,134,135
 281 224 281 224 271 248 c 0,136,137
 252 293 252 293 194 291 c 1,138,139
 131 285 131 285 103 236 c 0,120,121
EndSplineSet
EndChar
StartChar: Taml_v_A
Encoding: 3006 3006 37
Width: 594
GlyphClass: 2
Flags: W
Fore
380 108 m 2,0,-1
 380 534 l 2,1,2
 380 542 380 542 395 554 c 1,3,4
 411 564 411 564 416 564 c 2,5,-1
 504 564 l 2,6,7
 522 564 522 564 528 588 c 0,8,9
 534 606 534 606 544 614 c 1,10,-1
 68 615 l 1,11,12
 0 600 0 600 0 514 c 2,13,-1
 0 92 l 2,14,15
 0 1 0 1 73 1 c 0,16,17
 130 1 130 1 153 63 c 0,18,19
 168 107 168 107 163 109 c 0,20,21
 162 109 162 109 159 106 c 2,22,-1
 129 71 l 1,23,-1
 115 68 l 1,24,25
 81 68 81 68 81 106 c 2,26,-1
 81 514 l 1,27,28
 84 564 84 564 106 564 c 2,29,-1
 334 564 l 2,30,31
 319 564 319 564 304 541 c 1,32,33
 299 531 299 531 300 514 c 1,34,-1
 301 92 l 1,35,36
 301 1 301 1 374 1 c 0,37,38
 431 1 431 1 454 63 c 0,39,40
 469 107 469 107 464 109 c 0,41,42
 463 109 463 109 460 106 c 2,43,-1
 430 71 l 1,44,-1
 416 68 l 1,45,46
 380 68 380 68 380 108 c 2,0,-1
EndSplineSet
EndChar
StartChar: Taml_v_I
Encoding: 3007 3007 38
Width: 232
GlyphClass: 2
Flags: W
Fore
-485 614 m 1,0,1
 -543 673 -543 673 -531 745 c 0,2,3
 -529 756 -529 756 -525 768 c 0,4,5
 -510 816 -510 816 -436 872 c 0,6,7
 -371 922 -371 922 -233 928 c 0,8,9
 -134 932 -134 932 -64 899 c 0,10,11
 -28 883 -28 883 0 857 c 0,12,13
 79 785 79 785 79 584 c 2,14,-1
 79 105 l 2,15,16
 79 67 79 67 114 67 c 1,17,-1
 128 70 l 1,18,-1
 158 105 l 1,19,20
 167 114 167 114 162 93 c 0,21,22
 159 82 159 82 152 62 c 0,23,24
 129 0 129 0 72 0 c 0,25,26
 -1 0 -1 0 -1 91 c 2,27,-1
 -1 574 l 2,28,29
 -1 708 -1 708 -43 777 c 0,30,31
 -102 872 -102 872 -218 872 c 0,32,33
 -340 873 -340 873 -393 813 c 1,34,-1
 -411 789 l 1,35,36
 -424 766 -424 766 -430 737 c 0,37,38
 -443 677 -443 677 -416 643 c 0,39,40
 -403 625 -403 625 -378 614 c 1,41,-1
 -485 614 l 1,0,1
EndSplineSet
EndChar
StartChar: Taml_v_II
Encoding: 3008 3008 39
Width: 189
GlyphClass: 2
Flags: W
Fore
-270 550 m 0,0,1
 -273 485 -273 485 -250 452 c 0,2,3
 -237 435 -237 435 -218 427 c 1,4,-1
 -326 427 l 1,5,6
 -385 488 -385 488 -372 558 c 0,7,8
 -370 570 -370 570 -366 581 c 0,9,10
 -346 637 -346 637 -278 689 c 0,11,12
 -212 738 -212 738 -74 740 c 0,13,14
 1 742 1 742 45 721 c 0,15,16
 66 711 66 711 80 696 c 0,17,18
 114 661 114 661 111 614 c 0,19,20
 111 611 111 611 111 609 c 1,21,-1
 110 601 l 1,22,-1
 110 600 l 1,23,24
 97 528 97 528 47 508 c 0,25,26
 -12 484 -12 484 -61 493 c 0,27,28
 -86 498 -86 498 -109 511 c 0,29,30
 -158 540 -158 540 -158 601 c 0,31,32
 -158 648 -158 648 -102 707 c 1,33,-1
 -32 713 l 1,34,35
 -94 675 -94 675 -94 624 c 0,36,37
 -95 568 -95 568 -65 550 c 0,38,39
 -50 540 -50 540 -27 541 c 0,40,41
 46 541 46 541 40 608 c 0,42,43
 40 612 40 612 39 616 c 1,44,-1
 36 634 l 1,45,46
 20 698 20 698 -66 698 c 0,47,48
 -140 698 -140 698 -208 651 c 0,49,50
 -267 609 -267 609 -270 550 c 0,0,1
EndSplineSet
EndChar
StartChar: Taml_v_U
Encoding: 3009 3009 40
Width: 531
GlyphClass: 2
Flags: W
Fore
186 340 m 1,0,-1
 397 340 l 1,1,-1
 397 523 l 2,2,3
 397 561 397 561 370 573 c 1,4,-1
 158 573 l 1,5,6
 186 567 186 567 186 523 c 2,7,-1
 186 340 l 1,0,-1
-281 573 m 1,8,9
 -262 574 -262 574 -258 598 c 0,10,11
 -254 625 -254 625 -243 625 c 2,12,-1
 406 625 l 2,13,14
 478 625 478 625 478 523 c 2,15,-1
 478 371 l 1,16,17
 473 319 473 319 459 305 c 0,18,19
 427 273 427 273 381 273 c 2,20,-1
 199 274 l 2,21,22
 146 274 146 274 125 297 c 0,23,24
 105 317 105 317 105 371 c 2,25,-1
 105 523 l 1,26,27
 106 550 106 550 92 563 c 0,28,29
 84 570 84 570 73 573 c 1,30,-1
 -281 573 l 1,8,9
EndSplineSet
EndChar
StartChar: Taml_v_UU
Encoding: 3010 3010 41
Width: 790
GlyphClass: 2
Flags: W
Fore
41 489 m 1,0,1
 45 591 45 591 80 647 c 0,2,3
 127 721 127 721 193 748 c 0,4,5
 266 778 266 778 355 776 c 0,6,7
 361 776 l 2,8,-1
 371 776 l 2,9,10
 511 770 511 770 596 694 c 0,11,12
 669 629 669 629 694 508 c 0,13,14
 717 398 717 398 713 310 c 0,15,16
 713 301 713 301 712 291 c 0,17,18
 707 244 707 244 698 215 c 1,19,20
 658 66 658 66 551 -20 c 0,21,22
 449 -103 449 -103 297 -109 c 0,23,24
 236 -111 236 -111 183 -101 c 0,25,26
 158 -96 158 -96 135 -89 c 0,27,28
 97 -78 97 -78 70 -61 c 1,29,30
 7 -26 7 -26 -25 12 c 0,31,32
 -44 34 -44 34 -59 87 c 0,33,34
 -66 114 -66 114 -53 111 c 0,35,36
 -40 108 -40 108 -23 80 c 0,37,38
 14 21 14 21 78 -14 c 0,39,40
 166 -63 166 -63 258 -59 c 0,41,42
 262 -58 262 -58 267 -58 c 0,43,44
 277 -58 277 -58 283 -57 c 0,45,46
 481 -36 481 -36 571 115 c 0,47,48
 634 220 634 220 619 393 c 0,49,50
 617 423 617 423 612 455 c 0,51,52
 597 561 597 561 551 614 c 1,53,54
 466 717 466 717 356 717 c 0,55,56
 266 717 266 717 197 662 c 0,57,58
 117 599 117 599 122 498 c 0,59,60
 123 493 123 493 123 489 c 1,61,-1
 41 489 l 1,0,1
122 223 m 1,62,-1
 333 223 l 1,63,-1
 333 407 l 2,64,65
 333 445 333 445 305 457 c 1,66,-1
 124 457 l 1,67,68
 122 449 122 449 122 407 c 2,69,-1
 122 223 l 1,62,-1
-251 457 m 2,70,71
 -233 457 -233 457 -228 481 c 0,72,73
 -224 508 -224 508 -213 508 c 2,74,-1
 341 508 l 2,75,76
 414 508 414 508 414 407 c 2,77,-1
 414 254 l 1,78,79
 410 205 410 205 394 188 c 0,80,81
 363 157 363 157 316 157 c 2,82,-1
 134 158 l 2,83,84
 82 158 82 158 60 180 c 0,85,86
 40 201 40 201 41 254 c 1,87,-1
 41 407 l 1,88,-1
 42 457 l 1,89,-1
 -251 457 l 2,70,71
EndSplineSet
EndChar
StartChar: Taml_v_E
Encoding: 3014 3014 42
Width: 907
GlyphClass: 2
Flags: W
Fore
483 104 m 0,0,1
 509 134 509 134 508 201 c 1,2,-1
 508 205 l 1,3,4
 506 285 506 285 471 322 c 0,5,6
 447 347 447 347 421 343 c 0,7,8
 418 342 418 342 414 341 c 0,9,10
 400 336 400 336 389 326 c 0,11,12
 354 295 354 295 354 219 c 1,13,14
 357 102 357 102 422 78 c 0,15,16
 442 71 442 71 463 85 c 0,17,18
 473 92 473 92 483 104 c 0,0,1
59 737 m 0,19,20
 119 835 119 835 216 872 c 1,21,22
 299 907 299 907 414 907 c 0,23,24
 465 907 465 907 539 887 c 0,25,26
 643 857 643 857 683 820 c 0,27,28
 779 733 779 733 779 614 c 1,29,-1
 778 214 l 1,30,31
 778 188 778 188 793 179 c 0,32,33
 800 175 800 175 812 175 c 0,34,35
 845 175 845 175 853 207 c 0,36,37
 854 216 854 216 856 214 c 1,38,39
 859 178 859 178 845 153 c 0,40,41
 838 141 838 141 827 131 c 0,42,43
 802 109 802 109 770 109 c 0,44,45
 733 109 733 109 714 135 c 0,46,47
 700 154 700 154 700 193 c 2,48,-1
 700 614 l 1,49,50
 693 694 693 694 644 746 c 0,51,52
 596 798 596 798 497 830 c 0,53,54
 413 858 413 858 338 845 c 0,55,56
 300 838 300 838 264 821 c 0,57,58
 172 779 172 779 131 705 c 0,59,60
 89 626 89 626 84 485 c 0,61,62
 82 422 82 422 93 361 c 0,63,64
 99 330 99 330 108 300 c 0,65,66
 118 262 118 262 141 211 c 1,67,68
 204 80 204 80 342 59 c 1,69,70
 279 109 279 109 264 213 c 0,71,72
 259 251 259 251 265 280 c 0,73,74
 268 297 268 297 275 312 c 0,75,76
 286 336 286 336 301 352 c 0,77,78
 345 401 345 401 434 399 c 0,79,80
 521 396 521 396 563 342 c 0,81,82
 606 286 606 286 601 198 c 0,83,84
 601 192 601 192 600 186 c 0,85,86
 594 113 594 113 539 61 c 1,87,88
 476 6 476 6 395 0 c 0,89,90
 307 -7 307 -7 246 11 c 0,91,92
 216 20 216 20 193 35 c 0,93,94
 105 90 105 90 45 221 c 0,95,96
 0 320 0 320 0 455 c 0,97,98
 0 639 0 639 59 737 c 0,19,20
EndSplineSet
EndChar
StartChar: Taml_v_EE
Encoding: 3015 3015 43
Width: 656
GlyphClass: 2
Flags: W
Fore
483 804 m 0,0,1
 454 837 454 837 428 832 c 0,2,3
 422 830 l 0,4,5
 357 808 357 808 354 689 c 0,6,7
 354 638 354 638 369 609 c 0,8,9
 377 592 377 592 389 583 c 0,10,11
 418 558 418 558 443 568 c 0,12,13
 458 574 458 574 471 587 c 0,14,15
 506 622 506 622 508 703 c 0,16,17
 509 750 509 750 498 779 c 0,18,19
 492 793 492 793 483 804 c 0,0,1
0 454 m 0,20,21
 0 591 0 591 45 687 c 0,22,23
 96 794 96 794 187 852 c 0,24,25
 277 909 277 909 395 908 c 0,26,27
 506 908 506 908 566 848 c 1,28,29
 606 810 606 810 605 704 c 1,30,-1
 605 700 l 2,31,32
 605 612 605 612 563 566 c 0,33,34
 510 508 510 508 434 509 c 0,35,36
 356 511 356 511 304 573 c 0,37,38
 263 624 263 624 266 694 c 0,39,40
 266 700 l 1,41,-1
 267 712 l 1,42,-1
 267 713 l 1,43,44
 279 813 279 813 342 849 c 1,45,46
 221 831 221 831 141 697 c 0,47,48
 77 591 77 591 79 454 c 0,49,50
 79 451 79 451 79 449 c 0,51,52
 80 334 80 334 142 211 c 0,53,54
 210 78 210 78 343 59 c 1,55,56
 280 109 280 109 265 213 c 0,57,58
 260 251 260 251 267 282 c 0,59,60
 270 298 270 298 276 312 c 0,61,62
 287 336 287 336 302 352 c 0,63,64
 346 401 346 401 435 399 c 0,65,66
 522 396 522 396 564 342 c 0,67,68
 607 286 607 286 602 198 c 0,69,70
 602 192 602 192 601 186 c 0,71,72
 595 111 595 111 540 61 c 0,73,74
 476 4 476 4 396 0 c 0,75,76
 344 -3 344 -3 297 6 c 0,77,78
 275 10 275 10 254 17 c 0,79,80
 219 29 219 29 196 45 c 1,81,82
 103 104 103 104 46 221 c 0,83,84
 2 314 2 314 0 454 c 0,20,21
484 104 m 0,85,86
 510 134 510 134 509 201 c 1,87,-1
 509 205 l 1,88,89
 507 285 507 285 472 322 c 0,90,91
 449 347 449 347 422 343 c 0,92,93
 419 342 419 342 415 341 c 0,94,95
 401 336 401 336 390 326 c 0,96,97
 355 295 355 295 355 219 c 1,98,99
 358 102 358 102 423 78 c 0,100,101
 443 71 443 71 464 85 c 0,102,103
 474 92 474 92 484 104 c 0,85,86
EndSplineSet
EndChar
StartChar: Taml_v_AI
Encoding: 3016 3016 44
Width: 1102
GlyphClass: 2
Flags: W
Fore
837 36 m 0,0,1
 936 128 936 128 962 201 c 0,2,3
 988 276 988 276 983 343 c 0,4,5
 983 351 983 351 982 358 c 0,6,7
 978 391 978 391 965 424 c 0,8,9
 919 537 919 537 785 560 c 0,10,11
 755 566 755 566 724 562 c 0,12,13
 709 559 709 559 693 555 c 0,14,15
 674 550 674 550 645 538 c 1,16,17
 790 445 790 445 790 254 c 0,18,19
 789 105 789 105 699 33 c 1,20,21
 655 -4 655 -4 598 -2 c 2,22,-1
 592 -2 l 2,23,24
 486 7 486 7 439 117 c 1,25,26
 400 214 400 214 412 302 c 0,27,28
 415 325 415 325 421 347 c 0,29,30
 436 402 436 402 472 456 c 0,31,32
 584 623 584 623 774 613 c 0,33,34
 781 613 781 613 788 612 c 0,35,36
 930 600 930 600 989 525 c 0,37,38
 1060 436 1060 436 1052 328 c 0,39,40
 1052 321 1052 321 1051 314 c 1,41,-1
 1046 285 l 1,42,43
 1015 138 1015 138 888 37 c 1,44,45
 843 26 843 26 835 29 c 0,46,47
 831 31 831 31 837 36 c 0,0,1
501 372 m 1,48,49
 447 242 447 242 510 120 c 1,50,51
 542 54 542 54 597 46 c 0,52,53
 631 42 631 42 658 65 c 0,54,55
 671 77 671 77 683 96 c 0,56,57
 716 149 716 149 714 248 c 0,58,59
 714 254 l 2,60,-1
 714 264 l 1,61,62
 708 410 708 410 601 473 c 0,63,64
 580 485 580 485 558 467 c 1,65,-1
 542 449 l 2,66,67
 539 445 539 445 536 440 c 0,68,69
 517 414 517 414 501 372 c 1,48,49
140 460 m 0,70,71
 82 396 82 396 74 295 c 1,72,73
 85 327 85 327 157 361 c 0,74,75
 186 376 186 376 228 376 c 0,76,77
 273 376 273 376 313 344 c 0,78,79
 370 297 370 297 365 192 c 0,80,81
 364 186 364 186 364 180 c 1,82,-1
 361 156 l 1,83,84
 351 83 351 83 290 33 c 0,85,86
 244 -4 244 -4 188 -2 c 2,87,-1
 182 -2 l 2,88,89
 75 7 75 7 28 123 c 0,90,91
 -8 214 -8 214 2 300 c 0,92,93
 5 324 5 324 12 348 c 0,94,95
 29 406 29 406 62 456 c 0,96,97
 169 614 169 614 381 614 c 0,98,99
 489 614 489 614 618 551 c 1,100,-1
 558 506 l 1,101,102
 470 562 470 562 381 562 c 0,103,104
 284 562 284 562 210 517 c 0,105,106
 170 493 170 493 140 460 c 0,70,71
101 237 m 1,107,108
 86 207 86 207 93 172 c 0,109,110
 96 154 96 154 105 134 c 0,111,112
 135 73 135 73 183 63 c 0,113,114
 209 58 209 58 228 64 c 0,115,116
 238 67 238 67 247 74 c 0,117,118
 259 83 259 83 267 100 c 0,119,120
 287 142 287 142 284 189 c 0,121,122
 284 194 284 194 283 199 c 0,123,124
 279 219 279 219 269 248 c 1,125,126
 251 292 251 292 196 291 c 2,127,-1
 191 291 l 2,128,129
 130 285 130 285 101 237 c 1,107,108
EndSplineSet
EndChar
StartChar: Taml_vow_O
Encoding: 3018 3018 45
Width: 1518
GlyphClass: 2
Flags: W
Fore
492 111 m 0,0,1
 518 140 518 140 516 207 c 1,2,-1
 516 211 l 1,3,4
 514 291 514 291 479 328 c 0,5,6
 456 353 456 353 429 349 c 0,7,8
 426 348 426 348 422 347 c 0,9,10
 411 343 411 343 397 332 c 1,11,12
 362 301 362 301 362 225 c 1,13,14
 365 108 365 108 430 84 c 0,15,16
 450 77 450 77 470 91 c 0,17,18
 481 98 481 98 492 111 c 0,0,1
68 743 m 1,19,20
 125 840 125 840 224 879 c 0,21,22
 308 913 308 913 422 913 c 0,23,24
 478 913 478 913 547 893 c 0,25,26
 653 862 653 862 691 826 c 1,27,28
 787 739 787 739 787 621 c 1,29,-1
 786 220 l 1,30,31
 786 194 786 194 801 185 c 1,32,33
 811 181 811 181 820 181 c 0,34,35
 853 181 853 181 861 213 c 0,36,37
 864 222 864 222 864 220 c 0,38,39
 866 197 866 197 861 180 c 0,40,41
 859 169 859 169 854 161 c 0,42,43
 846 148 846 148 836 137 c 1,44,45
 811 115 811 115 778 115 c 0,46,47
 743 115 743 115 722 141 c 0,48,49
 709 158 709 158 709 199 c 2,50,-1
 709 621 l 1,51,52
 700 702 700 702 652 753 c 0,53,54
 604 804 604 804 505 837 c 0,55,56
 421 865 421 865 347 852 c 0,57,58
 308 845 308 845 272 827 c 1,59,60
 180 785 180 785 139 711 c 1,61,62
 96 629 96 629 92 492 c 0,63,64
 89 396 89 396 116 306 c 0,65,66
 131 257 131 257 150 217 c 0,67,68
 212 86 212 86 350 66 c 1,69,70
 287 114 287 114 272 219 c 0,71,72
 264 275 264 275 282 318 c 0,73,74
 292 340 292 340 309 358 c 0,75,76
 353 407 353 407 442 406 c 1,77,78
 529 401 529 401 571 348 c 0,79,80
 614 292 614 292 609 205 c 0,81,82
 609 199 609 199 608 193 c 0,83,84
 602 117 602 117 547 68 c 0,85,86
 486 12 486 12 403 6 c 0,87,88
 315 -1 315 -1 254 17 c 0,89,90
 224 26 224 26 201 41 c 0,91,92
 115 96 115 96 53 227 c 1,93,94
 8 326 8 326 8 461 c 0,95,96
 8 647 8 647 68 743 c 1,19,20
1309 102 m 2,97,-1
 1309 528 l 2,98,99
 1309 537 1309 537 1324 549 c 0,100,101
 1338 559 1338 559 1345 559 c 2,102,-1
 1433 559 l 2,103,104
 1450 559 1450 559 1457 583 c 0,105,106
 1463 599 1463 599 1473 609 c 1,107,-1
 996 610 l 1,108,109
 929 595 929 595 929 509 c 2,110,-1
 929 87 l 2,111,112
 929 -4 929 -4 1001 -4 c 0,113,114
 1058 -4 1058 -4 1081 58 c 0,115,116
 1097 100 1097 100 1092 103 c 0,117,118
 1091 104 1091 104 1087 101 c 1,119,-1
 1058 66 l 1,120,-1
 1043 62 l 1,121,122
 1010 62 1010 62 1010 101 c 2,123,-1
 1010 509 l 1,124,125
 1013 559 1013 559 1035 559 c 2,126,-1
 1263 559 l 1,127,128
 1246 557 1246 557 1233 536 c 0,129,130
 1228 529 1228 529 1229 514 c 0,131,132
 1229 512 1229 512 1229 509 c 1,133,-1
 1230 87 l 1,134,135
 1230 -4 1230 -4 1303 -4 c 0,136,137
 1359 -4 1359 -4 1382 58 c 0,138,139
 1398 100 1398 100 1394 103 c 0,140,141
 1392 104 1392 104 1389 101 c 2,142,-1
 1359 66 l 1,143,-1
 1345 62 l 1,144,145
 1309 62 1309 62 1309 102 c 2,97,-1
EndSplineSet
EndChar
StartChar: Taml_vow_OO
Encoding: 3019 3019 46
Width: 1296
GlyphClass: 2
Flags: W
Fore
481 805 m 0,0,1
 452 838 452 838 426 833 c 0,2,3
 420 831 l 0,4,5
 355 809 355 809 352 690 c 0,6,7
 352 639 352 639 367 610 c 0,8,9
 373 596 373 596 387 584 c 0,10,11
 415 559 415 559 441 569 c 0,12,13
 455 574 455 574 469 588 c 0,14,15
 504 623 504 623 506 705 c 0,16,17
 507 751 507 751 496 779 c 0,18,19
 490 794 490 794 481 805 c 0,0,1
-2 455 m 0,20,21
 -2 592 -2 592 43 688 c 0,22,23
 92 794 92 794 185 853 c 0,24,25
 275 910 275 910 393 909 c 0,26,27
 504 909 504 909 564 849 c 1,28,29
 604 811 604 811 603 705 c 1,30,-1
 603 701 l 1,31,32
 601 613 601 613 561 567 c 0,33,34
 508 508 508 508 432 510 c 0,35,36
 354 512 354 512 302 574 c 1,37,38
 258 629 258 629 264 702 c 0,39,40
 264 708 264 708 265 714 c 0,41,42
 277 814 277 814 340 850 c 1,43,44
 219 832 219 832 139 698 c 0,45,46
 76 593 76 593 77 450 c 0,47,48
 78 335 78 335 140 212 c 0,49,50
 208 79 208 79 341 60 c 1,51,52
 278 110 278 110 263 214 c 0,53,54
 255 270 255 270 273 313 c 0,55,56
 283 335 283 335 300 353 c 0,57,58
 344 402 344 402 433 400 c 0,59,60
 520 397 520 397 562 343 c 0,61,62
 605 287 605 287 600 199 c 0,63,64
 600 193 600 193 599 187 c 0,65,66
 593 114 593 114 538 62 c 1,67,68
 474 6 474 6 394 1 c 0,69,70
 314 -3 314 -3 252 18 c 0,71,72
 221 29 221 29 194 46 c 0,73,74
 101 105 101 105 44 222 c 0,75,76
 0 315 0 315 -2 455 c 0,20,21
482 105 m 0,77,78
 508 135 508 135 507 206 c 0,79,80
 505 286 505 286 470 323 c 0,81,82
 446 348 446 348 420 344 c 0,83,84
 417 343 417 343 413 342 c 0,85,86
 400 338 400 338 388 327 c 0,87,88
 353 295 353 295 353 220 c 1,89,90
 356 103 356 103 421 79 c 0,91,92
 441 72 441 72 462 86 c 0,93,94
 472 93 472 93 482 105 c 0,77,78
1083 108 m 2,95,-1
 1083 534 l 2,96,97
 1083 541 1083 541 1099 554 c 0,98,99
 1113 564 1113 564 1119 564 c 2,100,-1
 1207 564 l 2,101,102
 1224 564 1224 564 1232 588 c 0,103,104
 1237 605 1237 605 1247 614 c 1,105,-1
 771 615 l 1,106,107
 703 600 703 600 703 514 c 2,108,-1
 703 92 l 2,109,110
 703 1 703 1 776 1 c 0,111,112
 833 1 833 1 856 63 c 0,113,114
 872 105 872 105 867 108 c 1,115,-1
 862 106 l 1,116,-1
 833 71 l 1,117,-1
 818 68 l 1,118,119
 784 68 784 68 784 106 c 2,120,-1
 784 514 l 1,121,122
 787 564 787 564 810 564 c 2,123,-1
 1037 564 l 2,124,125
 1022 564 1022 564 1008 541 c 0,126,127
 1003 534 1003 534 1004 519 c 0,128,129
 1004 517 1004 517 1004 514 c 1,130,-1
 1005 92 l 1,131,132
 1005 1 1005 1 1077 1 c 0,133,134
 1134 1 1134 1 1157 63 c 0,135,136
 1173 105 1173 105 1168 108 c 0,137,138
 1167 109 1167 109 1163 106 c 1,139,-1
 1134 71 l 1,140,-1
 1119 68 l 1,141,142
 1083 68 1083 68 1083 108 c 2,95,-1
EndSplineSet
EndChar
StartChar: Taml_AUs
Encoding: 3020 3020 47
Width: 1994
GlyphClass: 2
Flags: W
Fore
498 104 m 0,0,1
 523 133 523 133 522 201 c 1,2,-1
 522 205 l 2,3,4
 522 283 522 283 485 322 c 0,5,6
 462 347 462 347 435 343 c 0,7,8
 432 342 432 342 428 341 c 0,9,10
 417 337 417 337 403 326 c 1,11,12
 368 294 368 294 369 219 c 0,13,14
 370 102 370 102 436 78 c 0,15,16
 456 71 456 71 477 85 c 0,17,18
 487 92 487 92 498 104 c 0,0,1
74 737 m 1,19,20
 132 835 132 835 230 872 c 1,21,22
 313 907 313 907 428 907 c 0,23,24
 479 907 479 907 553 887 c 0,25,26
 659 857 659 857 697 820 c 1,27,28
 794 733 794 733 794 614 c 1,29,-1
 793 214 l 1,30,31
 793 187 793 187 807 179 c 0,32,33
 814 175 814 175 826 175 c 0,34,35
 861 175 861 175 867 207 c 1,36,37
 870 216 870 216 870 214 c 0,38,39
 872 191 872 191 867 174 c 0,40,41
 865 163 865 163 860 155 c 0,42,43
 852 142 852 142 842 131 c 1,44,45
 817 109 817 109 784 109 c 0,46,47
 748 109 748 109 728 135 c 0,48,49
 715 152 715 152 715 193 c 2,50,-1
 715 614 l 1,51,52
 706 697 706 697 658 746 c 1,53,54
 610 798 610 798 511 830 c 0,55,56
 427 858 427 858 353 845 c 0,57,58
 315 838 315 838 279 821 c 0,59,60
 186 780 186 780 145 705 c 0,61,62
 102 623 102 623 98 485 c 0,63,64
 96 422 96 422 107 361 c 0,65,66
 113 330 113 330 122 300 c 0,67,68
 137 251 137 251 156 211 c 0,69,70
 218 80 218 80 356 59 c 1,71,72
 292 109 292 109 279 213 c 1,73,74
 270 270 270 270 290 313 c 0,75,76
 299 335 299 335 315 352 c 0,77,78
 359 401 359 401 449 399 c 0,79,80
 536 396 536 396 578 342 c 0,81,82
 623 284 623 284 614 186 c 0,83,84
 608 111 608 111 553 61 c 0,85,86
 492 6 492 6 410 0 c 0,87,88
 322 -7 322 -7 261 11 c 0,89,90
 231 20 231 20 207 35 c 0,91,92
 121 90 121 90 59 221 c 1,93,94
 14 320 14 320 14 455 c 0,95,96
 14 640 14 640 74 737 c 1,19,20
1794 122 m 1,97,98
 1794 68 1794 68 1831 68 c 1,99,-1
 1845 71 l 1,100,-1
 1875 106 l 1,101,102
 1884 115 1884 115 1879 94 c 0,103,104
 1876 83 1876 83 1869 63 c 0,105,106
 1846 1 1846 1 1789 1 c 0,107,108
 1716 1 1716 1 1716 91 c 2,109,-1
 1716 514 l 1,110,-1
 1717 535 l 1,111,-1
 1720 541 l 1,112,113
 1735 564 1735 564 1750 564 c 2,114,-1
 1594 564 l 2,115,116
 1497 564 1497 564 1497 442 c 2,117,-1
 1497 106 l 2,118,119
 1497 68 1497 68 1531 68 c 1,120,-1
 1545 71 l 1,121,-1
 1575 106 l 1,122,123
 1584 115 1584 115 1579 94 c 0,124,125
 1576 83 1576 83 1569 63 c 0,126,127
 1546 1 1546 1 1489 1 c 0,128,129
 1416 1 1416 1 1416 92 c 1,130,-1
 1418 446 l 1,131,132
 1418 522 1418 522 1367 549 c 0,133,134
 1339 563 1339 563 1300 563 c 0,135,136
 1251 564 1251 564 1206 545 c 0,137,138
 1183 535 1183 535 1160 520 c 0,139,140
 1126 497 1126 497 1095 463 c 0,141,142
 1037 401 1037 401 1028 298 c 1,143,144
 1039 329 1039 329 1111 365 c 1,145,146
 1142 379 1142 379 1182 379 c 0,147,148
 1228 379 1228 379 1268 347 c 0,149,150
 1325 299 1325 299 1319 196 c 0,151,152
 1319 190 1319 190 1318 183 c 0,153,154
 1316 167 1316 167 1315 158 c 0,155,156
 1305 83 1305 83 1244 35 c 1,157,158
 1203 1 1203 1 1142 1 c 2,159,-1
 1137 1 l 2,160,161
 1029 10 1029 10 982 126 c 0,162,163
 944 218 944 218 955 305 c 0,164,165
 958 329 958 329 965 353 c 0,166,167
 981 410 981 410 1017 459 c 0,168,169
 1128 615 1128 615 1304 615 c 0,170,171
 1383 615 1383 615 1425 582 c 0,172,173
 1447 564 1447 564 1459 539 c 1,174,175
 1479 582 1479 582 1503 597 c 0,176,177
 1533 615 1533 615 1580 615 c 2,178,-1
 1960 614 l 1,179,180
 1950 605 1950 605 1945 588 c 0,181,182
 1938 564 1938 564 1920 564 c 2,183,-1
 1832 564 l 2,184,185
 1821 564 1821 564 1811 554 c 0,186,187
 1796 539 1796 539 1796 534 c 1,188,-1
 1794 122 l 1,97,98
1056 239 m 0,189,190
 1042 215 1042 215 1045 186 c 0,191,192
 1046 181 1046 181 1047 175 c 0,193,194
 1050 160 1050 160 1060 137 c 0,195,196
 1089 76 1089 76 1138 67 c 0,197,198
 1163 61 1163 61 1183 68 c 0,199,200
 1193 71 1193 71 1201 77 c 0,201,202
 1213 86 1213 86 1222 103 c 1,203,204
 1241 146 1241 146 1237 191 c 0,205,206
 1237 196 1237 196 1236 202 c 0,207,208
 1231 231 1231 231 1224 251 c 1,209,210
 1205 295 1205 295 1150 294 c 2,211,-1
 1146 294 l 2,212,213
 1086 288 1086 288 1056 239 c 0,189,190
EndSplineSet
EndChar
StartChar: Taml_pul
Encoding: 3021 3021 48
Width: 240
GlyphClass: 2
Flags: W
Fore
0 839 m 0,0,1
 0 876 0 876 27 902 c 0,2,3
 53 928 53 928 90 928 c 0,4,5
 126 928 126 928 153 901 c 0,6,7
 179 873 179 873 179 839 c 0,8,9
 179 804 179 804 153 776 c 1,10,11
 125 750 125 750 90 750 c 0,12,13
 53 750 53 750 27 776 c 0,14,15
 0 802 0 802 0 839 c 0,0,1
EndSplineSet
EndChar
StartChar: Taml_AU
Encoding: 3031 3031 49
Width: 1057
GlyphClass: 2
Flags: W
Fore
843 122 m 1,0,1
 843 68 843 68 879 68 c 1,2,-1
 893 71 l 1,3,-1
 923 106 l 1,4,5
 932 115 932 115 926 94 c 0,6,7
 923 83 923 83 916 63 c 0,8,9
 895 1 895 1 837 1 c 0,10,11
 764 1 764 1 764 91 c 2,12,-1
 764 514 l 1,13,-1
 765 535 l 1,14,-1
 768 541 l 1,15,16
 783 564 783 564 798 564 c 2,17,-1
 642 564 l 2,18,19
 545 564 545 564 545 442 c 2,20,-1
 545 106 l 2,21,22
 545 68 545 68 579 68 c 1,23,-1
 593 71 l 1,24,-1
 623 106 l 1,25,26
 632 115 632 115 626 94 c 0,27,28
 623 83 623 83 616 63 c 0,29,30
 595 1 595 1 537 1 c 0,31,32
 465 1 465 1 465 92 c 1,33,-1
 466 446 l 1,34,35
 467 522 467 522 415 549 c 0,36,37
 388 562 388 562 348 563 c 0,38,39
 299 564 299 564 254 545 c 0,40,41
 231 535 231 535 208 520 c 0,42,43
 174 498 174 498 142 463 c 0,44,45
 84 400 84 400 76 298 c 1,46,47
 87 330 87 330 159 365 c 0,48,49
 190 379 190 379 230 379 c 0,50,51
 275 379 275 379 315 347 c 0,52,53
 375 298 375 298 365 185 c 0,54,55
 364 172 364 172 362 158 c 0,56,57
 353 85 353 85 292 35 c 0,58,59
 247 -2 247 -2 190 1 c 0,60,61
 184 1 l 0,62,63
 77 10 77 10 30 126 c 0,64,65
 -8 218 -8 218 3 306 c 0,66,67
 6 330 6 330 12 353 c 0,68,69
 30 411 30 411 65 459 c 0,70,71
 176 615 176 615 351 615 c 0,72,73
 471 615 471 615 507 539 c 1,74,75
 527 582 527 582 551 597 c 0,76,77
 581 615 581 615 628 615 c 2,78,-1
 1008 614 l 1,79,80
 998 606 998 606 992 588 c 0,81,82
 984 564 984 564 968 564 c 2,83,-1
 880 564 l 2,84,85
 869 564 869 564 859 554 c 0,86,87
 844 539 844 539 844 534 c 1,88,-1
 843 122 l 1,0,1
103 240 m 1,89,90
 89 214 89 214 92 185 c 0,91,92
 94 175 l 0,93,94
 100 153 100 153 108 137 c 0,95,96
 137 76 137 76 185 67 c 0,97,98
 226 58 226 58 250 77 c 0,99,100
 261 87 261 87 269 103 c 0,101,102
 292 152 292 152 284 203 c 0,103,104
 281 227 281 227 271 251 c 0,105,106
 252 296 252 296 194 294 c 1,107,108
 132 288 132 288 103 240 c 1,89,90
EndSplineSet
EndChar
StartChar: glyph229
Encoding: 65536 -1 50
Width: 723
GlyphClass: 2
Flags: W
Fore
92 488 m 1,0,1
 -51 497 -51 497 -60 616 c 0,2,3
 -63 654 -63 654 -49 684 c 0,4,5
 -42 699 -42 699 -31 712 c 0,6,7
 1 747 1 747 41 765 c 0,8,9
 97 792 97 792 177 798 c 0,10,11
 292 807 292 807 367 772 c 0,12,13
 404 755 404 755 431 727 c 0,14,15
 500 656 500 656 500 525 c 2,16,-1
 500 -14 l 2,17,18
 500 -53 500 -53 535 -53 c 1,19,-1
 549 -50 l 1,20,-1
 579 -14 l 1,21,22
 588 -5 588 -5 583 -25 c 0,23,24
 580 -37 580 -37 572 -57 c 1,25,26
 551 -120 551 -120 493 -120 c 0,27,28
 420 -120 420 -120 420 -29 c 2,29,-1
 420 516 l 2,30,31
 420 597 420 597 388 647 c 0,32,33
 324 749 324 749 202 743 c 0,34,35
 198 742 198 742 193 742 c 0,36,37
 4 729 4 729 8 626 c 1,38,-1
 9 616 l 1,39,40
 15 573 15 573 40 552 c 1,41,42
 58 539 58 539 120 531 c 1,43,44
 139 523 139 523 136 509 c 1,45,-1
 134 505 l 1,46,47
 124 491 124 491 92 488 c 1,0,1
EndSplineSet
EndChar
StartChar: glyph230
Encoding: 65537 -1 51
Width: 386
GlyphClass: 2
Flags: W
Fore
34 508 m 0,0,1
 40 414 40 414 163 381 c 1,2,-1
 74 381 l 1,3,4
 -53 393 -53 393 -61 539 c 0,5,6
 -63 566 -63 566 -23 605 c 0,7,8
 -3 624 -3 624 27 647 c 0,9,10
 91 696 91 696 230 698 c 0,11,12
 305 700 305 700 349 679 c 0,13,14
 370 669 370 669 384 654 c 0,15,16
 415 620 415 620 415 567 c 1,17,-1
 414 559 l 1,18,-1
 414 558 l 1,19,20
 402 487 402 487 351 466 c 0,21,22
 293 442 293 442 244 451 c 0,23,24
 219 456 219 456 196 469 c 0,25,26
 146 498 146 498 146 559 c 0,27,28
 146 606 146 606 202 665 c 1,29,-1
 272 671 l 1,30,31
 212 634 212 634 210 582 c 0,32,33
 209 526 209 526 239 508 c 0,34,35
 255 498 255 498 278 499 c 0,36,37
 348 499 348 499 344 566 c 0,38,39
 343 570 343 570 343 574 c 1,40,-1
 340 592 l 1,41,42
 324 656 324 656 239 656 c 0,43,44
 164 656 164 656 96 609 c 1,45,46
 32 562 32 562 34 508 c 0,0,1
EndSplineSet
EndChar
StartChar: TamlKA_Taml_pul.half
Encoding: 65538 -1 52
Width: 890
GlyphClass: 3
Flags: W
Fore
435 309 m 1,0,-1
 160 309 l 2,1,2
 110 309 110 309 98 281 c 0,3,4
 86 256 86 256 86 196 c 0,5,6
 86 122 86 122 161 82 c 0,7,8
 210 56 210 56 271 56 c 0,9,10
 353 56 353 56 414 108 c 0,11,12
 435 126 435 126 435 196 c 2,13,-1
 435 309 l 1,0,-1
434 360 m 1,14,-1
 434 513 l 2,15,16
 434 557 434 557 463 563 c 1,17,-1
 251 563 l 1,18,19
 229 558 229 558 223 513 c 1,20,-1
 223 360 l 1,21,-1
 434 360 l 1,14,-1
142 360 m 1,22,-1
 142 513 l 2,23,24
 142 602 142 602 200 614 c 1,25,-1
 744 614 l 2,26,27
 735 614 735 614 729 588 c 0,28,29
 725 564 725 564 707 563 c 2,30,-1
 548 563 l 1,31,32
 514 553 514 553 515 513 c 1,33,-1
 515 360 l 1,34,-1
 653 360 l 2,35,36
 768 360 768 360 810 302 c 0,37,38
 840 262 840 262 840 193 c 0,39,40
 838 67 838 67 741 25 c 1,41,42
 686 -1 686 -1 584 3 c 2,43,-1
 563 4 l 2,44,45
 518 7 518 7 531 18 c 0,46,47
 537 24 537 24 558 31 c 1,48,-1
 627 41 l 1,49,50
 692 47 692 47 721 72 c 1,51,52
 766 108 766 108 767 163 c 0,53,54
 767 228 767 228 745 259 c 1,55,56
 713 309 713 309 614 309 c 2,57,-1
 516 309 l 1,58,-1
 516 176 l 2,59,60
 516 89 516 89 461 49 c 0,61,62
 393 0 393 0 270 0 c 0,63,64
 137 0 137 0 70 55 c 1,65,66
 0 110 0 110 0 213 c 0,67,68
 0 360 0 360 127 360 c 2,69,-1
 142 360 l 1,22,-1
522 839 m 0,70,71
 522 876 522 876 549 902 c 0,72,73
 577 928 577 928 612 928 c 0,74,75
 648 928 648 928 675 901 c 0,76,77
 701 875 701 875 701 839 c 0,78,79
 701 802 701 802 675 776 c 0,80,81
 647 750 647 750 612 750 c 0,82,83
 575 750 575 750 549 776 c 0,84,85
 522 802 522 802 522 839 c 0,70,71
EndSplineSet
LCarets2: 1 0 
Ligature2: "'haln' Halant Forms in Tamil lookup 3 subtable" TamlKA Taml_pul
Ligature2: "'half' Half Forms in Tamil lookup 0 subtable" TamlKA Taml_pul
EndChar
StartChar: TamlNGA_Taml_pul.half
Encoding: 65539 -1 53
Width: 906
GlyphClass: 3
Flags: W
Fore
262 212 m 2,0,-1
 262 513 l 2,1,2
 262 557 262 557 291 563 c 1,3,-1
 109 563 l 1,4,5
 84 557 84 557 81 513 c 1,6,-1
 81 105 l 2,7,8
 81 67 81 67 115 67 c 1,9,-1
 129 70 l 1,10,-1
 159 105 l 1,11,12
 166 111 166 111 165 104 c 1,13,-1
 163 93 l 1,14,-1
 153 62 l 1,15,16
 130 0 130 0 73 0 c 0,17,18
 0 0 0 0 0 91 c 2,19,-1
 0 513 l 2,20,21
 0 602 0 602 57 614 c 1,22,-1
 572 614 l 2,23,24
 561 614 561 614 557 588 c 0,25,26
 553 564 553 564 535 563 c 2,27,-1
 376 563 l 1,28,29
 342 553 342 553 343 513 c 1,30,-1
 343 336 l 1,31,32
 381 418 381 418 423 437 c 0,33,34
 486 467 486 467 538 441 c 0,35,36
 564 429 564 429 588 402 c 0,37,38
 642 341 642 341 633 251 c 0,39,40
 631 233 l 0,41,42
 610 107 610 107 512 51 c 1,43,-1
 737 51 l 2,44,45
 758 51 758 51 769 68 c 0,46,47
 774 76 774 76 774 108 c 2,48,-1
 774 550 l 2,49,50
 774 578 774 578 807 590 c 0,51,52
 839 600 839 600 847 606 c 1,53,54
 854 616 854 616 855 617 c 1,55,-1
 855 109 l 2,56,57
 855 56 855 56 843 33 c 0,58,59
 825 0 825 0 750 0 c 2,60,-1
 267 0 l 2,61,62
 228 0 228 0 231 28 c 0,63,64
 231 31 231 31 232 34 c 0,65,66
 238 52 238 52 281 52 c 0,67,68
 431 52 431 52 451 59 c 1,69,70
 530 92 530 92 554 165 c 0,71,72
 576 231 576 231 562 284 c 0,73,74
 556 311 556 311 540 334 c 0,75,76
 511 376 511 376 461 372 c 0,77,78
 457 372 457 372 453 371 c 0,79,80
 443 369 443 369 437 368 c 0,81,82
 343 343 343 343 343 265 c 2,83,-1
 343 216 l 2,84,85
 343 177 343 177 305 175 c 0,86,87
 277 174 277 174 267 190 c 0,88,89
 262 198 262 198 262 212 c 2,0,-1
594 839 m 0,90,91
 594 876 594 876 621 902 c 0,92,93
 647 928 647 928 684 928 c 0,94,95
 720 928 720 928 746 901 c 0,96,97
 773 874 773 874 773 839 c 0,98,99
 773 803 773 803 746 776 c 0,100,101
 720 750 720 750 684 750 c 0,102,103
 647 750 647 750 621 776 c 0,104,105
 594 802 594 802 594 839 c 0,90,91
EndSplineSet
Ligature2: "'haln' Halant Forms in Tamil lookup 3 subtable" TamlNGA Taml_pul
Ligature2: "'half' Half Forms in Tamil lookup 0 subtable" TamlNGA Taml_pul
EndChar
StartChar: TamlCA_Taml_pul.half
Encoding: 65540 -1 54
Width: 798
GlyphClass: 3
Flags: W
Fore
435 309 m 1,0,-1
 160 309 l 2,1,2
 110 309 110 309 98 281 c 0,3,4
 86 256 86 256 86 196 c 0,5,6
 86 122 86 122 161 82 c 0,7,8
 210 56 210 56 271 56 c 0,9,10
 353 56 353 56 414 108 c 0,11,12
 435 126 435 126 435 196 c 2,13,-1
 435 309 l 1,0,-1
434 360 m 1,14,-1
 434 513 l 2,15,16
 434 557 434 557 463 563 c 1,17,-1
 251 563 l 1,18,19
 229 558 229 558 223 513 c 1,20,-1
 223 360 l 1,21,-1
 434 360 l 1,14,-1
705 309 m 2,22,-1
 516 309 l 1,23,-1
 516 176 l 2,24,25
 516 89 516 89 461 49 c 0,26,27
 393 0 393 0 270 0 c 0,28,29
 137 0 137 0 70 55 c 1,30,31
 0 110 0 110 0 213 c 0,32,33
 0 360 0 360 127 360 c 2,34,-1
 142 360 l 1,35,-1
 142 513 l 2,36,37
 142 602 142 602 200 614 c 1,38,-1
 744 614 l 2,39,40
 735 614 735 614 729 588 c 0,41,42
 725 564 725 564 707 563 c 2,43,-1
 548 563 l 1,44,45
 514 553 514 553 515 513 c 1,46,-1
 515 360 l 1,47,-1
 748 360 l 1,48,49
 738 354 738 354 735 334 c 0,50,51
 731 309 731 309 705 309 c 2,22,-1
461 839 m 0,52,53
 461 876 461 876 487 902 c 0,54,55
 515 928 515 928 551 928 c 0,56,57
 588 928 588 928 613 901 c 1,58,59
 640 874 640 874 640 839 c 0,60,61
 640 803 640 803 613 776 c 0,62,63
 587 750 587 750 551 750 c 0,64,65
 514 750 514 750 487 776 c 0,66,67
 461 802 461 802 461 839 c 0,52,53
EndSplineSet
Ligature2: "'haln' Halant Forms in Tamil lookup 3 subtable" TamlCA Taml_pul
Ligature2: "'half' Half Forms in Tamil lookup 0 subtable" TamlCA Taml_pul
EndChar
StartChar: TamlNYA_Taml_pul.half
Encoding: 65541 -1 55
Width: 1144
GlyphClass: 3
Flags: W
Fore
778 260 m 1,0,1
 882 377 882 377 967 350 c 0,2,3
 1092 311 1092 311 1094 170 c 0,4,5
 1094 40 1094 40 1041 -59 c 0,6,7
 1016 -106 1016 -106 973 -154 c 1,8,9
 831 -304 831 -304 578 -313 c 0,10,11
 472 -317 472 -317 383 -293 c 0,12,13
 338 -280 338 -280 296 -260 c 0,14,15
 234 -230 234 -230 180 -184 c 0,16,17
 2 -30 2 -30 0 184 c 0,18,19
 -1 281 -1 281 22 363 c 0,20,21
 33 404 33 404 50 440 c 0,22,23
 74 495 74 495 115 543 c 1,24,25
 124 556 124 556 133 553 c 0,26,27
 137 551 l 0,28,29
 145 546 145 546 142 538 c 1,30,-1
 137 528 l 1,31,32
 66 427 66 427 66 225 c 0,33,34
 66 89 66 89 139 -20 c 0,35,36
 212 -128 212 -128 319 -188 c 0,37,38
 443 -257 443 -257 563 -259 c 1,39,40
 828 -259 828 -259 936 -103 c 0,41,42
 1010 4 1010 4 1010 121 c 0,43,44
 1009 234 1009 234 932 264 c 0,45,46
 872 287 872 287 826 256 c 0,47,48
 802 240 802 240 782 209 c 1,49,-1
 778 260 l 1,0,1
541 565 m 2,50,51
 438 565 438 565 372 463 c 0,52,53
 331 398 331 398 317 294 c 1,54,55
 337 339 337 339 388 365 c 1,56,57
 419 379 419 379 460 379 c 0,58,59
 505 379 505 379 545 347 c 0,60,61
 602 299 602 299 596 196 c 0,62,63
 596 190 596 190 595 183 c 1,64,-1
 593 159 l 1,65,66
 581 86 581 86 521 36 c 0,67,68
 476 -2 476 -2 419 1 c 0,69,70
 417 1 417 1 414 1 c 0,71,72
 316 10 316 10 275 99 c 0,73,74
 227 206 227 206 239 305 c 0,75,76
 241 324 241 324 245 343 c 0,77,78
 258 403 258 403 294 459 c 1,79,80
 391 616 391 616 553 616 c 2,81,-1
 978 615 l 1,82,83
 968 606 968 606 963 589 c 0,84,85
 956 565 956 565 938 565 c 2,86,-1
 850 565 l 2,87,88
 839 565 839 565 829 555 c 0,89,90
 823 549 823 549 823 535 c 2,91,-1
 823 131 l 2,92,93
 823 81 823 81 855 81 c 0,94,95
 880 81 880 81 889 122 c 0,96,97
 892 137 892 137 892 131 c 0,98,99
 896 62 896 62 868 26 c 0,100,101
 846 -3 846 -3 818 -3 c 0,102,103
 780 -3 780 -3 754 32 c 0,104,105
 734 57 734 57 734 111 c 2,106,-1
 734 520 l 2,107,108
 734 539 734 539 743 548 c 1,109,110
 757 565 757 565 768 565 c 2,111,-1
 541 565 l 2,50,51
333 240 m 0,112,113
 319 214 319 214 322 185 c 0,114,115
 324 175 l 0,116,117
 326 162 326 162 337 137 c 0,118,119
 366 76 366 76 415 67 c 0,120,121
 441 61 441 61 461 68 c 0,122,123
 470 71 470 71 478 77 c 0,124,125
 490 86 490 86 499 103 c 0,126,127
 522 151 522 151 514 202 c 0,128,129
 509 228 509 228 501 251 c 1,130,131
 482 296 482 296 423 294 c 1,132,133
 360 288 360 288 333 240 c 0,112,113
602 839 m 0,134,135
 602 876 602 876 629 902 c 0,136,137
 655 928 655 928 692 928 c 0,138,139
 728 928 728 928 755 901 c 0,140,141
 781 873 781 873 781 839 c 0,142,143
 781 804 781 804 755 776 c 1,144,145
 727 750 727 750 692 750 c 0,146,147
 655 750 655 750 629 776 c 0,148,149
 602 802 602 802 602 839 c 0,134,135
EndSplineSet
Ligature2: "'haln' Halant Forms in Tamil lookup 3 subtable" TamlNYA Taml_pul
Ligature2: "'half' Half Forms in Tamil lookup 0 subtable" TamlNYA Taml_pul
EndChar
StartChar: TamlTTA_Taml_pul.half
Encoding: 65542 -1 56
Width: 775
GlyphClass: 3
Flags: W
Fore
701 26 m 1,0,1
 695 0 695 0 669 0 c 2,2,-1
 104 0 l 2,3,4
 48 0 48 0 25 20 c 0,5,6
 0 41 0 41 0 102 c 2,7,-1
 0 551 l 2,8,9
 0 580 0 580 32 591 c 0,10,11
 64 601 64 601 72 607 c 1,12,13
 80 617 80 617 80 618 c 2,14,-1
 80 110 l 2,15,16
 80 76 80 76 85 68 c 0,17,18
 97 51 97 51 117 51 c 2,19,-1
 724 51 l 1,20,21
 708 47 708 47 701 26 c 1,0,1
328 839 m 0,22,23
 328 876 328 876 354 902 c 0,24,25
 382 928 382 928 418 928 c 0,26,27
 454 928 454 928 480 901 c 0,28,29
 507 874 507 874 507 839 c 0,30,31
 507 803 507 803 480 776 c 0,32,33
 454 750 454 750 418 750 c 0,34,35
 381 750 381 750 354 776 c 0,36,37
 328 802 328 802 328 839 c 0,22,23
EndSplineSet
Ligature2: "'haln' Halant Forms in Tamil lookup 3 subtable" TamlTTA Taml_pul
Ligature2: "'half' Half Forms in Tamil lookup 0 subtable" TamlTTA Taml_pul
EndChar
StartChar: TamlNNA_Taml_pul.half
Encoding: 65543 -1 57
Width: 1616
GlyphClass: 3
Flags: W
Fore
791 562 m 0,0,1
 717 564 717 564 675 552 c 1,2,-1
 650 541 l 2,3,4
 647 540 647 540 645 538 c 1,5,6
 790 445 790 445 790 254 c 0,7,8
 789 105 789 105 699 33 c 1,9,10
 655 -4 655 -4 598 -2 c 2,11,-1
 592 -2 l 2,12,13
 486 7 486 7 439 117 c 1,14,15
 400 214 400 214 412 302 c 0,16,17
 415 325 415 325 421 347 c 0,18,19
 436 402 436 402 472 456 c 0,20,21
 579 614 579 614 791 614 c 0,22,23
 898 614 898 614 1028 551 c 1,24,-1
 966 510 l 1,25,26
 880 559 880 559 791 562 c 0,0,1
906 379 m 0,27,28
 868 296 868 296 885 205 c 0,29,30
 894 155 894 155 916 109 c 0,31,32
 941 56 941 56 996 47 c 0,33,34
 1036 41 1036 41 1065 68 c 0,35,36
 1079 81 1079 81 1093 104 c 1,37,38
 1126 166 1126 166 1119 262 c 0,39,40
 1119 275 1119 275 1117 289 c 0,41,42
 1099 450 1099 450 992 483 c 0,43,44
 970 489 970 489 940 442 c 1,45,-1
 911 389 l 2,46,47
 908 384 908 384 906 379 c 0,27,28
1048 541 m 1,48,49
 1181 457 1181 457 1193 231 c 0,50,51
 1196 173 1196 173 1165 114 c 0,52,53
 1149 85 1149 85 1125 55 c 1,54,55
 1075 -3 1075 -3 1001 -2 c 0,56,57
 901 0 901 0 851 120 c 0,58,59
 803 234 803 234 832 344 c 0,60,61
 847 401 847 401 882 456 c 0,62,63
 979 613 979 613 1141 613 c 2,64,-1
 1566 613 l 1,65,66
 1557 605 1557 605 1550 586 c 1,67,68
 1544 562 1544 562 1526 562 c 2,69,-1
 1438 562 l 2,70,71
 1427 562 1427 562 1417 552 c 0,72,73
 1411 546 1411 546 1411 531 c 2,74,-1
 1411 128 l 2,75,76
 1411 78 1411 78 1443 78 c 0,77,78
 1468 78 1468 78 1477 119 c 0,79,80
 1480 134 1480 134 1480 128 c 0,81,82
 1480 56 1480 56 1456 23 c 1,83,84
 1439 -3 1439 -3 1406 -3 c 0,85,86
 1363 -1 1363 -1 1341 29 c 1,87,88
 1322 52 1322 52 1322 108 c 2,89,-1
 1322 517 l 2,90,91
 1322 535 1322 535 1330 545 c 1,92,93
 1349 562 1349 562 1356 562 c 2,94,-1
 1144 562 l 2,95,96
 1099 562 1099 562 1082 558 c 0,97,98
 1061 554 1061 554 1048 541 c 1,48,49
501 372 m 1,99,100
 447 242 447 242 510 120 c 1,101,102
 542 54 542 54 597 46 c 0,103,104
 631 42 631 42 658 65 c 0,105,106
 671 77 671 77 683 96 c 0,107,108
 716 149 716 149 714 248 c 0,109,110
 714 254 l 2,111,-1
 714 264 l 1,112,113
 708 410 708 410 601 473 c 0,114,115
 580 485 580 485 558 467 c 1,116,-1
 542 449 l 2,117,118
 539 445 539 445 536 440 c 0,119,120
 517 414 517 414 501 372 c 1,99,100
140 460 m 0,121,122
 82 396 82 396 74 295 c 1,123,124
 85 327 85 327 157 361 c 0,125,126
 186 376 186 376 228 376 c 0,127,128
 273 376 273 376 313 344 c 0,129,130
 370 297 370 297 365 192 c 0,131,132
 364 186 364 186 364 180 c 1,133,-1
 361 156 l 1,134,135
 351 83 351 83 290 33 c 0,136,137
 244 -4 244 -4 188 -2 c 2,138,-1
 182 -2 l 2,139,140
 75 7 75 7 28 123 c 0,141,142
 -8 214 -8 214 2 300 c 0,143,144
 5 324 5 324 12 348 c 0,145,146
 29 406 29 406 62 456 c 0,147,148
 169 614 169 614 381 614 c 0,149,150
 489 614 489 614 618 551 c 1,151,-1
 558 506 l 1,152,153
 470 562 470 562 381 562 c 0,154,155
 284 562 284 562 210 517 c 0,156,157
 170 493 170 493 140 460 c 0,121,122
101 237 m 1,158,159
 86 207 86 207 93 172 c 0,160,161
 96 154 96 154 105 134 c 0,162,163
 135 73 135 73 183 63 c 0,164,165
 209 58 209 58 228 64 c 0,166,167
 238 67 238 67 247 74 c 0,168,169
 259 83 259 83 267 100 c 0,170,171
 287 142 287 142 284 189 c 0,172,173
 284 194 284 194 283 199 c 0,174,175
 279 219 279 219 269 248 c 1,176,177
 251 292 251 292 196 291 c 2,178,-1
 191 291 l 2,179,180
 130 285 130 285 101 237 c 1,158,159
689 839 m 0,181,182
 689 876 689 876 716 902 c 0,183,184
 744 928 744 928 779 928 c 0,185,186
 815 928 815 928 842 901 c 0,187,188
 868 873 868 873 868 839 c 0,189,190
 868 804 868 804 842 776 c 1,191,192
 814 750 814 750 779 750 c 0,193,194
 742 750 742 750 716 776 c 0,195,196
 689 802 689 802 689 839 c 0,181,182
EndSplineSet
Ligature2: "'haln' Halant Forms in Tamil lookup 3 subtable" TamlNNA Taml_pul
Ligature2: "'half' Half Forms in Tamil lookup 0 subtable" TamlNNA Taml_pul
EndChar
StartChar: TamlTA_Taml_pul.half
Encoding: 65544 -1 58
Width: 905
GlyphClass: 3
Flags: W
Fore
435 309 m 1,0,-1
 160 309 l 2,1,2
 110 309 110 309 98 281 c 0,3,4
 86 256 86 256 86 196 c 0,5,6
 86 122 86 122 161 82 c 0,7,8
 210 56 210 56 271 56 c 0,9,10
 353 56 353 56 414 108 c 0,11,12
 435 126 435 126 435 196 c 2,13,-1
 435 309 l 1,0,-1
434 360 m 1,14,-1
 434 513 l 2,15,16
 434 557 434 557 463 563 c 1,17,-1
 251 563 l 1,18,19
 229 558 229 558 223 513 c 1,20,-1
 223 360 l 1,21,-1
 434 360 l 1,14,-1
614 309 m 2,22,-1
 516 309 l 1,23,-1
 516 176 l 2,24,25
 516 89 516 89 461 49 c 0,26,27
 393 0 393 0 270 0 c 0,28,29
 137 0 137 0 70 55 c 1,30,31
 0 110 0 110 0 213 c 0,32,33
 0 360 0 360 127 360 c 2,34,-1
 142 360 l 1,35,-1
 142 513 l 2,36,37
 142 602 142 602 200 614 c 1,38,-1
 744 614 l 2,39,40
 735 614 735 614 729 588 c 0,41,42
 725 564 725 564 707 563 c 2,43,-1
 548 563 l 1,44,45
 514 553 514 553 515 513 c 1,46,-1
 515 360 l 1,47,-1
 653 360 l 2,48,49
 764 360 764 360 819 272 c 1,50,51
 855 217 855 217 854 119 c 0,52,53
 852 23 852 23 768 -74 c 1,54,55
 702 -147 702 -147 528 -147 c 2,56,-1
 172 -147 l 2,57,58
 109 -147 109 -147 109 -234 c 1,59,-1
 98 -303 l 1,60,61
 83 -344 83 -344 77 -329 c 0,62,63
 73 -321 73 -321 72 -298 c 0,64,65
 67 -213 67 -213 71 -175 c 0,66,67
 73 -157 73 -157 77 -151 c 0,68,69
 108 -96 108 -96 190 -96 c 2,70,-1
 565 -96 l 2,71,72
 698 -96 698 -96 748 0 c 1,73,74
 788 81 788 81 776 154 c 0,75,76
 772 179 772 179 762 203 c 0,77,78
 716 309 716 309 614 309 c 2,22,-1
389 839 m 0,79,80
 389 876 389 876 416 902 c 0,81,82
 442 928 442 928 479 928 c 0,83,84
 515 928 515 928 542 901 c 0,85,86
 568 873 568 873 568 839 c 0,87,88
 568 804 568 804 542 776 c 1,89,90
 514 750 514 750 479 750 c 0,91,92
 442 750 442 750 416 776 c 0,93,94
 389 802 389 802 389 839 c 0,79,80
EndSplineSet
Ligature2: "'haln' Halant Forms in Tamil lookup 3 subtable" TamlTA Taml_pul
Ligature2: "'half' Half Forms in Tamil lookup 0 subtable" TamlTA Taml_pul
EndChar
StartChar: TamlNA_Taml_pul.half
Encoding: 65545 -1 59
Width: 737
GlyphClass: 3
Flags: W
Fore
527 -58 m 1,0,1
 595 -20 595 -20 607 29 c 0,2,3
 626 100 626 100 613 152 c 0,4,5
 607 175 607 175 593 198 c 0,6,7
 563 243 563 243 507 234 c 0,8,9
 499 233 499 233 490 231 c 0,10,11
 396 207 396 207 396 129 c 2,12,-1
 396 39 l 2,13,14
 396 0 396 0 358 -2 c 0,15,16
 330 -3 330 -3 320 13 c 0,17,18
 315 21 315 21 315 35 c 2,19,-1
 315 513 l 2,20,21
 315 557 315 557 344 563 c 1,22,-1
 162 563 l 1,23,24
 137 557 137 557 134 513 c 1,25,-1
 134 105 l 2,26,27
 134 67 134 67 168 67 c 1,28,-1
 182 70 l 1,29,-1
 212 105 l 2,30,31
 219 112 219 112 218 101 c 0,32,33
 216 91 216 91 206 62 c 0,34,35
 183 0 183 0 126 0 c 0,36,37
 53 0 53 0 53 91 c 2,38,-1
 53 513 l 2,39,40
 53 602 53 602 111 614 c 1,41,-1
 626 614 l 2,42,43
 616 614 616 614 610 588 c 1,44,45
 607 565 607 565 588 563 c 1,46,-1
 429 563 l 1,47,48
 396 552 396 552 396 513 c 2,49,-1
 396 200 l 1,50,51
 434 282 434 282 476 301 c 0,52,53
 539 329 539 329 591 304 c 0,54,55
 617 292 617 292 641 266 c 0,56,57
 694 209 694 209 686 116 c 0,58,59
 685 106 685 106 684 97 c 0,60,61
 669 -17 669 -17 589 -77 c 0,62,63
 512 -134 512 -134 378 -134 c 2,64,-1
 103 -134 l 2,65,66
 40 -134 40 -134 40 -221 c 1,67,-1
 30 -290 l 1,68,69
 17 -324 17 -324 11 -319 c 0,70,71
 5 -315 5 -315 3 -285 c 0,72,73
 -2 -201 -2 -201 2 -162 c 0,74,75
 4 -144 4 -144 8 -137 c 0,76,77
 40 -83 40 -83 122 -83 c 2,78,-1
 384 -83 l 2,79,80
 489 -83 489 -83 527 -58 c 1,0,1
270 839 m 0,81,82
 270 876 270 876 297 902 c 0,83,84
 325 928 325 928 359 928 c 0,85,86
 396 928 396 928 423 901 c 128,-1,87
 450 874 450 874 450 839 c 0,88,89
 450 803 450 803 423 776 c 0,90,91
 395 750 395 750 359 750 c 0,92,93
 323 750 323 750 297 776 c 0,94,95
 270 802 270 802 270 839 c 0,81,82
EndSplineSet
Ligature2: "'haln' Halant Forms in Tamil lookup 3 subtable" TamlNA Taml_pul
Ligature2: "'half' Half Forms in Tamil lookup 0 subtable" TamlNA Taml_pul
EndChar
StartChar: TamlPA_Taml_pul.half
Encoding: 65546 -1 60
Width: 617
GlyphClass: 3
Flags: W
Fore
461 0 m 2,0,-1
 104 0 l 2,1,2
 48 0 48 0 25 20 c 0,3,4
 0 41 0 41 0 102 c 2,5,-1
 0 551 l 2,6,7
 0 580 0 580 32 591 c 0,8,9
 64 601 64 601 72 607 c 1,10,11
 80 617 80 617 80 618 c 2,12,-1
 80 110 l 2,13,14
 80 76 80 76 85 68 c 0,15,16
 97 51 97 51 117 51 c 2,17,-1
 449 51 l 2,18,19
 469 51 469 51 480 68 c 0,20,21
 485 74 485 74 485 108 c 2,22,-1
 485 550 l 2,23,24
 485 578 485 578 518 590 c 0,25,26
 549 600 549 600 558 606 c 1,27,28
 566 616 566 616 566 617 c 2,29,-1
 566 109 l 2,30,31
 566 56 566 56 554 33 c 0,32,33
 536 0 536 0 461 0 c 2,0,-1
216 839 m 0,34,35
 216 876 216 876 243 902 c 0,36,37
 269 928 269 928 305 928 c 0,38,39
 342 928 342 928 369 901 c 0,40,41
 395 873 395 873 395 839 c 0,42,43
 395 804 395 804 369 776 c 1,44,45
 341 750 341 750 305 750 c 0,46,47
 269 750 269 750 243 776 c 0,48,49
 216 802 216 802 216 839 c 0,34,35
EndSplineSet
Ligature2: "'haln' Halant Forms in Tamil lookup 3 subtable" TamlPA Taml_pul
Ligature2: "'half' Half Forms in Tamil lookup 0 subtable" TamlPA Taml_pul
EndChar
StartChar: TamlMA_Taml_pul.half
Encoding: 65547 -1 61
Width: 822
GlyphClass: 3
Flags: W
Fore
535 563 m 0,0,1
 451 563 451 563 451 442 c 1,2,-1
 452 39 l 1,3,-1
 371 39 l 1,4,-1
 371 430 l 2,5,6
 371 614 371 614 535 614 c 0,7,8
 666 614 666 614 727 535 c 0,9,10
 777 471 777 471 771 327 c 0,11,12
 771 316 771 316 770 305 c 0,13,14
 762 172 762 172 698 90 c 1,15,16
 630 0 630 0 539 0 c 2,17,-1
 104 0 l 2,18,19
 48 0 48 0 25 20 c 0,20,21
 0 41 0 41 0 102 c 2,22,-1
 0 551 l 2,23,24
 0 580 0 580 32 591 c 0,25,26
 64 601 64 601 72 607 c 1,27,28
 80 617 80 617 80 618 c 2,29,-1
 80 110 l 2,30,31
 80 76 80 76 85 68 c 0,32,33
 97 51 97 51 117 51 c 2,34,-1
 563 51 l 2,35,36
 614 51 614 51 647 111 c 0,37,38
 698 200 698 200 698 297 c 0,39,40
 698 563 698 563 535 563 c 0,0,1
297 839 m 0,41,42
 297 876 297 876 324 902 c 0,43,44
 350 928 350 928 387 928 c 0,45,46
 423 928 423 928 450 901 c 0,47,48
 476 873 476 873 476 839 c 0,49,50
 476 804 476 804 450 776 c 1,51,52
 422 750 422 750 387 750 c 0,53,54
 350 750 350 750 324 776 c 0,55,56
 297 802 297 802 297 839 c 0,41,42
EndSplineSet
Ligature2: "'haln' Halant Forms in Tamil lookup 3 subtable" TamlMA Taml_pul
Ligature2: "'half' Half Forms in Tamil lookup 0 subtable" TamlMA Taml_pul
EndChar
StartChar: TamlYA_Taml_pul.half
Encoding: 65548 -1 62
Width: 873
GlyphClass: 3
Flags: W
Fore
106 0 m 0,0,1
 0 1 0 1 0 102 c 2,2,-1
 0 551 l 2,3,4
 0 580 0 580 32 591 c 0,5,6
 64 601 64 601 72 607 c 1,7,8
 80 617 80 617 80 618 c 2,9,-1
 80 171 l 2,10,11
 80 68 80 68 146 68 c 0,12,13
 232 68 232 68 285 200 c 0,14,15
 298 234 298 234 318 200 c 1,16,-1
 303 147 l 1,17,18
 236 0 236 0 106 0 c 0,0,1
717 0 m 2,19,-1
 360 0 l 2,20,21
 304 0 304 0 281 20 c 0,22,23
 256 41 256 41 256 102 c 2,24,-1
 256 551 l 2,25,26
 256 580 256 580 288 591 c 0,27,28
 320 601 320 601 328 607 c 1,29,30
 336 617 336 617 336 618 c 2,31,-1
 336 110 l 2,32,33
 336 76 336 76 341 68 c 0,34,35
 353 51 353 51 373 51 c 2,36,-1
 705 51 l 2,37,38
 725 51 725 51 736 68 c 0,39,40
 741 74 741 74 741 108 c 2,41,-1
 741 550 l 2,42,43
 741 578 741 578 774 590 c 0,44,45
 805 600 805 600 814 606 c 1,46,47
 822 616 822 616 822 617 c 2,48,-1
 822 109 l 2,49,50
 822 56 822 56 810 33 c 0,51,52
 792 0 792 0 717 0 c 2,19,-1
348 839 m 0,53,54
 348 876 348 876 375 902 c 0,55,56
 403 928 403 928 438 928 c 0,57,58
 474 928 474 928 501 901 c 0,59,60
 527 873 527 873 527 839 c 0,61,62
 527 804 527 804 501 776 c 1,63,64
 473 750 473 750 438 750 c 0,65,66
 401 750 401 750 375 776 c 0,67,68
 348 802 348 802 348 839 c 0,53,54
EndSplineSet
Ligature2: "'haln' Halant Forms in Tamil lookup 3 subtable" TamlYA Taml_pul
Ligature2: "'half' Half Forms in Tamil lookup 0 subtable" TamlYA Taml_pul
EndChar
StartChar: TamlRA_Taml_pul.half
Encoding: 65549 -1 63
Width: 594
GlyphClass: 3
Flags: W
Fore
380 111 m 2,0,-1
 380 537 l 2,1,2
 380 545 380 545 395 557 c 1,3,4
 411 567 411 567 416 567 c 2,5,-1
 504 567 l 2,6,7
 522 567 522 567 528 591 c 0,8,9
 534 609 534 609 544 617 c 1,10,-1
 68 618 l 1,11,12
 0 603 0 603 0 517 c 2,13,-1
 0 95 l 2,14,15
 0 4 0 4 73 4 c 0,16,17
 130 4 130 4 153 67 c 0,18,19
 168 109 168 109 163 112 c 0,20,21
 162 113 162 113 159 110 c 2,22,-1
 129 74 l 1,23,-1
 115 71 l 1,24,25
 81 71 81 71 81 110 c 2,26,-1
 81 517 l 1,27,28
 84 567 84 567 106 567 c 2,29,-1
 334 567 l 2,30,31
 319 567 319 567 304 544 c 1,32,33
 299 534 299 534 300 517 c 1,34,-1
 301 95 l 1,35,36
 305 2 305 2 374 4 c 0,37,38
 433 6 433 6 454 67 c 0,39,40
 469 109 469 109 464 112 c 0,41,42
 463 113 463 113 460 110 c 2,43,-1
 430 74 l 1,44,-1
 416 71 l 1,45,46
 380 71 380 71 380 111 c 2,0,-1
145 843 m 0,47,48
 145 880 145 880 172 906 c 0,49,50
 200 932 200 932 236 932 c 0,51,52
 271 932 271 932 298 905 c 1,53,54
 325 880 325 880 325 843 c 0,55,56
 325 807 325 807 298 780 c 0,57,58
 272 755 272 755 236 755 c 0,59,60
 198 755 198 755 172 780 c 0,61,62
 145 806 145 806 145 843 c 0,47,48
EndSplineSet
Ligature2: "'haln' Halant Forms in Tamil lookup 3 subtable" TamlRA Taml_pul
Ligature2: "'half' Half Forms in Tamil lookup 0 subtable" TamlRA Taml_pul
EndChar
StartChar: TamlLA_Taml_pul.half
Encoding: 65550 -1 64
Width: 852
GlyphClass: 3
Flags: W
Fore
315 556 m 1,0,1
 210 554 210 554 140 470 c 0,2,3
 87 405 87 405 76 292 c 1,4,5
 87 324 87 324 159 358 c 0,6,7
 189 373 189 373 230 373 c 0,8,9
 275 373 275 373 315 341 c 0,10,11
 372 294 372 294 367 189 c 0,12,13
 366 183 366 183 366 177 c 1,14,-1
 364 153 l 1,15,16
 352 78 352 78 292 30 c 1,17,18
 246 -9 246 -9 191 -6 c 0,19,20
 187 -5 187 -5 184 -5 c 0,21,22
 80 4 80 4 30 120 c 0,23,24
 -10 214 -10 214 2 305 c 0,25,26
 6 332 6 332 14 358 c 0,27,28
 32 421 32 421 73 479 c 1,29,30
 161 610 161 610 340 608 c 0,31,32
 344 608 l 0,33,34
 455 608 455 608 494 525 c 0,35,36
 510 488 510 488 512 384 c 1,37,-1
 513 252 l 1,38,39
 514 50 514 50 631 48 c 0,40,41
 722 48 722 48 721 225 c 1,42,-1
 720 393 l 1,43,44
 718 489 718 489 699 528 c 0,45,46
 687 553 687 553 629 581 c 1,47,-1
 592 590 l 1,48,49
 625 613 625 613 662 611 c 0,50,51
 666 611 l 0,52,53
 739 607 739 607 773 553 c 0,54,55
 799 510 799 510 801 396 c 1,56,-1
 802 270 l 1,57,58
 804 -4 804 -4 613 -3 c 0,59,60
 441 -2 441 -2 438 249 c 1,61,-1
 437 387 l 1,62,63
 437 556 437 556 315 556 c 1,0,1
103 233 m 0,64,65
 90 209 90 209 93 179 c 0,66,67
 93 174 93 174 94 169 c 0,68,69
 99 149 99 149 108 131 c 0,70,71
 137 71 137 71 185 60 c 0,72,73
 211 55 211 55 230 61 c 0,74,75
 240 64 240 64 249 71 c 0,76,77
 261 80 261 80 269 97 c 0,78,79
 289 139 289 139 286 185 c 0,80,81
 286 191 286 191 285 196 c 0,82,83
 280 224 280 224 271 245 c 0,84,85
 252 290 252 290 194 288 c 1,86,87
 131 282 131 282 103 233 c 0,64,65
366 836 m 0,88,89
 366 874 366 874 392 899 c 0,90,91
 420 925 420 925 455 925 c 0,92,93
 491 925 491 925 518 898 c 128,-1,94
 545 871 545 871 545 836 c 0,95,96
 545 800 545 800 518 773 c 0,97,98
 492 748 492 748 455 748 c 0,99,100
 420 748 420 748 392 773 c 0,101,102
 366 798 366 798 366 836 c 0,88,89
EndSplineSet
Ligature2: "'haln' Halant Forms in Tamil lookup 3 subtable" TamlLA Taml_pul
Ligature2: "'half' Half Forms in Tamil lookup 0 subtable" TamlLA Taml_pul
EndChar
StartChar: TamlVA_Taml_pul.half
Encoding: 65551 -1 65
Width: 962
GlyphClass: 3
Flags: W
Fore
348 562 m 0,0,1
 300 566 300 566 255 547 c 0,2,3
 232 538 232 538 209 522 c 0,4,5
 179 503 179 503 142 462 c 1,6,7
 86 397 86 397 76 276 c 1,8,9
 113 342 113 342 159 364 c 0,10,11
 190 378 190 378 229 378 c 0,12,13
 275 378 275 378 315 346 c 0,14,15
 372 299 372 299 367 194 c 0,16,17
 366 188 366 188 366 182 c 0,18,19
 364 166 364 166 362 157 c 0,20,21
 353 84 353 84 292 34 c 0,22,23
 247 -3 247 -3 190 0 c 0,24,25
 184 0 l 0,26,27
 77 9 77 9 30 125 c 0,28,29
 -9 219 -9 219 2 305 c 0,30,31
 5 329 5 329 12 352 c 0,32,33
 30 410 30 410 65 458 c 0,34,35
 176 614 176 614 351 614 c 0,36,37
 487 614 487 614 549 537 c 1,38,39
 619 447 619 447 612 327 c 0,40,41
 612 320 612 320 611 313 c 0,42,43
 611 300 611 300 608 287 c 0,44,45
 585 137 585 137 475 51 c 1,46,-1
 794 51 l 2,47,48
 814 51 814 51 825 68 c 0,49,50
 830 74 830 74 830 108 c 2,51,-1
 830 550 l 2,52,53
 830 578 830 578 863 590 c 0,54,55
 894 600 894 600 903 606 c 1,56,57
 908 611 908 611 911 617 c 1,58,-1
 911 109 l 2,59,60
 911 56 911 56 899 33 c 0,61,62
 881 0 881 0 806 0 c 2,63,-1
 451 0 l 2,64,65
 370 0 370 0 388 26 c 0,66,67
 391 32 391 32 399 38 c 0,68,69
 498 115 498 115 524 203 c 0,70,71
 545 273 545 273 540 336 c 0,72,73
 539 349 539 349 537 361 c 0,74,75
 529 400 529 400 514 430 c 0,76,77
 454 553 454 553 348 562 c 0,0,1
103 238 m 0,78,79
 89 212 89 212 93 183 c 0,80,81
 93 178 93 178 94 174 c 0,82,83
 100 152 100 152 108 136 c 0,84,85
 137 75 137 75 185 66 c 0,86,87
 226 57 226 57 250 76 c 0,88,89
 261 86 261 86 269 102 c 0,90,91
 288 142 288 142 285 189 c 0,92,93
 285 195 285 195 284 201 c 0,94,95
 281 227 281 227 271 250 c 0,96,97
 252 295 252 295 194 293 c 1,98,99
 131 287 131 287 103 238 c 0,78,79
690 839 m 0,100,101
 690 876 690 876 717 902 c 0,102,103
 745 928 745 928 780 928 c 0,104,105
 816 928 816 928 843 901 c 0,106,107
 869 875 869 875 869 839 c 0,108,109
 869 802 869 802 843 776 c 0,110,111
 815 750 815 750 780 750 c 0,112,113
 743 750 743 750 717 776 c 0,114,115
 690 802 690 802 690 839 c 0,100,101
EndSplineSet
Ligature2: "'haln' Halant Forms in Tamil lookup 3 subtable" TamlVA Taml_pul
Ligature2: "'half' Half Forms in Tamil lookup 0 subtable" TamlVA Taml_pul
EndChar
StartChar: TamlLLLA_Taml_pul.half
Encoding: 65552 -1 66
Width: 847
GlyphClass: 3
Flags: W
Fore
475 18 m 1,0,1
 474 -8 474 -8 481 -28 c 0,2,3
 484 -38 484 -38 489 -47 c 0,4,5
 513 -86 513 -86 622 -85 c 2,6,-1
 702 -84 l 2,7,8
 730 -84 730 -84 729 -95 c 0,9,10
 722 -139 722 -139 692 -139 c 2,11,-1
 600 -139 l 2,12,13
 523 -139 523 -139 461 -240 c 0,14,15
 383 -366 383 -366 211 -369 c 0,16,17
 147 -369 147 -369 98 -344 c 1,18,19
 74 -330 74 -330 53 -311 c 0,20,21
 -8 -253 -8 -253 1 -184 c 0,22,23
 2 -177 2 -177 4 -170 c 0,24,25
 19 -102 19 -102 78 -115 c 0,26,27
 88 -117 88 -117 98 -121 c 0,28,29
 126 -132 126 -132 119 -139 c 1,30,31
 71 -160 71 -160 74 -197 c 1,32,33
 91 -317 91 -317 215 -317 c 0,34,35
 301 -318 301 -318 352 -269 c 0,36,37
 377 -244 377 -244 394 -206 c 0,38,39
 431 -124 431 -124 477 -106 c 1,40,41
 400 -83 400 -83 397 -24 c 1,42,-1
 396 17 l 1,43,-1
 396 18 l 1,44,-1
 475 18 l 1,0,1
559 567 m 0,45,46
 475 567 475 567 475 446 c 1,47,-1
 476 43 l 1,48,-1
 395 43 l 1,49,-1
 395 434 l 2,50,51
 395 618 395 618 559 618 c 0,52,53
 697 618 697 618 752 539 c 0,54,55
 803 463 803 463 796 300 c 0,56,57
 796 287 796 287 795 274 c 0,58,59
 789 175 789 175 723 94 c 0,60,61
 650 4 650 4 563 4 c 2,62,-1
 109 4 l 2,63,64
 52 4 52 4 29 25 c 1,65,66
 4 44 4 44 4 106 c 2,67,-1
 4 555 l 2,68,69
 4 584 4 584 36 595 c 0,70,71
 68 605 68 605 76 611 c 1,72,73
 83 620 83 620 84 623 c 1,74,-1
 84 114 l 2,75,76
 84 80 84 80 89 72 c 0,77,78
 101 55 101 55 121 55 c 2,79,-1
 588 55 l 2,80,81
 636 55 636 55 672 115 c 0,82,83
 727 206 727 206 727 289 c 0,84,85
 727 567 727 567 559 567 c 0,45,46
434 843 m 0,86,87
 434 880 434 880 461 906 c 0,88,89
 489 932 489 932 524 932 c 0,90,91
 560 932 560 932 587 905 c 0,92,93
 613 879 613 879 613 843 c 0,94,95
 613 806 613 806 587 780 c 0,96,97
 559 754 559 754 524 754 c 128,-1,98
 489 754 489 754 461 780 c 0,99,100
 434 806 434 806 434 843 c 0,86,87
EndSplineSet
Ligature2: "'haln' Halant Forms in Tamil lookup 3 subtable" TamlLLLA Taml_pul
Ligature2: "'half' Half Forms in Tamil lookup 0 subtable" TamlLLLA Taml_pul
EndChar
StartChar: TamlLLA_Taml_pul.half
Encoding: 65553 -1 67
Width: 1058
GlyphClass: 3
Flags: W
Fore
842 122 m 1,0,1
 842 68 842 68 879 68 c 1,2,-1
 893 71 l 1,3,-1
 923 106 l 1,4,5
 932 115 932 115 926 94 c 0,6,7
 923 83 923 83 916 63 c 0,8,9
 895 1 895 1 837 1 c 0,10,11
 764 1 764 1 764 91 c 2,12,-1
 764 514 l 1,13,-1
 765 535 l 1,14,-1
 768 541 l 1,15,16
 783 564 783 564 798 564 c 2,17,-1
 642 564 l 2,18,19
 545 564 545 564 545 442 c 2,20,-1
 545 106 l 2,21,22
 545 68 545 68 579 68 c 1,23,-1
 593 71 l 1,24,-1
 623 106 l 1,25,26
 632 115 632 115 626 94 c 0,27,28
 623 83 623 83 616 63 c 0,29,30
 595 1 595 1 537 1 c 0,31,32
 464 1 464 1 464 92 c 1,33,-1
 466 446 l 1,34,35
 467 522 467 522 415 549 c 0,36,37
 388 562 388 562 348 563 c 0,38,39
 299 564 299 564 254 545 c 0,40,41
 231 535 231 535 208 520 c 0,42,43
 174 498 174 498 142 463 c 0,44,45
 84 400 84 400 76 298 c 1,46,47
 87 330 87 330 159 365 c 0,48,49
 190 379 190 379 230 379 c 0,50,51
 275 379 275 379 315 347 c 0,52,53
 375 298 375 298 365 185 c 0,54,55
 364 172 364 172 362 158 c 0,56,57
 353 85 353 85 292 35 c 0,58,59
 247 -2 247 -2 190 1 c 0,60,61
 184 1 l 0,62,63
 77 10 77 10 30 126 c 0,64,65
 -9 220 -9 220 2 306 c 0,66,67
 5 330 5 330 12 353 c 0,68,69
 30 411 30 411 65 459 c 0,70,71
 176 615 176 615 351 615 c 0,72,73
 471 615 471 615 507 539 c 1,74,75
 527 582 527 582 551 597 c 0,76,77
 581 615 581 615 628 615 c 2,78,-1
 1008 614 l 1,79,80
 998 606 998 606 992 588 c 0,81,82
 984 564 984 564 968 564 c 2,83,-1
 880 564 l 2,84,85
 869 564 869 564 859 554 c 0,86,87
 844 539 844 539 844 534 c 1,88,-1
 842 122 l 1,0,1
103 240 m 1,89,90
 89 214 89 214 92 185 c 0,91,92
 94 175 l 0,93,94
 100 153 100 153 108 137 c 0,95,96
 137 76 137 76 185 67 c 0,97,98
 226 58 226 58 250 77 c 0,99,100
 261 87 261 87 269 103 c 0,101,102
 292 152 292 152 284 203 c 0,103,104
 281 227 281 227 271 251 c 0,105,106
 252 296 252 296 194 294 c 1,107,108
 132 288 132 288 103 240 c 1,89,90
608 840 m 0,109,110
 608 878 608 878 635 903 c 0,111,112
 663 929 663 929 697 929 c 0,113,114
 734 929 734 929 761 902 c 0,115,116
 787 876 787 876 787 840 c 0,117,118
 787 803 787 803 761 777 c 0,119,120
 735 752 735 752 697 752 c 0,121,122
 661 752 661 752 635 777 c 0,123,124
 608 802 608 802 608 840 c 0,109,110
EndSplineSet
Ligature2: "'haln' Halant Forms in Tamil lookup 3 subtable" TamlLLA Taml_pul
Ligature2: "'half' Half Forms in Tamil lookup 0 subtable" TamlLLA Taml_pul
EndChar
StartChar: TamlRRA_Taml_pul.half
Encoding: 65554 -1 68
Width: 720
GlyphClass: 3
Flags: W
Fore
501 616 m 0,0,1
 668 616 668 616 671 442 c 1,2,-1
 671 121 l 2,3,4
 671 4 671 4 605 -72 c 0,5,6
 542 -145 542 -145 366 -145 c 2,7,-1
 132 -145 l 2,8,9
 69 -145 69 -145 69 -232 c 1,10,-1
 58 -301 l 1,11,12
 46 -336 46 -336 39 -330 c 0,13,14
 38 -329 38 -329 37 -327 c 0,15,16
 32 -319 32 -319 32 -296 c 1,17,18
 27 -212 27 -212 31 -173 c 0,19,20
 33 -155 33 -155 37 -148 c 0,21,22
 68 -94 68 -94 151 -94 c 2,23,-1
 372 -94 l 2,24,25
 474 -94 474 -94 538 -43 c 1,26,27
 593 4 593 4 593 133 c 2,28,-1
 593 421 l 2,29,30
 593 571 593 571 499 571 c 128,-1,31
 405 571 405 571 402 412 c 1,32,-1
 380 563 l 1,33,34
 417 616 417 616 501 616 c 0,0,1
325 58 m 2,35,-1
 325 444 l 2,36,37
 325 565 325 565 242 565 c 0,38,39
 190 565 190 565 172 512 c 1,40,41
 164 483 164 483 164 445 c 2,42,-1
 164 91 l 1,43,44
 165 50 165 50 150 27 c 0,45,46
 143 16 143 16 133 9 c 1,47,-1
 114 0 l 1,48,-1
 92 -2 l 1,49,50
 35 -2 35 -2 12 60 c 0,51,52
 -3 104 -3 104 2 106 c 0,53,54
 3 106 3 106 6 103 c 2,55,-1
 36 68 l 1,56,-1
 50 65 l 1,57,58
 84 65 84 65 84 114 c 1,59,-1
 82 482 l 1,60,61
 81 572 81 572 153 603 c 0,62,63
 190 618 190 618 245 618 c 0,64,65
 404 618 404 618 404 477 c 2,66,-1
 404 59 l 2,67,68
 404 8 404 8 366 6 c 1,69,70
 325 6 325 6 325 58 c 2,35,-1
453 841 m 0,71,72
 453 879 453 879 479 904 c 0,73,74
 507 930 507 930 543 930 c 0,75,76
 578 930 578 930 605 903 c 128,-1,77
 632 876 632 876 632 841 c 0,78,79
 632 805 632 805 605 778 c 0,80,81
 579 752 579 752 543 752 c 0,82,83
 505 752 505 752 479 778 c 0,84,85
 453 803 453 803 453 841 c 0,71,72
EndSplineSet
Ligature2: "'haln' Halant Forms in Tamil lookup 3 subtable" TamlRRA Taml_pul
Ligature2: "'half' Half Forms in Tamil lookup 0 subtable" TamlRRA Taml_pul
EndChar
StartChar: TamlNNNA_Taml_pul.half
Encoding: 65555 -1 69
Width: 1197
GlyphClass: 3
Flags: W
Fore
490 383 m 0,0,1
 456 296 456 296 472 207 c 0,2,3
 480 160 480 160 501 113 c 0,4,5
 525 57 525 57 577 53 c 1,6,7
 618 48 618 48 646 74 c 0,8,9
 662 88 662 88 673 109 c 0,10,11
 705 167 705 167 699 267 c 0,12,13
 698 279 698 279 697 293 c 0,14,15
 690 390 690 390 574 494 c 0,16,17
 544 521 544 521 490 383 c 0,0,1
628 543 m 1,18,19
 775 451 775 451 773 242 c 0,20,21
 773 238 l 2,22,-1
 773 233 l 1,23,24
 772 132 772 132 706 57 c 0,25,26
 654 -1 654 -1 582 0 c 0,27,28
 482 1 482 1 431 122 c 0,29,30
 383 237 383 237 413 348 c 0,31,32
 428 403 428 403 462 458 c 0,33,34
 559 615 559 615 721 615 c 2,35,-1
 1146 615 l 1,36,37
 1137 607 1137 607 1130 588 c 1,38,39
 1124 564 1124 564 1106 564 c 2,40,-1
 1018 564 l 2,41,42
 1007 564 1007 564 997 554 c 0,43,44
 991 548 991 548 991 534 c 2,45,-1
 991 130 l 2,46,47
 991 80 991 80 1023 80 c 0,48,49
 1048 80 1048 80 1057 121 c 0,50,51
 1060 136 1060 136 1060 130 c 0,52,53
 1060 58 1060 58 1036 25 c 0,54,55
 1018 -1 1018 -1 986 -1 c 0,56,57
 944 1 944 1 922 31 c 0,58,59
 902 56 902 56 902 110 c 2,60,-1
 902 519 l 2,61,62
 902 537 902 537 910 547 c 1,63,64
 929 564 929 564 936 564 c 2,65,-1
 724 564 l 2,66,67
 679 564 679 564 663 560 c 0,68,69
 640 556 640 556 628 543 c 1,18,19
140 462 m 0,70,71
 81 397 81 397 74 297 c 1,72,73
 85 329 85 329 157 364 c 0,74,75
 187 378 187 378 228 378 c 0,76,77
 273 378 273 378 313 346 c 0,78,79
 370 299 370 299 365 194 c 0,80,81
 364 188 364 188 364 182 c 1,82,-1
 361 158 l 1,83,84
 351 85 351 85 290 35 c 0,85,86
 244 -2 244 -2 188 0 c 2,87,-1
 182 0 l 2,88,89
 75 9 75 9 28 125 c 0,90,91
 -8 215 -8 215 2 301 c 0,92,93
 5 326 5 326 12 350 c 0,94,95
 29 408 29 408 62 458 c 0,96,97
 168 616 168 616 381 616 c 0,98,99
 489 616 489 616 618 553 c 1,100,-1
 558 510 l 1,101,102
 477 564 477 564 381 564 c 0,103,104
 284 565 284 565 209 520 c 0,105,106
 172 497 172 497 140 462 c 0,70,71
101 239 m 1,107,108
 88 213 88 213 91 184 c 0,109,110
 91 179 91 179 92 174 c 0,111,112
 97 156 97 156 105 136 c 1,113,114
 136 75 136 75 183 66 c 0,115,116
 210 60 210 60 229 66 c 0,117,118
 239 69 239 69 247 76 c 0,119,120
 259 85 259 85 267 102 c 0,121,122
 290 151 290 151 282 202 c 0,123,124
 279 226 279 226 269 250 c 0,125,126
 251 294 251 294 196 293 c 2,127,-1
 191 293 l 2,128,129
 130 287 130 287 101 239 c 1,107,108
720 841 m 0,130,131
 720 878 720 878 746 904 c 0,132,133
 774 930 774 930 810 930 c 0,134,135
 846 930 846 930 872 903 c 0,136,137
 899 876 899 876 899 841 c 0,138,139
 899 805 899 805 872 778 c 0,140,141
 847 753 847 753 810 753 c 0,142,143
 772 753 772 753 746 778 c 0,144,145
 720 804 720 804 720 841 c 0,130,131
EndSplineSet
Ligature2: "'haln' Halant Forms in Tamil lookup 3 subtable" TamlNNNA Taml_pul
Ligature2: "'half' Half Forms in Tamil lookup 0 subtable" TamlNNNA Taml_pul
EndChar
StartChar: TamlTTA_Taml_v_I.abvs
Encoding: 65556 -1 70
Width: 800
GlyphClass: 3
Flags: W
Fore
477 16 m 1,0,1
 370 58 370 58 332 86 c 0,2,3
 261 141 261 141 243 234 c 0,4,5
 236 271 236 271 240 303 c 0,6,7
 242 321 242 321 247 337 c 0,8,9
 253 355 253 355 269 380 c 1,10,11
 313 442 313 442 384 457 c 0,12,13
 432 466 432 466 474 462 c 0,14,15
 494 460 494 460 512 455 c 0,16,17
 538 448 538 448 563 432 c 0,18,19
 625 393 625 393 625 299 c 0,20,21
 625 256 625 256 561 139 c 0,22,23
 508 42 508 42 465 -63 c 2,24,-1
 393 -240 l 2,25,26
 371 -295 371 -295 322 -315 c 0,27,28
 285 -331 285 -331 256 -327 c 0,29,30
 251 -327 251 -327 245 -325 c 0,31,32
 228 -320 228 -320 215 -309 c 1,33,34
 266 -300 266 -300 293 -276 c 1,35,36
 333 -243 333 -243 373 -139 c 1,37,-1
 403 -57 l 1,38,39
 436 24 436 24 502 145 c 0,40,41
 558 250 558 250 547 319 c 0,42,43
 546 329 546 329 543 338 c 0,44,45
 531 375 531 375 498 397 c 0,46,47
 462 422 462 422 399 412 c 0,48,49
 350 403 350 403 322 346 c 0,50,51
 299 301 299 301 306 254 c 0,52,53
 309 239 309 239 314 224 c 0,54,55
 326 192 326 192 351 160 c 1,56,57
 409 81 409 81 475 63 c 1,58,-1
 477 16 l 1,0,1
727 26 m 0,59,60
 721 0 721 0 694 0 c 2,61,-1
 104 0 l 2,62,63
 48 0 48 0 25 20 c 0,64,65
 0 41 0 41 0 102 c 2,66,-1
 0 551 l 2,67,68
 0 580 0 580 32 591 c 0,69,70
 64 601 64 601 72 607 c 1,71,72
 80 617 80 617 80 618 c 2,73,-1
 80 110 l 2,74,75
 80 76 80 76 85 68 c 0,76,77
 97 51 97 51 117 51 c 2,78,-1
 750 51 l 1,79,80
 733 46 733 46 727 26 c 0,59,60
EndSplineSet
Ligature2: "'abvs' Above Base Substitutions in Tamil lookup 1 subtable" TamlTTA Taml_v_I
EndChar
StartChar: TamlTTA_Taml_v_II.abvs
Encoding: 65557 -1 71
Width: 800
GlyphClass: 3
Flags: W
Fore
620 442 m 0,0,1
 596 468 596 468 569 465 c 0,2,3
 566 465 566 465 564 464 c 0,4,5
 507 446 507 446 505 351 c 0,6,7
 504 325 504 325 509 306 c 0,8,9
 512 295 512 295 517 287 c 1,10,-1
 530 270 l 1,11,12
 534 268 534 268 536 266 c 0,13,14
 560 246 560 246 584 254 c 0,15,16
 596 258 596 258 608 269 c 0,17,18
 640 298 640 298 641 362 c 0,19,20
 642 386 642 386 638 405 c 0,21,22
 636 414 636 414 633 422 c 0,23,24
 626 436 626 436 620 442 c 0,0,1
246 180 m 0,25,26
 216 255 216 255 220 311 c 0,27,28
 220 316 220 316 221 321 c 0,29,30
 223 331 223 331 229 349 c 0,31,32
 261 432 261 432 362 489 c 0,33,34
 431 528 431 528 529 526 c 0,35,36
 532 526 532 526 534 526 c 2,37,-1
 541 526 l 2,38,39
 644 523 644 523 693 478 c 1,40,41
 729 447 729 447 728 364 c 0,42,43
 728 360 l 0,44,45
 726 290 726 290 690 253 c 0,46,47
 644 205 644 205 575 207 c 0,48,49
 505 208 505 208 460 258 c 0,50,51
 423 299 423 299 426 354 c 0,52,53
 426 360 l 0,54,55
 426 366 426 366 427 370 c 0,56,57
 439 451 439 451 494 479 c 1,58,59
 369 463 369 463 314 357 c 0,60,61
 297 323 297 323 302 270 c 0,62,63
 303 258 303 258 305 244 c 0,64,65
 311 207 311 207 326 164 c 0,66,67
 362 56 362 56 446 16 c 1,68,-1
 377 20 l 1,69,70
 285 88 285 88 246 180 c 0,25,26
727 26 m 0,71,72
 721 0 721 0 694 0 c 2,73,-1
 104 0 l 2,74,75
 48 0 48 0 25 20 c 0,76,77
 0 41 0 41 0 102 c 2,78,-1
 0 551 l 2,79,80
 0 580 0 580 32 591 c 0,81,82
 64 601 64 601 72 607 c 1,83,84
 80 617 80 617 80 618 c 2,85,-1
 80 110 l 2,86,87
 80 76 80 76 85 68 c 0,88,89
 97 51 97 51 117 51 c 2,90,-1
 750 51 l 1,91,92
 733 46 733 46 727 26 c 0,71,72
EndSplineSet
Ligature2: "'abvs' Above Base Substitutions in Tamil lookup 1 subtable" TamlTTA Taml_v_II
EndChar
StartChar: TamlKA_Taml_v_U.psts
Encoding: 65558 -1 72
Width: 1128
GlyphClass: 3
Flags: W
Fore
658 309 m 1,0,-1
 383 309 l 2,1,2
 334 309 334 309 322 281 c 1,3,4
 309 256 309 256 309 196 c 0,5,6
 309 122 309 122 384 82 c 0,7,8
 433 56 433 56 495 56 c 0,9,10
 576 56 576 56 637 108 c 0,11,12
 658 126 658 126 658 196 c 2,13,-1
 658 309 l 1,0,-1
657 360 m 1,14,-1
 657 513 l 2,15,16
 657 557 657 557 686 563 c 1,17,-1
 474 563 l 1,18,19
 453 559 453 559 446 513 c 1,20,-1
 446 360 l 1,21,-1
 657 360 l 1,14,-1
936 -103 m 0,22,23
 1013 8 1013 8 995 149 c 0,24,25
 992 176 992 176 985 203 c 0,26,27
 960 309 960 309 838 309 c 2,28,-1
 739 309 l 1,29,-1
 739 176 l 2,30,31
 739 89 739 89 684 49 c 0,32,33
 616 0 616 0 494 0 c 0,34,35
 361 0 361 0 293 55 c 0,36,37
 223 110 223 110 223 213 c 0,38,39
 223 360 223 360 350 360 c 2,40,-1
 366 360 l 1,41,-1
 366 513 l 2,42,43
 366 602 366 602 423 614 c 1,44,-1
 968 614 l 2,45,46
 958 614 958 614 952 588 c 1,47,48
 949 565 949 565 930 563 c 1,49,-1
 771 563 l 1,50,51
 738 552 738 552 738 513 c 2,52,-1
 738 360 l 1,53,-1
 877 360 l 2,54,55
 987 360 987 360 1042 272 c 1,56,57
 1078 217 1078 217 1077 119 c 0,58,59
 1074 -45 1074 -45 971 -156 c 0,60,61
 832 -304 832 -304 578 -313 c 0,62,63
 419 -319 419 -319 296 -260 c 0,64,65
 234 -230 234 -230 180 -184 c 0,66,67
 0 -30 0 -30 0 184 c 0,68,69
 -1 344 -1 344 50 449 c 0,70,71
 76 503 76 503 115 543 c 0,72,73
 127 555 127 555 137 551 c 1,74,75
 145 546 145 546 142 538 c 1,76,-1
 137 528 l 1,77,78
 66 427 66 427 66 225 c 0,79,80
 66 89 66 89 139 -20 c 0,81,82
 212 -128 212 -128 319 -188 c 0,83,84
 443 -257 443 -257 563 -259 c 1,85,86
 828 -259 828 -259 936 -103 c 0,22,23
EndSplineSet
Ligature2: "'psts' Post Base Substitutions in Tamil lookup 2 subtable" TamlKA Taml_v_U
EndChar
StartChar: TamlNGA_Taml_v_U.psts
Encoding: 65559 -1 73
Width: 960
GlyphClass: 3
Flags: W
Fore
855 138 m 1,0,-1
 855 -150 l 2,1,2
 855 -185 855 -185 878 -185 c 0,3,4
 902 -185 902 -185 907 -156 c 0,5,6
 909 -150 l 1,7,8
 911 -171 911 -171 908 -188 c 0,9,10
 906 -198 906 -198 902 -206 c 1,11,-1
 891 -224 l 1,12,-1
 889 -226 l 2,13,14
 870 -248 870 -248 846 -248 c 0,15,16
 810 -248 810 -248 790 -221 c 0,17,18
 776 -204 776 -204 776 -164 c 2,19,-1
 776 138 l 1,20,-1
 855 138 l 1,0,-1
774 108 m 2,21,-1
 774 550 l 2,22,23
 774 578 774 578 807 590 c 0,24,25
 839 600 839 600 847 606 c 1,26,27
 854 616 854 616 855 617 c 1,28,-1
 855 109 l 2,29,30
 855 56 855 56 843 33 c 0,31,32
 825 0 825 0 729 0 c 2,33,-1
 267 0 l 2,34,35
 228 0 228 0 231 28 c 0,36,37
 231 31 231 31 232 34 c 0,38,39
 238 52 238 52 281 52 c 0,40,41
 380 52 380 52 422 55 c 0,42,43
 445 57 445 57 451 59 c 0,44,45
 530 92 530 92 554 165 c 0,46,47
 576 231 576 231 562 284 c 0,48,49
 556 311 556 311 540 334 c 0,50,51
 511 376 511 376 461 372 c 0,52,53
 457 372 457 372 453 371 c 0,54,55
 443 369 443 369 437 368 c 0,56,57
 343 343 343 343 343 265 c 2,58,-1
 343 216 l 2,59,60
 343 177 343 177 305 175 c 0,61,62
 277 174 277 174 267 190 c 0,63,64
 262 198 262 198 262 212 c 2,65,-1
 262 513 l 2,66,67
 262 557 262 557 291 563 c 1,68,-1
 109 563 l 1,69,70
 84 557 84 557 81 513 c 1,71,-1
 81 105 l 2,72,73
 81 67 81 67 115 67 c 1,74,-1
 129 70 l 1,75,-1
 159 105 l 1,76,77
 168 114 168 114 163 93 c 0,78,79
 160 82 160 82 153 62 c 0,80,81
 130 0 130 0 73 0 c 0,82,83
 0 0 0 0 0 91 c 2,84,-1
 0 513 l 2,85,86
 0 602 0 602 57 614 c 1,87,-1
 572 614 l 2,88,89
 561 614 561 614 557 588 c 0,90,91
 553 564 553 564 535 563 c 2,92,-1
 376 563 l 1,93,94
 342 553 342 553 343 513 c 1,95,-1
 343 336 l 1,96,97
 381 418 381 418 423 437 c 0,98,99
 486 467 486 467 538 441 c 0,100,101
 564 429 564 429 588 402 c 0,102,103
 642 341 642 341 633 251 c 0,104,105
 631 233 l 0,106,107
 610 107 610 107 512 51 c 1,108,-1
 737 51 l 2,109,110
 759 51 759 51 768 66 c 0,111,112
 774 75 774 75 774 108 c 2,21,-1
EndSplineSet
Ligature2: "'psts' Post Base Substitutions in Tamil lookup 2 subtable" TamlNGA Taml_v_U
EndChar
StartChar: TamlCA_Taml_v_U.psts
Encoding: 65560 -1 74
Width: 829
GlyphClass: 3
Flags: W
Fore
646 313 m 2,0,-1
 716 313 l 2,1,2
 708 313 708 313 703 309 c 0,3,4
 702 308 702 308 698 303 c 0,5,6
 696 300 696 300 694 284 c 1,7,-1
 694 98 l 2,8,9
 694 62 694 62 717 62 c 0,10,11
 742 62 742 62 746 92 c 1,12,13
 749 101 749 101 749 98 c 0,14,15
 751 66 751 66 741 44 c 0,16,17
 736 32 736 32 728 23 c 0,18,19
 708 0 708 0 685 0 c 0,20,21
 648 0 648 0 629 27 c 1,22,23
 615 44 615 44 615 84 c 2,24,-1
 615 274 l 2,25,26
 615 292 615 292 624 301 c 0,27,28
 636 313 636 313 646 313 c 2,0,-1
435 309 m 1,29,-1
 160 309 l 2,30,31
 110 309 110 309 98 281 c 0,32,33
 86 256 86 256 86 196 c 0,34,35
 86 122 86 122 161 82 c 0,36,37
 210 56 210 56 271 56 c 0,38,39
 353 56 353 56 414 108 c 0,40,41
 435 126 435 126 435 196 c 2,42,-1
 435 309 l 1,29,-1
434 360 m 1,43,-1
 434 513 l 2,44,45
 434 557 434 557 463 563 c 1,46,-1
 251 563 l 1,47,48
 229 558 229 558 223 513 c 1,49,-1
 223 360 l 1,50,-1
 434 360 l 1,43,-1
735 309 m 2,51,-1
 516 309 l 1,52,-1
 516 176 l 2,53,54
 516 89 516 89 461 49 c 0,55,56
 393 0 393 0 270 0 c 0,57,58
 137 0 137 0 70 55 c 1,59,60
 0 110 0 110 0 213 c 0,61,62
 0 360 0 360 127 360 c 2,63,-1
 142 360 l 1,64,-1
 142 513 l 2,65,66
 142 602 142 602 200 614 c 1,67,-1
 724 614 l 2,68,69
 713 614 713 614 709 588 c 0,70,71
 705 565 705 565 686 563 c 1,72,-1
 548 563 l 1,73,74
 514 553 514 553 515 513 c 1,75,-1
 515 360 l 1,76,-1
 778 360 l 1,77,78
 769 354 769 354 766 334 c 0,79,80
 762 309 762 309 735 309 c 2,51,-1
EndSplineSet
Ligature2: "'psts' Post Base Substitutions in Tamil lookup 2 subtable" TamlCA Taml_v_U
EndChar
StartChar: TamlNYA_Taml_v_U.psts
Encoding: 65561 -1 75
Width: 1121
GlyphClass: 3
Flags: W
Fore
184 -255 m 0,0,1
 280 -286 280 -286 398 -286 c 0,2,3
 665 -286 665 -286 771 -126 c 0,4,5
 819 -53 819 -53 813 54 c 0,6,7
 812 63 812 63 811 73 c 0,8,9
 810 86 810 86 804 119 c 0,10,11
 782 232 782 232 695 262 c 0,12,13
 654 276 654 276 619 266 c 1,14,-1
 594 256 l 1,15,-1
 588 252 l 2,16,17
 566 236 566 236 546 207 c 1,18,-1
 542 258 l 1,19,20
 624 352 624 352 720 348 c 0,21,22
 724 348 l 2,23,-1
 730 348 l 2,24,25
 862 338 862 338 888 168 c 0,26,27
 907 34 907 34 865 -74 c 0,28,29
 844 -128 844 -128 808 -176 c 0,30,31
 683 -337 683 -337 413 -336 c 0,32,33
 205 -334 205 -334 123 -297 c 0,34,35
 4 -242 4 -242 7 -156 c 1,36,-1
 7 -151 l 1,37,38
 13 -96 13 -96 140 -96 c 2,39,-1
 952 -97 l 2,40,41
 971 -97 971 -97 983 -79 c 0,42,43
 989 -70 989 -70 989 -41 c 2,44,-1
 989 546 l 2,45,46
 989 574 989 574 1022 586 c 0,47,48
 1054 596 1054 596 1062 602 c 1,49,50
 1070 612 1070 612 1070 613 c 2,51,-1
 1070 -40 l 2,52,53
 1070 -94 1070 -94 1058 -116 c 0,54,55
 1041 -148 1041 -148 965 -148 c 2,56,-1
 179 -148 l 2,57,58
 100 -148 100 -148 100 -187 c 1,59,60
 103 -228 103 -228 184 -255 c 0,0,1
304 563 m 2,61,62
 202 563 202 563 135 461 c 0,63,64
 93 395 93 395 81 292 c 1,65,66
 102 338 102 338 152 362 c 1,67,68
 180 377 180 377 223 377 c 0,69,70
 268 377 268 377 308 345 c 0,71,72
 365 298 365 298 359 194 c 0,73,74
 359 188 359 188 358 181 c 1,75,-1
 356 157 l 1,76,77
 346 84 346 84 285 34 c 0,78,79
 239 -3 239 -3 183 -1 c 2,80,-1
 177 -1 l 2,81,82
 80 8 80 8 39 97 c 0,83,84
 -48 289 -48 289 57 457 c 0,85,86
 156 614 156 614 316 614 c 2,87,-1
 741 613 l 1,88,89
 730 602 730 602 726 587 c 0,90,91
 720 563 720 563 701 563 c 2,92,-1
 613 563 l 2,93,94
 603 563 603 563 593 553 c 0,95,96
 587 547 587 547 587 532 c 2,97,-1
 587 129 l 2,98,99
 587 79 587 79 618 79 c 0,100,101
 644 79 644 79 652 120 c 0,102,103
 655 135 655 135 655 129 c 0,104,105
 658 83 658 83 647 52 c 0,106,107
 641 36 641 36 632 24 c 0,108,109
 610 -5 610 -5 582 -5 c 0,110,111
 543 -5 543 -5 517 30 c 1,112,113
 498 53 498 53 498 109 c 2,114,-1
 498 518 l 2,115,116
 498 537 498 537 507 546 c 1,117,118
 521 563 521 563 531 563 c 2,119,-1
 304 563 l 2,61,62
96 238 m 1,120,121
 81 208 81 208 88 173 c 0,122,123
 91 155 91 155 100 135 c 0,124,125
 129 74 129 74 178 65 c 0,126,127
 205 59 205 59 224 65 c 0,128,129
 234 68 234 68 242 75 c 0,130,131
 254 84 254 84 262 101 c 0,132,133
 285 150 285 150 277 201 c 0,134,135
 274 225 274 225 264 249 c 0,136,137
 246 293 246 293 190 292 c 2,138,-1
 186 292 l 2,139,140
 124 286 124 286 96 238 c 1,120,121
EndSplineSet
Ligature2: "'psts' Post Base Substitutions in Tamil lookup 2 subtable" TamlNYA Taml_v_U
EndChar
StartChar: TamlTTA_Taml_v_U.psts
Encoding: 65562 -1 76
Width: 1060
GlyphClass: 3
Flags: W
Fore
398 -142 m 0,0,1
 458 -146 458 -146 505 -131 c 0,2,3
 527 -124 527 -124 547 -113 c 0,4,5
 648 -52 648 -52 668 61 c 0,6,7
 678 122 678 122 674 170 c 0,8,9
 671 194 671 194 666 215 c 0,10,11
 655 251 655 251 639 273 c 0,12,13
 609 316 609 316 560 311 c 2,14,-1
 552 310 l 2,15,16
 544 310 544 310 537 307 c 1,17,18
 443 283 443 283 438 209 c 1,19,-1
 442 285 l 1,20,21
 468 354 468 354 522 377 c 0,22,23
 608 412 608 412 665 380 c 0,24,25
 694 365 694 365 716 332 c 0,26,27
 756 268 756 268 754 175 c 0,28,29
 754 172 754 172 754 170 c 0,30,31
 746 -13 746 -13 643 -115 c 1,32,33
 561 -194 561 -194 412 -197 c 0,34,35
 285 -198 285 -198 183 -123 c 0,36,37
 130 -84 130 -84 84 -25 c 0,38,39
 0 82 0 82 0 301 c 0,40,41
 0 421 0 421 18 496 c 0,42,43
 54 643 54 643 115 719 c 0,44,45
 175 794 175 794 288 852 c 0,46,47
 376 897 376 897 526 897 c 0,48,49
 611 897 611 897 707 856 c 0,50,51
 812 813 812 813 860 743 c 0,52,53
 933 636 933 636 933 522 c 2,54,-1
 933 116 l 2,55,56
 933 77 933 77 966 77 c 0,57,58
 1000 77 1000 77 1007 109 c 0,59,60
 1008 116 1008 116 1010 116 c 1,61,62
 1013 80 1013 80 1000 56 c 0,63,64
 993 43 993 43 981 33 c 0,65,66
 955 10 955 10 924 10 c 0,67,68
 888 10 888 10 867 36 c 0,69,70
 854 53 854 53 854 94 c 2,71,-1
 854 514 l 1,72,73
 842 650 842 650 760 735 c 0,74,75
 677 819 677 819 543 834 c 0,76,77
 500 838 500 838 465 836 c 0,78,79
 441 835 441 835 419 831 c 0,80,81
 394 827 394 827 360 817 c 0,82,83
 286 794 286 794 205 713 c 0,84,85
 155 663 155 663 127 573 c 0,86,87
 87 449 87 449 84 324 c 0,88,89
 82 238 82 238 91 173 c 0,90,91
 95 140 95 140 102 112 c 0,92,93
 115 65 115 65 131 39 c 0,94,95
 231 -133 231 -133 398 -142 c 0,0,1
378 122 m 2,96,-1
 378 558 l 2,97,98
 378 588 378 588 411 598 c 0,99,100
 445 610 445 610 451 614 c 1,101,102
 457 622 457 622 459 626 c 1,103,-1
 459 140 l 2,104,105
 459 91 459 91 499 91 c 0,106,107
 524 91 524 91 532 132 c 0,108,109
 535 142 535 142 536 141 c 0,110,111
 538 112 538 112 533 88 c 0,112,113
 531 76 531 76 527 65 c 0,114,115
 521 48 521 48 512 36 c 0,116,117
 489 7 489 7 462 7 c 0,118,119
 424 7 424 7 397 42 c 0,120,121
 378 65 378 65 378 122 c 2,96,-1
EndSplineSet
Ligature2: "'psts' Post Base Substitutions in Tamil lookup 2 subtable" TamlTTA Taml_v_U
EndChar
StartChar: TamlNNA_Taml_v_U.psts
Encoding: 65563 -1 77
Width: 1658
GlyphClass: 3
Flags: W
Fore
791 562 m 0,0,1
 741 564 741 564 703 558 c 2,2,-1
 677 553 l 1,3,-1
 651 542 l 1,4,-1
 645 538 l 1,5,6
 790 445 790 445 790 254 c 0,7,8
 789 105 789 105 699 33 c 1,9,10
 655 -4 655 -4 598 -2 c 2,11,-1
 592 -2 l 2,12,13
 486 7 486 7 439 117 c 1,14,15
 400 214 400 214 412 302 c 0,16,17
 415 325 415 325 421 347 c 0,18,19
 436 402 436 402 472 456 c 0,20,21
 579 614 579 614 791 614 c 0,22,23
 898 614 898 614 1028 551 c 1,24,-1
 966 510 l 1,25,26
 880 559 880 559 791 562 c 0,0,1
501 372 m 0,27,28
 447 242 447 242 510 120 c 1,29,30
 542 54 542 54 597 46 c 0,31,32
 620 43 620 43 638 52 c 0,33,34
 648 57 648 57 657 65 c 0,35,36
 672 79 672 79 683 96 c 0,37,38
 717 150 717 150 714 254 c 0,39,40
 714 264 l 0,41,42
 708 410 708 410 601 473 c 0,43,44
 581 485 581 485 561 468 c 0,45,46
 549 459 549 459 537 441 c 0,47,48
 519 416 519 416 501 372 c 0,27,28
1196 570 m 0,49,50
 1139 571 1139 571 1095 556 c 0,51,52
 1074 549 1074 549 1055 538 c 1,53,54
 1200 445 1200 445 1199 254 c 0,55,56
 1198 105 1198 105 1109 33 c 0,57,58
 1063 -4 1063 -4 1008 -2 c 2,59,-1
 1001 -2 l 2,60,61
 896 7 896 7 849 117 c 0,62,63
 810 211 810 211 821 300 c 0,64,65
 824 324 824 324 830 347 c 0,66,67
 847 403 847 403 882 456 c 0,68,69
 989 614 989 614 1198 614 c 0,70,71
 1389 614 1389 614 1389 348 c 2,72,-1
 1389 231 l 2,73,74
 1389 101 1389 101 1318 -68 c 0,75,76
 1276 -165 1276 -165 1168 -223 c 1,77,78
 978 -329 978 -329 541 -334 c 0,79,80
 335 -336 335 -336 225 -318 c 0,81,82
 169 -309 169 -309 138 -295 c 0,83,84
 23 -243 23 -243 23 -148 c 0,85,86
 23 -94 23 -94 156 -94 c 2,87,-1
 1490 -95 l 2,88,89
 1508 -95 1508 -95 1521 -77 c 0,90,91
 1527 -68 1527 -68 1527 -39 c 2,92,-1
 1527 548 l 2,93,94
 1527 576 1527 576 1560 588 c 0,95,96
 1591 598 1591 598 1599 604 c 0,97,98
 1606 611 1606 611 1608 615 c 1,99,-1
 1608 -38 l 2,100,101
 1608 -92 1608 -92 1595 -114 c 1,102,103
 1579 -146 1579 -146 1502 -146 c 2,104,-1
 195 -146 l 2,105,106
 116 -146 116 -146 116 -185 c 0,107,108
 116 -238 116 -238 198 -256 c 0,109,110
 337 -285 337 -285 529 -285 c 1,111,112
 894 -282 894 -282 1058 -217 c 0,113,114
 1160 -177 1160 -177 1211 -113 c 0,115,116
 1311 9 1311 9 1311 213 c 2,117,-1
 1311 327 l 2,118,119
 1311 570 1311 570 1196 570 c 0,49,50
910 372 m 1,120,121
 875 285 875 285 891 203 c 0,122,123
 899 161 899 161 920 120 c 0,124,125
 952 54 952 54 1007 46 c 0,126,127
 1029 43 1029 43 1047 52 c 0,128,129
 1058 57 1058 57 1067 65 c 0,130,131
 1079 75 1079 75 1093 96 c 0,132,133
 1127 152 1127 152 1124 252 c 0,134,135
 1123 258 1123 258 1123 264 c 0,136,137
 1117 410 1117 410 1011 473 c 0,138,139
 990 485 990 485 969 467 c 1,140,-1
 952 450 l 1,141,-1
 946 441 l 2,142,143
 930 416 930 416 910 372 c 1,120,121
140 460 m 0,144,145
 82 396 82 396 74 295 c 1,146,147
 85 327 85 327 157 361 c 0,148,149
 186 376 186 376 228 376 c 0,150,151
 273 376 273 376 313 344 c 0,152,153
 370 297 370 297 365 192 c 0,154,155
 364 186 364 186 364 180 c 1,156,-1
 361 156 l 1,157,158
 351 83 351 83 290 33 c 0,159,160
 243 -6 243 -6 180 -3 c 0,161,162
 176 -2 176 -2 172 -2 c 0,163,164
 73 7 73 7 28 123 c 0,165,166
 -8 214 -8 214 2 300 c 0,167,168
 5 324 5 324 12 348 c 0,169,170
 29 406 29 406 62 456 c 0,171,172
 169 614 169 614 371 614 c 0,173,174
 498 614 498 614 629 551 c 1,175,-1
 568 506 l 1,176,177
 480 562 480 562 371 562 c 0,178,179
 234 564 234 564 140 460 c 0,144,145
101 237 m 1,180,181
 88 211 88 211 91 182 c 0,182,183
 91 177 91 177 92 172 c 0,184,185
 97 154 97 154 105 134 c 1,186,187
 135 73 135 73 183 63 c 0,188,189
 224 55 224 55 248 74 c 0,190,191
 259 84 259 84 267 100 c 0,192,193
 290 149 290 149 282 200 c 0,194,195
 279 224 279 224 269 248 c 0,196,197
 251 292 251 292 196 291 c 2,198,-1
 191 291 l 2,199,200
 130 285 130 285 101 237 c 1,180,181
EndSplineSet
Ligature2: "'psts' Post Base Substitutions in Tamil lookup 2 subtable" TamlNNA Taml_v_U
EndChar
StartChar: TamlTA_Taml_v_U.psts
Encoding: 65564 -1 78
Width: 1083
GlyphClass: 3
Flags: W
Fore
842 194 m 0,0,1
 844 101 844 101 819 23 c 0,2,3
 806 -19 806 -19 785 -58 c 1,4,5
 759 -111 759 -111 709 -166 c 0,6,7
 550 -337 550 -337 324 -337 c 0,8,9
 186 -337 186 -337 116 -298 c 0,10,11
 -1 -235 -1 -235 0 -152 c 0,12,13
 1 -97 1 -97 133 -97 c 2,14,-1
 914 -98 l 2,15,16
 933 -98 933 -98 945 -80 c 0,17,18
 951 -71 951 -71 951 -42 c 2,19,-1
 951 545 l 2,20,21
 951 573 951 573 984 585 c 0,22,23
 1015 595 1015 595 1024 601 c 1,24,25
 1032 611 1032 611 1032 612 c 2,26,-1
 1032 -41 l 2,27,28
 1032 -94 1032 -94 1020 -117 c 0,29,30
 1002 -150 1002 -150 927 -150 c 2,31,-1
 172 -150 l 2,32,33
 93 -150 93 -150 93 -188 c 1,34,35
 96 -225 96 -225 177 -256 c 0,36,37
 258 -287 258 -287 350 -287 c 0,38,39
 544 -284 544 -284 672 -116 c 0,40,41
 761 3 761 3 755 166 c 0,42,43
 755 178 l 1,44,-1
 754 198 l 1,45,-1
 754 199 l 1,46,47
 745 306 745 306 635 306 c 2,48,-1
 567 306 l 1,49,-1
 567 173 l 2,50,51
 567 86 567 86 512 46 c 0,52,53
 444 -3 444 -3 322 -3 c 0,54,55
 195 -3 195 -3 130 52 c 0,56,57
 51 119 51 119 51 210 c 0,58,59
 51 357 51 357 178 357 c 2,60,-1
 194 357 l 1,61,-1
 194 510 l 2,62,63
 194 598 194 598 251 611 c 1,64,-1
 796 611 l 2,65,66
 786 611 786 611 780 585 c 1,67,68
 777 562 777 562 758 560 c 1,69,-1
 599 560 l 1,70,71
 566 550 566 550 566 510 c 2,72,-1
 566 357 l 1,73,-1
 674 357 l 2,74,75
 836 357 836 357 842 194 c 0,0,1
486 306 m 1,76,-1
 211 306 l 2,77,78
 168 306 168 306 150 278 c 0,79,80
 133 253 133 253 136 206 c 0,81,82
 136 200 136 200 137 193 c 0,83,84
 146 115 146 115 212 79 c 0,85,86
 261 53 261 53 323 53 c 0,87,88
 405 53 405 53 465 104 c 1,89,90
 486 124 486 124 486 193 c 2,91,-1
 486 306 l 1,76,-1
485 357 m 1,92,-1
 485 510 l 2,93,94
 485 554 485 554 514 560 c 1,95,-1
 302 560 l 1,96,97
 281 556 281 556 274 510 c 1,98,-1
 274 357 l 1,99,-1
 485 357 l 1,92,-1
EndSplineSet
Ligature2: "'psts' Post Base Substitutions in Tamil lookup 2 subtable" TamlTA Taml_v_U
EndChar
StartChar: TamlNA_Taml_v_U.psts
Encoding: 65565 -1 79
Width: 1042
GlyphClass: 3
Flags: W
Fore
739 33 m 1,0,1
 733 -97 733 -97 668 -176 c 0,2,3
 537 -333 537 -333 324 -334 c 0,4,5
 264 -335 264 -335 215 -327 c 0,6,7
 193 -323 193 -323 172 -317 c 0,8,9
 138 -307 138 -307 116 -295 c 0,10,11
 0 -232 0 -232 0 -148 c 1,12,13
 2 -94 2 -94 133 -94 c 2,14,-1
 873 -95 l 2,15,16
 892 -95 892 -95 904 -77 c 0,17,18
 910 -68 910 -68 910 -39 c 2,19,-1
 910 548 l 2,20,21
 910 576 910 576 943 588 c 0,22,23
 974 598 974 598 983 604 c 1,24,25
 990 614 990 614 991 615 c 1,26,-1
 991 -38 l 2,27,28
 991 -92 991 -92 979 -114 c 0,29,30
 962 -146 962 -146 886 -146 c 2,31,-1
 172 -146 l 2,32,33
 93 -146 93 -146 93 -185 c 0,34,35
 94 -219 94 -219 175 -256 c 0,36,37
 239 -285 239 -285 312 -285 c 0,38,39
 456 -285 456 -285 544 -226 c 1,40,41
 590 -197 590 -197 623 -152 c 0,42,43
 661 -99 661 -99 664 16 c 0,44,45
 666 95 666 95 651 140 c 0,46,47
 643 162 643 162 631 176 c 0,48,49
 591 223 591 223 534 214 c 0,50,51
 526 213 526 213 518 211 c 0,52,53
 444 190 444 190 444 129 c 2,54,-1
 444 39 l 2,55,56
 444 -1 444 -1 407 -2 c 0,57,58
 379 -3 379 -3 369 13 c 0,59,60
 364 21 364 21 364 35 c 2,61,-1
 364 513 l 2,62,63
 364 557 364 557 392 563 c 1,64,-1
 210 563 l 1,65,66
 185 557 185 557 182 513 c 1,67,-1
 182 105 l 2,68,69
 182 67 182 67 216 67 c 1,70,-1
 230 70 l 1,71,-1
 260 105 l 1,72,73
 270 114 270 114 264 93 c 0,74,75
 261 82 261 82 254 62 c 0,76,77
 233 0 233 0 174 0 c 0,78,79
 101 0 101 0 101 91 c 2,80,-1
 101 513 l 2,81,82
 101 602 101 602 159 614 c 1,83,-1
 674 614 l 2,84,85
 664 614 664 614 658 588 c 1,86,87
 655 565 655 565 636 563 c 1,88,-1
 477 563 l 1,89,90
 444 552 444 552 444 513 c 2,91,-1
 444 200 l 1,92,93
 460 251 460 251 524 281 c 1,94,95
 566 299 566 299 604 293 c 0,96,97
 621 290 621 290 637 283 c 0,98,99
 664 269 664 269 689 246 c 0,100,101
 743 194 743 194 740 55 c 0,102,103
 740 50 740 50 740 46 c 1,104,-1
 739 34 l 1,105,-1
 739 33 l 1,0,1
EndSplineSet
Ligature2: "'psts' Post Base Substitutions in Tamil lookup 2 subtable" TamlNA Taml_v_U
EndChar
StartChar: TamlPA_Taml_v_U.psts
Encoding: 65566 -1 80
Width: 670
GlyphClass: 3
Flags: W
Fore
566 138 m 1,0,-1
 566 -150 l 2,1,2
 566 -185 566 -185 588 -185 c 0,3,4
 612 -185 612 -185 617 -156 c 0,5,6
 620 -146 620 -146 620 -150 c 0,7,8
 622 -182 622 -182 612 -205 c 0,9,10
 607 -216 607 -216 599 -226 c 0,11,12
 580 -248 580 -248 556 -248 c 0,13,14
 520 -248 520 -248 500 -221 c 0,15,16
 486 -204 486 -204 486 -164 c 2,17,-1
 486 138 l 1,18,-1
 566 138 l 1,0,-1
430 0 m 2,19,-1
 104 0 l 2,20,21
 48 0 48 0 25 20 c 0,22,23
 0 41 0 41 0 102 c 2,24,-1
 0 551 l 2,25,26
 0 580 0 580 32 591 c 0,27,28
 64 601 64 601 72 607 c 1,29,30
 80 617 80 617 80 618 c 2,31,-1
 80 110 l 2,32,33
 80 76 80 76 85 68 c 0,34,35
 97 51 97 51 117 51 c 2,36,-1
 449 51 l 2,37,38
 469 51 469 51 480 68 c 0,39,40
 486 76 486 76 486 108 c 2,41,-1
 486 550 l 2,42,43
 486 579 486 579 518 590 c 0,44,45
 549 600 549 600 558 606 c 1,46,47
 566 616 566 616 566 617 c 2,48,-1
 566 109 l 2,49,50
 566 56 566 56 554 33 c 0,51,52
 536 0 536 0 430 0 c 2,19,-1
EndSplineSet
Ligature2: "'psts' Post Base Substitutions in Tamil lookup 2 subtable" TamlPA Taml_v_U
EndChar
StartChar: TamlMA_Taml_v_U.psts
Encoding: 65567 -1 81
Width: 1190
GlyphClass: 3
Flags: W
Fore
151 546 m 1,0,1
 162 555 162 555 172 554 c 1,2,3
 180 549 180 549 177 541 c 0,4,5
 176 536 176 536 172 531 c 0,6,7
 80 428 80 428 80 221 c 0,8,9
 80 77 80 77 126 -68 c 0,10,11
 159 -174 159 -174 273 -250 c 1,12,13
 385 -321 385 -321 470 -321 c 0,14,15
 605 -321 605 -321 699 -212 c 0,16,17
 740 -166 740 -166 742 12 c 1,18,-1
 820 12 l 1,19,20
 822 -118 822 -118 796 -195 c 0,21,22
 783 -236 783 -236 762 -261 c 0,23,24
 670 -372 670 -372 473 -377 c 0,25,26
 395 -378 395 -378 321 -352 c 0,27,28
 285 -340 285 -340 249 -321 c 0,29,30
 196 -292 196 -292 143 -246 c 0,31,32
 0 -120 0 -120 0 169 c 0,33,34
 0 325 0 325 31 390 c 0,35,36
 79 495 79 495 151 546 c 1,0,1
903 563 m 0,37,38
 848 563 848 563 828 509 c 0,39,40
 819 482 819 482 819 442 c 1,41,-1
 820 39 l 1,42,-1
 739 39 l 1,43,-1
 739 430 l 2,44,45
 739 614 739 614 903 614 c 0,46,47
 1035 614 1035 614 1096 535 c 0,48,49
 1146 470 1146 470 1140 326 c 0,50,51
 1140 316 1140 316 1139 305 c 0,52,53
 1130 172 1130 172 1067 90 c 0,54,55
 998 0 998 0 907 0 c 2,56,-1
 473 0 l 2,57,58
 418 0 418 0 393 20 c 0,59,60
 369 41 369 41 369 102 c 2,61,-1
 369 551 l 2,62,63
 369 581 369 581 400 591 c 0,64,65
 431 601 431 601 440 607 c 0,66,67
 443 610 443 610 449 618 c 1,68,-1
 449 110 l 2,69,70
 449 74 449 74 454 68 c 0,71,72
 465 51 465 51 485 51 c 2,73,-1
 932 51 l 2,74,75
 982 51 982 51 1016 111 c 0,76,77
 1067 200 1067 200 1067 297 c 0,78,79
 1067 563 1067 563 903 563 c 0,37,38
EndSplineSet
Ligature2: "'psts' Post Base Substitutions in Tamil lookup 2 subtable" TamlMA Taml_v_U
EndChar
StartChar: TamlYA_Taml_v_U.psts
Encoding: 65568 -1 82
Width: 854
GlyphClass: 3
Flags: W
Fore
750 138 m 1,0,-1
 750 -150 l 2,1,2
 750 -185 750 -185 771 -185 c 0,3,4
 795 -185 795 -185 801 -156 c 0,5,6
 802 -149 802 -149 803 -150 c 0,7,8
 806 -182 806 -182 796 -205 c 0,9,10
 791 -216 791 -216 782 -226 c 0,11,12
 763 -248 763 -248 739 -248 c 0,13,14
 704 -248 704 -248 683 -221 c 0,15,16
 670 -205 670 -205 670 -164 c 2,17,-1
 670 138 l 1,18,-1
 750 138 l 1,0,-1
106 0 m 0,19,20
 0 1 0 1 0 102 c 2,21,-1
 0 551 l 2,22,23
 0 580 0 580 32 591 c 0,24,25
 64 601 64 601 72 607 c 1,26,27
 80 617 80 617 80 618 c 2,28,-1
 80 171 l 2,29,30
 80 68 80 68 146 68 c 0,31,32
 232 68 232 68 285 200 c 0,33,34
 298 234 298 234 318 200 c 1,35,-1
 303 147 l 1,36,37
 236 0 236 0 106 0 c 0,19,20
645 0 m 2,38,-1
 360 0 l 2,39,40
 304 0 304 0 281 20 c 0,41,42
 256 41 256 41 256 102 c 2,43,-1
 256 551 l 2,44,45
 256 580 256 580 288 591 c 0,46,47
 320 601 320 601 328 607 c 1,48,49
 336 617 336 617 336 618 c 2,50,-1
 336 110 l 2,51,52
 336 76 336 76 341 68 c 0,53,54
 353 51 353 51 373 51 c 2,55,-1
 633 51 l 2,56,57
 653 51 653 51 665 68 c 0,58,59
 670 76 670 76 670 108 c 2,60,-1
 670 550 l 2,61,62
 670 578 670 578 702 590 c 0,63,64
 733 600 733 600 742 606 c 1,65,66
 742 607 742 607 750 617 c 1,67,-1
 750 109 l 2,68,69
 750 57 750 57 737 33 c 0,70,71
 720 0 720 0 645 0 c 2,38,-1
EndSplineSet
Ligature2: "'psts' Post Base Substitutions in Tamil lookup 2 subtable" TamlYA Taml_v_U
EndChar
StartChar: TamlRA_Taml_v_U.psts
Encoding: 65569 -1 83
Width: 1037
GlyphClass: 3
Flags: W
Fore
981 68 m 1,0,1
 960 -49 960 -49 894 -139 c 0,2,3
 776 -299 776 -299 539 -313 c 0,4,5
 443 -319 443 -319 360 -294 c 0,6,7
 318 -282 318 -282 279 -262 c 0,8,9
 220 -232 220 -232 168 -184 c 0,10,11
 0 -30 0 -30 0 184 c 0,12,13
 1 378 1 378 108 543 c 1,14,15
 113 555 113 555 124 553 c 2,16,-1
 128 551 l 2,17,18
 135 546 135 546 133 538 c 1,19,-1
 128 528 l 1,20,21
 61 424 61 424 61 225 c 0,22,23
 61 90 61 90 130 -20 c 0,24,25
 198 -128 198 -128 298 -188 c 0,26,27
 413 -257 413 -257 525 -259 c 1,28,29
 695 -259 695 -259 800 -138 c 0,30,31
 870 -56 870 -56 883 29 c 0,32,33
 895 110 895 110 884 158 c 0,34,35
 879 182 879 182 868 198 c 0,36,37
 834 249 834 249 766 231 c 0,38,39
 672 207 672 207 672 129 c 2,40,-1
 672 39 l 2,41,42
 672 0 672 0 634 -2 c 0,43,44
 606 -3 606 -3 596 13 c 0,45,46
 591 21 591 21 591 35 c 2,47,-1
 591 513 l 2,48,49
 591 557 591 557 620 563 c 1,50,-1
 437 563 l 1,51,52
 413 557 413 557 410 513 c 1,53,-1
 410 105 l 2,54,55
 410 67 410 67 443 67 c 1,56,-1
 458 70 l 1,57,-1
 487 105 l 1,58,59
 497 114 497 114 491 93 c 0,60,61
 488 82 488 82 481 62 c 0,62,63
 460 0 460 0 401 0 c 0,64,65
 329 0 329 0 329 91 c 2,66,-1
 329 513 l 2,67,68
 329 602 329 602 386 614 c 1,69,-1
 901 614 l 2,70,71
 890 614 890 614 886 588 c 0,72,73
 882 564 882 564 863 563 c 2,74,-1
 705 563 l 1,75,76
 671 553 671 553 672 513 c 1,77,-1
 672 209 l 1,78,79
 699 280 699 280 752 301 c 0,80,81
 834 335 834 335 892 304 c 0,82,83
 922 288 922 288 945 256 c 0,84,85
 991 192 991 192 986 106 c 0,86,87
 986 99 986 99 985 93 c 2,88,-1
 981 68 l 1,0,1
EndSplineSet
Ligature2: "'psts' Post Base Substitutions in Tamil lookup 2 subtable" TamlRA Taml_v_U
EndChar
StartChar: TamlLA_Taml_v_U.psts
Encoding: 65570 -1 84
Width: 1120
GlyphClass: 3
Flags: W
Fore
666 -136 m 0,0,1
 643 -214 643 -214 586 -259 c 0,2,3
 490 -336 490 -336 330 -337 c 0,4,5
 241 -338 241 -338 178 -321 c 0,6,7
 147 -312 147 -312 122 -298 c 0,8,9
 6 -235 6 -235 6 -152 c 0,10,11
 7 -97 7 -97 139 -97 c 2,12,-1
 951 -98 l 2,13,14
 970 -98 970 -98 982 -80 c 0,15,16
 988 -71 988 -71 988 -42 c 2,17,-1
 988 545 l 2,18,19
 988 573 988 573 1021 585 c 0,20,21
 1053 595 1053 595 1061 601 c 1,22,23
 1068 611 1068 611 1069 612 c 1,24,-1
 1069 -41 l 2,25,26
 1069 -94 1069 -94 1057 -117 c 0,27,28
 1039 -150 1039 -150 964 -150 c 2,29,-1
 178 -150 l 2,30,31
 99 -150 99 -150 99 -188 c 1,32,33
 101 -225 101 -225 181 -259 c 0,34,35
 255 -291 255 -291 336 -290 c 0,36,37
 486 -286 486 -286 549 -206 c 0,38,39
 593 -148 593 -148 596 -40 c 1,40,-1
 596 24 l 1,41,-1
 680 24 l 1,42,43
 682 -18 682 -18 680 -51 c 0,44,45
 679 -71 679 -71 676 -88 c 0,46,47
 671 -119 671 -119 666 -136 c 0,0,1
374 611 m 0,48,49
 458 611 458 611 506 557 c 1,50,51
 534 523 534 523 535 387 c 1,52,-1
 536 255 l 1,53,54
 538 51 538 51 653 51 c 0,55,56
 743 51 743 51 743 228 c 2,57,-1
 743 396 l 2,58,59
 743 489 743 489 722 531 c 0,60,61
 711 555 711 555 651 584 c 1,62,-1
 614 593 l 1,63,64
 648 616 648 616 688 614 c 0,65,66
 762 609 762 609 796 556 c 1,67,68
 823 510 823 510 823 399 c 1,69,-1
 824 273 l 1,70,71
 826 90 826 90 742 30 c 0,72,73
 700 -1 700 -1 636 0 c 0,74,75
 460 1 460 1 460 252 c 2,76,-1
 460 390 l 2,77,78
 460 555 460 555 339 557 c 0,79,80
 281 558 281 558 236 541 c 0,81,82
 213 532 213 532 194 519 c 0,83,84
 162 498 162 498 141 470 c 0,85,86
 88 399 88 399 77 292 c 1,87,88
 88 324 88 324 160 358 c 0,89,90
 190 373 190 373 231 373 c 0,91,92
 276 373 276 373 316 341 c 0,93,94
 373 294 373 294 368 189 c 0,95,96
 367 183 367 183 367 177 c 1,97,-1
 365 153 l 1,98,99
 353 78 353 78 293 30 c 1,100,101
 247 -9 247 -9 192 -6 c 0,102,103
 188 -5 188 -5 185 -5 c 0,104,105
 81 4 81 4 31 120 c 0,106,107
 -22 241 -22 241 14 359 c 0,108,109
 33 419 33 419 74 479 c 0,110,111
 164 611 164 611 374 611 c 0,48,49
104 233 m 0,112,113
 89 204 89 204 96 169 c 0,114,115
 99 151 99 151 109 131 c 0,116,117
 138 71 138 71 186 60 c 0,118,119
 227 52 227 52 251 71 c 0,120,121
 262 81 262 81 270 97 c 0,122,123
 293 146 293 146 285 197 c 0,124,125
 282 221 282 221 272 245 c 0,126,127
 253 290 253 290 195 288 c 1,128,129
 132 282 132 282 104 233 c 0,112,113
EndSplineSet
Ligature2: "'psts' Post Base Substitutions in Tamil lookup 2 subtable" TamlLA Taml_v_U
EndChar
StartChar: TamlVA_Taml_v_U.psts
Encoding: 65571 -1 85
Width: 1014
GlyphClass: 3
Flags: W
Fore
910 138 m 1,0,-1
 910 -150 l 2,1,2
 910 -185 910 -185 932 -185 c 0,3,4
 956 -185 956 -185 962 -156 c 0,5,6
 963 -149 963 -149 964 -150 c 0,7,8
 966 -182 966 -182 956 -205 c 0,9,10
 951 -216 951 -216 943 -226 c 0,11,12
 924 -248 924 -248 900 -248 c 0,13,14
 864 -248 864 -248 844 -221 c 0,15,16
 830 -204 830 -204 830 -164 c 2,17,-1
 830 138 l 1,18,-1
 910 138 l 1,0,-1
348 562 m 0,19,20
 300 566 300 566 255 547 c 0,21,22
 232 538 232 538 209 522 c 0,23,24
 179 503 179 503 142 462 c 1,25,26
 86 397 86 397 76 276 c 1,27,28
 113 342 113 342 159 364 c 0,29,30
 190 378 190 378 229 378 c 0,31,32
 275 378 275 378 315 346 c 0,33,34
 372 299 372 299 367 194 c 0,35,36
 366 188 366 188 366 182 c 0,37,38
 364 166 364 166 362 157 c 0,39,40
 353 84 353 84 292 34 c 0,41,42
 247 -3 247 -3 190 0 c 0,43,44
 184 0 l 0,45,46
 77 9 77 9 30 125 c 0,47,48
 -9 219 -9 219 2 305 c 0,49,50
 5 329 5 329 12 352 c 0,51,52
 30 410 30 410 65 458 c 0,53,54
 176 614 176 614 351 614 c 0,55,56
 487 614 487 614 549 537 c 1,57,58
 619 447 619 447 612 327 c 0,59,60
 612 320 612 320 611 313 c 0,61,62
 611 300 611 300 608 287 c 0,63,64
 585 137 585 137 475 51 c 1,65,-1
 794 51 l 2,66,67
 814 51 814 51 825 68 c 0,68,69
 830 74 830 74 830 108 c 2,70,-1
 830 550 l 2,71,72
 830 578 830 578 863 590 c 0,73,74
 894 600 894 600 903 606 c 1,75,76
 908 612 908 612 910 617 c 1,77,-1
 910 109 l 2,78,79
 910 52 910 52 899 33 c 0,80,81
 881 0 881 0 806 0 c 2,82,-1
 451 0 l 1,83,84
 367 2 367 2 388 27 c 1,85,-1
 399 38 l 1,86,87
 498 115 498 115 524 203 c 0,88,89
 545 273 545 273 540 336 c 0,90,91
 539 349 539 349 537 361 c 0,92,93
 529 400 529 400 514 430 c 0,94,95
 454 553 454 553 348 562 c 0,19,20
103 238 m 0,96,97
 89 212 89 212 93 183 c 0,98,99
 93 178 93 178 94 174 c 0,100,101
 100 152 100 152 108 136 c 0,102,103
 137 75 137 75 185 66 c 0,104,105
 226 57 226 57 250 76 c 0,106,107
 261 86 261 86 269 102 c 0,108,109
 288 142 288 142 285 189 c 0,110,111
 285 195 285 195 284 201 c 0,112,113
 281 227 281 227 271 250 c 0,114,115
 252 295 252 295 194 293 c 1,116,117
 131 287 131 287 103 238 c 0,96,97
EndSplineSet
Ligature2: "'psts' Post Base Substitutions in Tamil lookup 2 subtable" TamlVA Taml_v_U
LCarets2: 1 -4 
EndChar
StartChar: TamlLLLA_Taml_v_U.psts
Encoding: 65572 -1 86
Width: 1108
GlyphClass: 3
Flags: W
Fore
715 -169 m 1,0,1
 681 -170 681 -170 669 -148 c 0,2,3
 662 -136 662 -136 662 -117 c 2,4,-1
 662 19 l 1,5,-1
 737 20 l 1,6,-1
 736 -88 l 1,7,8
 793 -23 793 -23 866 -27 c 0,9,10
 872 -27 l 0,11,12
 980 -33 980 -33 980 -143 c 1,13,14
 977 -259 977 -259 808 -331 c 0,15,16
 729 -364 729 -364 587 -361 c 0,17,18
 581 -361 581 -361 574 -361 c 0,19,20
 285 -358 285 -358 126 -186 c 0,21,22
 0 -50 0 -50 0 190 c 0,23,24
 0 322 0 322 51 412 c 0,25,26
 80 462 80 462 151 526 c 0,27,28
 161 536 161 536 172 535 c 1,29,30
 180 529 180 529 177 521 c 0,31,32
 176 517 176 517 172 512 c 0,33,34
 81 406 81 406 83 179 c 0,35,36
 83 177 83 177 83 174 c 2,37,-1
 83 164 l 1,38,39
 86 25 86 25 141 -88 c 0,40,41
 178 -164 178 -164 274 -224 c 0,42,43
 390 -296 390 -296 513 -303 c 0,44,45
 630 -311 630 -311 720 -288 c 0,46,47
 765 -276 765 -276 802 -257 c 0,48,49
 899 -208 899 -208 884 -136 c 0,50,51
 882 -128 882 -128 879 -119 c 0,52,53
 852 -50 852 -50 753 -128 c 1,54,-1
 715 -169 l 1,0,1
821 564 m 0,55,56
 737 564 737 564 737 443 c 1,57,-1
 738 40 l 1,58,-1
 657 40 l 1,59,-1
 657 431 l 2,60,61
 657 615 657 615 821 615 c 0,62,63
 953 615 953 615 1014 536 c 0,64,65
 1064 469 1064 469 1058 327 c 0,66,67
 1058 316 1058 316 1057 306 c 0,68,69
 1048 173 1048 173 985 91 c 0,70,71
 916 1 916 1 825 1 c 2,72,-1
 391 1 l 2,73,74
 335 1 335 1 311 22 c 0,75,76
 287 42 287 42 287 103 c 2,77,-1
 287 552 l 2,78,79
 287 582 287 582 318 592 c 0,80,81
 349 602 349 602 358 608 c 1,82,83
 365 615 365 615 367 620 c 1,84,-1
 367 111 l 2,85,86
 367 75 367 75 372 69 c 0,87,88
 383 52 383 52 403 52 c 2,89,-1
 850 52 l 2,90,91
 900 52 900 52 934 112 c 0,92,93
 985 200 985 200 985 298 c 0,94,95
 985 564 985 564 821 564 c 0,55,56
EndSplineSet
Ligature2: "'psts' Post Base Substitutions in Tamil lookup 2 subtable" TamlLLLA Taml_v_U
EndChar
StartChar: TamlLLA_Taml_v_U.psts
Encoding: 65573 -1 87
Width: 1416
GlyphClass: 3
Flags: W
Fore
1050 229 m 1,0,1
 1075 299 1075 299 1130 322 c 0,2,3
 1189 345 1189 345 1234 337 c 0,4,5
 1254 334 1254 334 1272 325 c 0,6,7
 1302 309 1302 309 1324 276 c 1,8,9
 1370 214 1370 214 1365 127 c 0,10,11
 1365 120 1365 120 1364 114 c 2,12,-1
 1360 88 l 1,13,14
 1339 -32 1339 -32 1273 -119 c 0,15,16
 1110 -335 1110 -335 683 -336 c 0,17,18
 530 -337 530 -337 410 -306 c 0,19,20
 352 -291 352 -291 301 -269 c 0,21,22
 226 -236 226 -236 168 -184 c 0,23,24
 2 -33 2 -33 0 184 c 1,25,26
 1 439 1 439 108 543 c 1,27,28
 117 553 117 553 128 551 c 1,29,30
 135 546 135 546 133 538 c 1,31,-1
 128 528 l 1,32,33
 61 424 61 424 61 225 c 0,34,35
 61 90 61 90 130 -20 c 0,36,37
 199 -131 199 -131 298 -188 c 0,38,39
 460 -283 460 -283 693 -283 c 0,40,41
 1018 -282 1018 -282 1150 -145 c 0,42,43
 1239 -53 1239 -53 1262 49 c 0,44,45
 1273 103 1273 103 1270 145 c 0,46,47
 1269 159 1269 159 1266 172 c 0,48,49
 1260 199 1260 199 1247 218 c 1,50,51
 1220 264 1220 264 1161 255 c 2,52,-1
 1145 252 l 2,53,54
 1061 231 1061 231 1052 166 c 1,55,-1
 1050 229 l 1,0,1
1074 121 m 1,56,57
 1074 67 1074 67 1111 67 c 1,58,-1
 1125 70 l 1,59,-1
 1155 105 l 1,60,61
 1165 114 1165 114 1159 93 c 0,62,63
 1156 82 1156 82 1149 62 c 0,64,65
 1128 0 1128 0 1069 0 c 0,66,67
 996 0 996 0 996 90 c 2,68,-1
 996 513 l 1,69,-1
 997 534 l 1,70,-1
 1000 540 l 1,71,72
 1015 563 1015 563 1030 563 c 2,73,-1
 874 563 l 2,74,75
 777 563 777 563 777 441 c 2,76,-1
 777 105 l 2,77,78
 777 67 777 67 811 67 c 1,79,-1
 825 70 l 1,80,-1
 855 105 l 1,81,82
 865 114 865 114 859 93 c 0,83,84
 856 82 856 82 849 62 c 0,85,86
 828 0 828 0 769 0 c 0,87,88
 696 0 696 0 696 91 c 1,89,-1
 698 445 l 1,90,91
 698 521 698 521 647 548 c 1,92,-1
 618 558 l 2,93,94
 603 562 603 562 581 562 c 0,95,96
 505 564 505 564 439 519 c 0,97,98
 406 496 406 496 375 462 c 0,99,100
 315 397 315 397 306 287 c 1,101,102
 344 344 344 344 391 364 c 0,103,104
 425 378 425 378 463 378 c 0,105,106
 508 378 508 378 548 346 c 0,107,108
 605 298 605 298 599 195 c 0,109,110
 599 189 599 189 598 182 c 0,111,112
 596 166 596 166 595 157 c 0,113,114
 584 83 584 83 524 34 c 0,115,116
 483 0 483 0 417 0 c 0,117,118
 294 0 294 0 249 143 c 0,119,120
 223 224 223 224 232 298 c 0,121,122
 235 332 235 332 246 364 c 0,123,124
 261 413 261 413 298 467 c 0,125,126
 400 614 400 614 584 614 c 0,127,128
 664 614 664 614 706 581 c 1,129,130
 722 566 722 566 724 562 c 1,131,132
 731 554 731 554 739 538 c 1,133,134
 759 581 759 581 783 596 c 0,135,136
 813 614 813 614 860 614 c 2,137,-1
 1240 613 l 1,138,139
 1230 604 1230 604 1225 587 c 0,140,141
 1218 563 1218 563 1200 563 c 2,142,-1
 1112 563 l 2,143,144
 1101 563 1101 563 1092 553 c 1,145,146
 1076 538 1076 538 1076 532 c 1,147,-1
 1074 121 l 1,56,57
336 239 m 0,148,149
 319 209 319 209 327 173 c 0,150,151
 331 155 331 155 340 136 c 0,152,153
 369 75 369 75 418 66 c 0,154,155
 444 60 444 60 463 66 c 0,156,157
 473 69 473 69 481 76 c 0,158,159
 493 85 493 85 502 102 c 0,160,161
 524 149 524 149 517 199 c 0,162,163
 514 224 514 224 504 250 c 0,164,165
 485 295 485 295 426 293 c 1,166,167
 363 287 363 287 336 239 c 0,148,149
EndSplineSet
Ligature2: "'psts' Post Base Substitutions in Tamil lookup 2 subtable" TamlLLA Taml_v_U
EndChar
StartChar: TamlRRA_Taml_v_U.psts
Encoding: 65574 -1 88
Width: 1042
GlyphClass: 3
Flags: W
Fore
668 -37 m 0,0,1
 674 -8 674 -8 674 134 c 2,2,-1
 674 422 l 2,3,4
 674 572 674 572 580 572 c 128,-1,5
 486 572 486 572 483 413 c 1,6,-1
 461 564 l 1,7,8
 498 617 498 617 582 617 c 0,9,10
 749 617 749 617 752 450 c 1,11,-1
 752 443 l 1,12,-1
 752 122 l 2,13,14
 752 26 752 26 739 -38 c 0,15,16
 727 -103 727 -103 668 -173 c 0,17,18
 537 -330 537 -330 324 -331 c 0,19,20
 232 -331 232 -331 172 -314 c 0,21,22
 138 -304 138 -304 116 -292 c 0,23,24
 0 -229 0 -229 0 -145 c 1,25,26
 2 -91 2 -91 133 -91 c 2,27,-1
 873 -92 l 2,28,29
 892 -92 892 -92 904 -74 c 0,30,31
 910 -65 910 -65 910 -36 c 2,32,-1
 910 551 l 2,33,34
 910 579 910 579 943 591 c 0,35,36
 974 601 974 601 983 607 c 1,37,38
 990 617 990 617 991 618 c 1,39,-1
 991 -35 l 2,40,41
 991 -88 991 -88 979 -111 c 0,42,43
 961 -143 961 -143 886 -143 c 2,44,-1
 172 -143 l 2,45,46
 93 -143 93 -143 93 -182 c 0,47,48
 94 -216 94 -216 175 -253 c 0,49,50
 239 -282 239 -282 312 -282 c 0,51,52
 441 -282 441 -282 531 -226 c 0,53,54
 579 -197 579 -197 617 -155 c 0,55,56
 656 -110 656 -110 668 -37 c 0,0,1
406 59 m 2,57,-1
 406 445 l 2,58,59
 406 566 406 566 323 566 c 0,60,61
 245 566 245 566 245 446 c 2,62,-1
 245 92 l 2,63,64
 245 31 245 31 214 10 c 1,65,-1
 195 1 l 1,66,-1
 173 -1 l 1,67,68
 116 -1 116 -1 93 61 c 0,69,70
 78 106 78 106 82 107 c 0,71,72
 84 107 84 107 87 104 c 2,73,-1
 117 69 l 1,74,-1
 131 66 l 1,75,76
 165 66 165 66 165 115 c 1,77,-1
 163 483 l 1,78,79
 162 574 162 574 234 604 c 0,80,81
 270 620 270 620 326 620 c 0,82,83
 485 620 485 620 485 478 c 2,84,-1
 485 60 l 2,85,86
 485 7 485 7 446 7 c 0,87,88
 406 7 406 7 406 59 c 2,57,-1
EndSplineSet
Ligature2: "'psts' Post Base Substitutions in Tamil lookup 2 subtable" TamlRRA Taml_v_U
EndChar
StartChar: TamlNNNA_Taml_v_U.psts
Encoding: 65575 -1 89
Width: 1259
GlyphClass: 3
Flags: W
Fore
797 570 m 0,0,1
 739 571 739 571 695 556 c 1,2,-1
 660 541 l 1,3,-1
 655 538 l 1,4,5
 800 445 800 445 800 254 c 0,6,7
 799 105 799 105 710 33 c 0,8,9
 664 -4 664 -4 608 -2 c 2,10,-1
 602 -2 l 2,11,12
 495 7 495 7 450 117 c 0,13,14
 411 211 411 211 422 300 c 0,15,16
 425 324 425 324 431 347 c 0,17,18
 446 402 446 402 482 456 c 0,19,20
 589 614 589 614 799 614 c 0,21,22
 989 614 989 614 989 348 c 2,23,-1
 989 231 l 2,24,25
 989 84 989 84 926 -41 c 0,26,27
 882 -128 882 -128 834 -176 c 0,28,29
 674 -334 674 -334 408 -334 c 0,30,31
 204 -334 204 -334 118 -295 c 0,32,33
 1 -243 1 -243 2 -148 c 0,34,35
 4 -94 4 -94 135 -94 c 2,36,-1
 1091 -95 l 2,37,38
 1109 -95 1109 -95 1121 -77 c 0,39,40
 1127 -68 1127 -68 1127 -39 c 2,41,-1
 1127 548 l 2,42,43
 1127 576 1127 576 1160 588 c 0,44,45
 1191 598 1191 598 1200 604 c 1,46,47
 1205 609 1205 609 1208 615 c 1,48,-1
 1208 -38 l 2,49,50
 1208 -92 1208 -92 1196 -114 c 0,51,52
 1179 -146 1179 -146 1103 -146 c 2,53,-1
 174 -146 l 2,54,55
 95 -146 95 -146 95 -185 c 0,56,57
 96 -229 96 -229 177 -256 c 0,58,59
 266 -285 266 -285 396 -285 c 0,60,61
 637 -285 637 -285 763 -170 c 0,62,63
 818 -119 818 -119 854 -40 c 0,64,65
 911 80 911 80 911 213 c 2,66,-1
 911 327 l 2,67,68
 911 570 911 570 797 570 c 0,0,1
511 372 m 0,69,70
 475 285 475 285 492 201 c 0,71,72
 500 160 500 160 520 120 c 0,73,74
 554 54 554 54 607 46 c 0,75,76
 630 43 630 43 649 52 c 0,77,78
 659 57 659 57 668 65 c 0,79,80
 681 77 681 77 693 96 c 0,81,82
 727 150 727 150 724 254 c 0,83,84
 724 264 l 0,85,86
 718 410 718 410 611 473 c 0,87,88
 590 485 590 485 568 467 c 1,89,-1
 552 449 l 2,90,91
 549 445 549 445 546 440 c 0,92,93
 531 419 531 419 511 372 c 0,69,70
140 460 m 0,94,95
 82 396 82 396 74 295 c 1,96,97
 85 327 85 327 157 361 c 0,98,99
 186 376 186 376 228 376 c 0,100,101
 273 376 273 376 313 344 c 0,102,103
 370 297 370 297 365 192 c 0,104,105
 364 186 364 186 364 180 c 1,106,-1
 361 156 l 1,107,108
 351 83 351 83 290 33 c 0,109,110
 244 -5 244 -5 178 -2 c 0,111,112
 172 -2 l 0,113,114
 73 7 73 7 28 123 c 0,115,116
 -8 214 -8 214 2 300 c 0,117,118
 5 324 5 324 12 348 c 0,119,120
 29 406 29 406 62 456 c 0,121,122
 169 614 169 614 371 614 c 0,123,124
 498 614 498 614 629 551 c 1,125,-1
 568 506 l 1,126,127
 480 562 480 562 371 562 c 0,128,129
 234 564 234 564 140 460 c 0,94,95
101 237 m 1,130,131
 88 211 88 211 91 182 c 0,132,133
 91 177 91 177 92 172 c 0,134,135
 97 154 97 154 105 134 c 1,136,137
 135 73 135 73 183 63 c 0,138,139
 209 58 209 58 228 64 c 0,140,141
 238 67 238 67 247 74 c 0,142,143
 259 83 259 83 267 100 c 0,144,145
 287 142 287 142 284 189 c 0,146,147
 284 194 284 194 283 199 c 0,148,149
 279 219 279 219 269 248 c 1,150,151
 250 293 250 293 191 291 c 1,152,153
 130 285 130 285 101 237 c 1,130,131
EndSplineSet
Ligature2: "'psts' Post Base Substitutions in Tamil lookup 2 subtable" TamlNNNA Taml_v_U
EndChar
StartChar: TamlKA_Taml_v_UU.psts
Encoding: 65576 -1 90
Width: 1339
GlyphClass: 3
Flags: W
Fore
707 271 m 1,0,1
 722 335 722 335 764 358 c 0,2,3
 819 389 819 389 867 385 c 0,4,5
 870 385 870 385 874 384 c 0,6,7
 881 383 881 383 895 379 c 0,8,9
 966 357 966 357 989 288 c 0,10,11
 1006 239 1006 239 996 193 c 0,12,13
 991 171 991 171 980 150 c 0,14,15
 961 112 961 112 893 53 c 1,16,-1
 1288 53 l 2,17,18
 1284 53 1284 53 1276 44 c 1,19,-1
 1269 33 l 1,20,21
 1253 2 1253 2 1226 2 c 2,22,-1
 853 2 l 2,23,24
 816 2 816 2 801 20 c 0,25,26
 785 40 785 40 793 50 c 0,27,28
 797 55 797 55 808 57 c 0,29,30
 878 75 878 75 914 148 c 0,31,32
 939 198 939 198 931 237 c 0,33,34
 927 256 927 256 915 273 c 0,35,36
 876 329 876 329 815 318 c 0,37,38
 806 316 806 316 796 313 c 0,39,40
 719 289 719 289 719 183 c 1,41,-1
 707 271 l 1,0,1
631 204 m 1,42,43
 616 311 616 311 532 311 c 2,44,-1
 496 311 l 1,45,-1
 496 178 l 2,46,47
 496 95 496 95 440 51 c 0,48,49
 379 2 379 2 270 2 c 0,50,51
 144 2 144 2 79 57 c 0,52,53
 0 124 0 124 0 215 c 0,54,55
 0 362 0 362 127 362 c 2,56,-1
 142 362 l 1,57,-1
 142 515 l 2,58,59
 142 604 142 604 200 616 c 1,60,-1
 703 616 l 2,61,62
 694 616 694 616 688 590 c 0,63,64
 684 566 684 566 666 565 c 2,65,-1
 527 565 l 1,66,67
 494 555 494 555 495 515 c 1,68,-1
 495 362 l 1,69,-1
 571 362 l 2,70,71
 713 362 713 362 719 199 c 1,72,-1
 719 70 l 2,73,74
 719 3 719 3 675 1 c 0,75,76
 657 0 657 0 646 14 c 0,77,78
 640 22 640 22 636 35 c 0,79,80
 631 50 631 50 631 82 c 2,81,-1
 631 204 l 1,42,43
415 311 m 1,82,-1
 160 311 l 2,83,84
 117 311 117 311 98 283 c 1,85,86
 76 247 76 247 82 212 c 0,87,88
 86 198 l 0,89,90
 113 108 113 108 161 84 c 0,91,92
 210 58 210 58 271 58 c 0,93,94
 341 58 341 58 393 110 c 1,95,96
 415 129 415 129 415 198 c 2,97,-1
 415 311 l 1,82,-1
414 362 m 1,98,-1
 414 515 l 2,99,100
 414 559 414 559 442 565 c 1,101,-1
 251 565 l 1,102,103
 229 560 229 560 223 515 c 1,104,-1
 223 362 l 1,105,-1
 414 362 l 1,98,-1
EndSplineSet
Ligature2: "'psts' Post Base Substitutions in Tamil lookup 2 subtable" TamlKA Taml_v_UU
EndChar
StartChar: TamlNGA_Taml_v_UU.psts
Encoding: 65577 -1 91
Width: 1232
GlyphClass: 3
Flags: W
Fore
158 -141 m 2,0,1
 90 -141 90 -141 93 -202 c 0,2,3
 93 -208 l 1,4,-1
 94 -216 l 1,5,6
 102 -268 102 -268 178 -284 c 0,7,8
 373 -325 373 -325 600 -325 c 2,9,-1
 607 -325 l 2,10,11
 960 -322 960 -322 1048 -186 c 0,12,13
 1101 -102 1101 -102 1092 -42 c 0,14,15
 1091 -35 1091 -35 1089 -28 c 0,16,17
 1079 1 1079 1 1050 24 c 1,18,19
 992 65 992 65 922 20 c 0,20,21
 886 -2 886 -2 847 -47 c 1,22,-1
 867 8 l 1,23,24
 918 109 918 109 1021 127 c 0,25,26
 1117 143 1117 143 1156 78 c 0,27,28
 1176 45 1176 45 1181 -10 c 0,29,30
 1185 -63 1185 -63 1171 -109 c 0,31,32
 1164 -135 1164 -135 1151 -159 c 0,33,34
 1134 -191 1134 -191 1102 -225 c 0,35,36
 963 -373 963 -373 605 -373 c 0,37,38
 263 -372 263 -372 117 -326 c 0,39,40
 -5 -287 -5 -287 0 -191 c 0,41,42
 0 -187 l 0,43,44
 0 -182 0 -182 1 -179 c 0,45,46
 14 -83 14 -83 152 -83 c 2,47,-1
 321 -83 l 2,48,49
 370 -83 370 -83 373 -117 c 0,50,51
 375 -132 375 -132 356 -138 c 1,52,-1
 328 -141 l 1,53,-1
 327 -141 l 1,54,-1
 158 -141 l 2,0,1
907 138 m 1,55,-1
 907 -57 l 2,56,57
 907 -93 907 -93 930 -93 c 0,58,59
 954 -93 954 -93 959 -63 c 1,60,61
 962 -54 962 -54 962 -57 c 0,62,63
 964 -90 964 -90 954 -113 c 0,64,65
 949 -125 949 -125 941 -134 c 0,66,67
 921 -156 921 -156 898 -156 c 0,68,69
 862 -156 862 -156 842 -129 c 0,70,71
 828 -110 828 -110 828 -72 c 2,72,-1
 828 138 l 1,73,-1
 907 138 l 1,55,-1
826 108 m 2,74,-1
 826 550 l 2,75,76
 826 578 826 578 859 590 c 0,77,78
 890 600 890 600 899 606 c 1,79,80
 906 616 906 616 907 617 c 1,81,-1
 907 109 l 2,82,83
 907 56 907 56 895 33 c 0,84,85
 877 0 877 0 781 0 c 2,86,-1
 319 0 l 2,87,88
 280 0 280 0 284 28 c 0,89,90
 284 31 284 31 285 34 c 0,91,92
 290 52 290 52 333 52 c 0,93,94
 432 52 432 52 474 55 c 0,95,96
 497 57 497 57 503 59 c 0,97,98
 584 93 584 93 606 165 c 0,99,100
 628 231 628 231 614 284 c 0,101,102
 608 311 608 311 592 334 c 0,103,104
 562 379 562 379 505 371 c 2,105,-1
 489 368 l 1,106,107
 395 342 395 342 395 265 c 2,108,-1
 395 216 l 2,109,110
 395 176 395 176 357 175 c 0,111,112
 329 174 329 174 319 190 c 0,113,114
 314 198 314 198 314 212 c 2,115,-1
 314 513 l 2,116,117
 314 557 314 557 343 563 c 1,118,-1
 161 563 l 1,119,120
 136 557 136 557 133 513 c 1,121,-1
 133 105 l 2,122,123
 133 67 133 67 167 67 c 1,124,-1
 181 70 l 1,125,-1
 211 105 l 2,126,127
 218 112 218 112 217 101 c 0,128,129
 215 91 215 91 205 62 c 0,130,131
 182 0 182 0 125 0 c 0,132,133
 52 0 52 0 52 91 c 2,134,-1
 52 513 l 2,135,136
 52 602 52 602 110 614 c 1,137,-1
 625 614 l 2,138,139
 615 614 615 614 609 588 c 1,140,141
 606 565 606 565 587 563 c 1,142,-1
 428 563 l 1,143,144
 395 552 395 552 395 513 c 2,145,-1
 395 336 l 1,146,147
 433 418 433 418 475 437 c 0,148,149
 539 467 539 467 591 441 c 0,150,151
 617 429 617 429 640 402 c 1,152,153
 694 343 694 343 685 252 c 0,154,155
 685 243 685 243 683 233 c 0,156,157
 662 107 662 107 564 51 c 1,158,-1
 790 51 l 2,159,160
 811 51 811 51 820 66 c 0,161,162
 826 75 826 75 826 108 c 2,74,-1
EndSplineSet
Ligature2: "'psts' Post Base Substitutions in Tamil lookup 2 subtable" TamlNGA Taml_v_UU
EndChar
StartChar: TamlCA_Taml_v_UU.psts
Encoding: 65578 -1 92
Width: 1377
GlyphClass: 3
Flags: W
Fore
83 373 m 1,0,1
 114 300 114 300 189 305 c 0,2,3
 193 305 193 305 197 306 c 0,4,5
 271 317 271 317 271 399 c 0,6,7
 271 496 271 496 193 496 c 0,8,9
 156 496 156 496 129 463 c 0,10,11
 90 416 90 416 83 373 c 1,0,1
1027 106 m 1,12,13
 1051 176 1051 176 1085 199 c 0,14,15
 1158 246 1158 246 1221 224 c 0,16,17
 1254 212 1254 212 1285 182 c 0,18,19
 1328 141 1328 141 1326 51 c 0,20,21
 1326 49 1326 49 1326 46 c 2,22,-1
 1326 39 l 1,23,24
 1322 -56 1322 -56 1248 -150 c 0,25,26
 1080 -365 1080 -365 651 -362 c 0,27,28
 648 -362 648 -362 644 -362 c 2,29,-1
 634 -362 l 2,30,31
 371 -359 371 -359 190 -199 c 1,32,33
 2 -28 2 -28 0 189 c 0,34,35
 0 306 0 306 25 382 c 1,36,37
 36 420 36 420 55 453 c 1,38,39
 113 545 113 545 208 545 c 1,40,41
 282 542 282 542 316 499 c 0,42,43
 344 463 344 463 341 397 c 1,44,-1
 341 389 l 2,45,46
 341 380 341 380 340 375 c 0,47,48
 336 323 336 323 295 290 c 0,49,50
 259 260 259 260 199 258 c 0,51,52
 143 257 143 257 105 284 c 0,53,54
 86 298 86 298 71 319 c 1,55,56
 65 289 65 289 66 212 c 0,57,58
 66 200 l 0,59,60
 69 81 69 81 164 -61 c 0,61,62
 221 -147 221 -147 347 -215 c 1,63,64
 494 -297 494 -297 611 -305 c 0,65,66
 771 -315 771 -315 895 -285 c 0,67,68
 957 -271 957 -271 1009 -247 c 0,69,70
 1086 -210 1086 -210 1148 -152 c 0,71,72
 1209 -94 1209 -94 1232 0 c 0,73,74
 1242 44 1242 44 1225 80 c 0,75,76
 1217 100 1217 100 1201 117 c 1,77,78
 1172 151 1172 151 1129 141 c 1,79,-1
 1101 130 l 1,80,-1
 1100 129 l 2,81,82
 1041 98 1041 98 1033 63 c 1,83,-1
 1027 106 l 1,12,13
1001 313 m 2,84,-1
 1071 313 l 2,85,86
 1063 313 1063 313 1059 309 c 1,87,88
 1055 307 1055 307 1054 303 c 1,89,90
 1050 297 1050 297 1050 284 c 2,91,-1
 1050 98 l 2,92,93
 1050 62 1050 62 1072 62 c 0,94,95
 1096 62 1096 62 1102 92 c 0,96,97
 1103 100 1103 100 1104 98 c 0,98,99
 1105 77 1105 77 1102 61 c 0,100,101
 1100 51 1100 51 1097 43 c 0,102,103
 1090 29 1090 29 1083 23 c 1,104,105
 1064 2 1064 2 1040 0 c 1,106,107
 1005 0 1005 0 984 27 c 0,108,109
 971 43 971 43 971 84 c 2,110,-1
 971 274 l 2,111,112
 971 293 971 293 979 301 c 0,113,114
 992 313 992 313 1001 313 c 2,84,-1
791 309 m 1,115,-1
 515 309 l 2,116,117
 466 309 466 309 454 281 c 1,118,119
 441 256 441 256 441 196 c 0,120,121
 441 122 441 122 516 82 c 0,122,123
 565 56 565 56 627 56 c 0,124,125
 708 56 708 56 769 108 c 0,126,127
 791 127 791 127 791 196 c 2,128,-1
 791 309 l 1,115,-1
790 360 m 1,129,-1
 790 513 l 2,130,131
 790 557 790 557 818 563 c 1,132,-1
 606 563 l 1,133,134
 585 558 585 558 579 513 c 1,135,-1
 579 360 l 1,136,-1
 790 360 l 1,129,-1
1091 309 m 2,137,-1
 871 309 l 1,138,-1
 871 176 l 2,139,140
 871 89 871 89 816 49 c 0,141,142
 748 0 748 0 626 0 c 0,143,144
 493 0 493 0 425 55 c 0,145,146
 355 111 355 111 355 213 c 0,147,148
 355 360 355 360 482 360 c 2,149,-1
 498 360 l 1,150,-1
 498 513 l 2,151,152
 498 602 498 602 555 614 c 1,153,-1
 1079 614 l 2,154,155
 1068 614 1068 614 1064 588 c 0,156,157
 1060 564 1060 564 1041 563 c 2,158,-1
 903 563 l 1,159,160
 870 552 870 552 870 513 c 2,161,-1
 870 360 l 1,162,-1
 1134 360 l 1,163,164
 1124 354 1124 354 1121 334 c 0,165,166
 1117 309 1117 309 1091 309 c 2,137,-1
EndSplineSet
Ligature2: "'psts' Post Base Substitutions in Tamil lookup 2 subtable" TamlCA Taml_v_UU
EndChar
StartChar: TamlNYA_Taml_v_UU.psts
Encoding: 65579 -1 93
Width: 1553
GlyphClass: 3
Flags: W
Fore
989 507 m 0,0,1
 1001 611 1001 611 1057 611 c 2,2,-1
 1502 611 l 1,3,4
 1492 602 1492 602 1487 584 c 0,5,6
 1480 560 1480 560 1462 560 c 2,7,-1
 1380 560 l 2,8,9
 1366 560 1366 560 1353 552 c 0,10,11
 1338 542 1338 542 1338 526 c 2,12,-1
 1338 -45 l 2,13,14
 1338 -85 1338 -85 1374 -85 c 1,15,-1
 1389 -82 l 1,16,-1
 1418 -46 l 1,17,18
 1428 -37 1428 -37 1422 -58 c 0,19,20
 1419 -70 1419 -70 1412 -89 c 0,21,22
 1391 -152 1391 -152 1332 -152 c 0,23,24
 1258 -152 1258 -152 1258 -60 c 2,25,-1
 1258 510 l 1,26,-1
 1259 530 l 1,27,28
 1261 534 1261 534 1263 537 c 0,29,30
 1276 558 1276 558 1292 560 c 1,31,-1
 1116 560 l 2,32,33
 1074 560 1074 560 1070 505 c 1,34,35
 1014 482 1014 482 997 490 c 0,36,37
 987 495 987 495 989 507 c 0,0,1
184 -256 m 0,38,39
 280 -287 280 -287 398 -287 c 0,40,41
 665 -287 665 -287 771 -127 c 0,42,43
 819 -54 819 -54 813 53 c 0,44,45
 812 62 812 62 811 72 c 0,46,47
 810 85 810 85 804 118 c 0,48,49
 778 245 778 245 695 261 c 0,50,51
 640 271 640 271 595 232 c 0,52,53
 572 212 572 212 551 178 c 1,54,-1
 547 229 l 1,55,56
 613 347 613 347 730 347 c 0,57,58
 863 345 863 345 888 167 c 0,59,60
 907 31 907 31 865 -76 c 0,61,62
 844 -130 844 -130 808 -177 c 0,63,64
 683 -338 683 -338 413 -337 c 0,65,66
 205 -335 205 -335 123 -298 c 0,67,68
 4 -243 4 -243 7 -157 c 1,69,-1
 7 -152 l 1,70,71
 13 -97 13 -97 140 -97 c 2,72,-1
 952 -98 l 2,73,74
 971 -98 971 -98 983 -80 c 0,75,76
 989 -71 989 -71 989 -42 c 2,77,-1
 989 524 l 2,78,79
 989 554 989 554 1022 564 c 1,80,81
 1058 577 1058 577 1062 581 c 0,82,83
 1067 586 1067 586 1070 592 c 1,84,-1
 1070 -41 l 2,85,86
 1070 -94 1070 -94 1058 -117 c 0,87,88
 1040 -150 1040 -150 965 -150 c 2,89,-1
 179 -150 l 2,90,91
 100 -150 100 -150 100 -188 c 1,92,93
 103 -229 103 -229 184 -256 c 0,38,39
304 562 m 2,94,95
 202 562 202 562 135 460 c 0,96,97
 93 394 93 394 81 291 c 1,98,99
 102 337 102 337 152 361 c 1,100,101
 180 376 180 376 223 376 c 0,102,103
 268 376 268 376 308 344 c 0,104,105
 370 293 370 293 359 179 c 0,106,107
 359 168 359 168 356 156 c 1,108,109
 346 83 346 83 285 33 c 0,110,111
 240 -5 240 -5 183 -2 c 0,112,113
 177 -2 l 0,114,115
 80 7 80 7 39 96 c 0,116,117
 -48 288 -48 288 57 456 c 0,118,119
 156 613 156 613 316 613 c 2,120,-1
 741 612 l 1,121,122
 730 601 730 601 726 586 c 0,123,124
 720 562 720 562 701 562 c 2,125,-1
 613 562 l 2,126,127
 603 562 603 562 593 552 c 0,128,129
 587 546 587 546 587 531 c 2,130,-1
 587 128 l 2,131,132
 587 78 587 78 618 78 c 0,133,134
 645 78 645 78 652 119 c 0,135,136
 655 134 655 134 655 128 c 0,137,138
 657 98 657 98 653 76 c 0,139,140
 651 62 651 62 647 51 c 0,141,142
 641 35 641 35 632 23 c 0,143,144
 610 -6 610 -6 582 -6 c 0,145,146
 543 -6 543 -6 517 29 c 1,147,148
 498 52 498 52 498 108 c 2,149,-1
 498 517 l 2,150,151
 498 536 498 536 507 545 c 1,152,153
 521 562 521 562 531 562 c 2,154,-1
 304 562 l 2,94,95
96 237 m 1,155,156
 83 211 83 211 86 182 c 0,157,158
 86 177 86 177 87 172 c 0,159,160
 92 151 92 151 100 134 c 0,161,162
 129 73 129 73 178 63 c 0,163,164
 205 58 205 58 224 64 c 0,165,166
 235 67 235 67 243 74 c 0,167,168
 256 87 256 87 262 100 c 0,169,170
 282 143 282 143 279 190 c 0,171,172
 279 195 279 195 278 200 c 0,173,174
 274 219 274 219 264 248 c 1,175,176
 246 291 246 291 190 291 c 2,177,-1
 186 291 l 2,178,179
 124 285 124 285 96 237 c 1,155,156
EndSplineSet
Ligature2: "'psts' Post Base Substitutions in Tamil lookup 2 subtable" TamlNYA Taml_v_UU
EndChar
StartChar: TamlTTA_Taml_v_UU.psts
Encoding: 65580 -1 94
Width: 885
GlyphClass: 3
Flags: W
Fore
722 714 m 1,0,1
 684 721 684 721 658 714 c 0,2,3
 644 710 644 710 634 702 c 0,4,5
 626 696 626 696 620 688 c 0,6,7
 618 685 618 685 609 670 c 1,8,9
 594 631 594 631 599 603 c 0,10,11
 601 591 601 591 607 581 c 0,12,13
 618 563 618 563 637 553 c 0,14,15
 669 536 669 536 698 539 c 0,16,17
 701 539 701 539 705 540 c 0,18,19
 721 544 721 544 731 551 c 0,20,21
 768 575 768 575 761 644 c 0,22,23
 755 690 755 690 722 714 c 1,0,1
543 823 m 0,24,25
 479 832 479 832 420 822 c 0,26,27
 389 817 389 817 360 807 c 0,28,29
 278 778 278 778 205 696 c 0,30,31
 151 637 151 637 127 557 c 0,32,33
 87 425 87 425 84 313 c 0,34,35
 82 238 82 238 92 177 c 0,36,37
 97 144 97 144 106 115 c 0,38,39
 120 70 120 70 139 35 c 0,40,41
 239 -142 239 -142 398 -153 c 0,42,43
 458 -156 458 -156 504 -142 c 0,44,45
 527 -135 527 -135 547 -123 c 0,46,47
 648 -63 648 -63 668 51 c 0,48,49
 683 143 683 143 665 207 c 0,50,51
 656 238 656 238 639 263 c 0,52,53
 608 309 608 309 552 300 c 0,54,55
 545 299 545 299 537 297 c 0,56,57
 443 273 443 273 438 199 c 1,58,-1
 442 274 l 1,59,60
 468 344 468 344 522 367 c 0,61,62
 581 391 581 391 628 383 c 0,63,64
 647 380 647 380 665 371 c 1,65,66
 692 355 692 355 716 322 c 1,67,68
 755 261 755 261 754 166 c 1,69,-1
 754 160 l 1,70,71
 746 -23 746 -23 643 -125 c 1,72,73
 561 -204 561 -204 412 -207 c 0,74,75
 327 -208 327 -208 252 -173 c 0,76,77
 215 -156 215 -156 181 -131 c 0,78,79
 131 -94 131 -94 84 -35 c 0,80,81
 0 72 0 72 0 291 c 0,82,83
 0 418 0 418 18 485 c 0,84,85
 57 630 57 630 123 711 c 0,86,87
 181 782 181 782 288 842 c 0,88,89
 367 886 367 886 503 884 c 0,90,91
 511 884 l 0,92,93
 516 883 516 883 526 883 c 0,94,95
 606 880 606 880 686 838 c 0,96,97
 777 789 777 789 817 702 c 0,98,99
 846 637 846 637 829 579 c 0,100,101
 820 551 820 551 801 524 c 0,102,103
 763 474 763 474 686 469 c 0,104,105
 638 466 638 466 602 488 c 0,106,107
 583 499 583 499 567 518 c 0,108,109
 538 552 538 552 537 602 c 0,110,111
 535 631 535 631 544 656 c 0,112,113
 549 669 549 669 557 681 c 0,114,115
 572 703 572 703 586 715 c 0,116,117
 631 756 631 756 688 753 c 0,118,119
 692 753 l 1,120,121
 628 812 628 812 543 823 c 0,24,25
378 112 m 2,122,-1
 378 548 l 2,123,124
 378 576 378 576 411 588 c 0,125,126
 439 597 439 597 451 604 c 1,127,128
 458 614 458 614 459 615 c 1,129,-1
 459 130 l 2,130,131
 459 81 459 81 499 81 c 0,132,133
 524 81 524 81 532 122 c 0,134,135
 535 132 535 132 536 131 c 0,136,137
 539 62 539 62 512 26 c 0,138,139
 490 -3 490 -3 462 -3 c 0,140,141
 424 -3 424 -3 397 32 c 0,142,143
 378 55 378 55 378 112 c 2,122,-1
EndSplineSet
Ligature2: "'psts' Post Base Substitutions in Tamil lookup 2 subtable" TamlTTA Taml_v_UU
EndChar
